STARTFONT 2.1
FONT _CUSTOMER
SIZE 36 72 72
FONTBOUNDINGBOX 36 36 0 0
STARTPROPERTIES 1
BITCOUNT 1
ENDPROPERTIES
CHARS 5812
STARTCHAR  00A8
ENCODING  168
SWIDTH  1000 0
DWIDTH  16 0
BBX  12 4 2 28
BITMAP
6060
E0E0
E0E0
6060
ENDCHAR
STARTCHAR  02C7
ENCODING  711
SWIDTH  1000 0
DWIDTH  14 0
BBX  12 7 1 28
BITMAP
6070
7060
38E0
19C0
1D80
0F80
0700
ENDCHAR
STARTCHAR  02C9
ENCODING  713
SWIDTH  1000 0
DWIDTH  12 0
BBX  10 3 1 28
BITMAP
FFC0
FFC0
FFC0
ENDCHAR
STARTCHAR  03A9
ENCODING  937
SWIDTH  1000 0
DWIDTH  30 0
BBX  26 27 2 5
BITMAP
007F8000
03FFF000
07FFF800
1F807E00
1E001E00
3C000F00
78000780
78000780
F0000380
F00003C0
F00003C0
F00003C0
F00003C0
F00003C0
F00003C0
F00003C0
70000380
70000380
78000780
38000F00
1C000E00
1E001E00
0F003C00
03807000
FFC0FFC0
FFC0FFC0
FFC0FFC0
ENDCHAR
STARTCHAR  03B8
ENCODING  952
SWIDTH  1000 0
DWIDTH  23 0
BBX  19 30 2 5
BITMAP
01F000
07FE00
0FFF00
1F0F00
3C0780
3803C0
7803C0
7001C0
7001C0
7001E0
F001E0
F001E0
F001E0
FFFFE0
FFFFE0
FFFFE0
F001E0
F001E0
F001E0
F001E0
F001E0
7001C0
7001C0
7803C0
380380
3C0780
1E0F00
1FFE00
07FC00
03F000
ENDCHAR
STARTCHAR  2018
ENCODING  8216
SWIDTH  1000 0
DWIDTH  10 0
BBX  6 9 2 23
BITMAP
1C
1C
18
38
38
38
70
70
70
ENDCHAR
STARTCHAR  2019
ENCODING  8217
SWIDTH  1000 0
DWIDTH  10 0
BBX  6 9 2 23
BITMAP
38
38
38
70
70
70
60
E0
E0
ENDCHAR
STARTCHAR  201C
ENCODING  8220
SWIDTH  1000 0
DWIDTH  16 0
BBX  12 9 2 23
BITMAP
1C70
1C70
1860
38E0
38E0
38E0
71C0
71C0
71C0
ENDCHAR
STARTCHAR  201D
ENCODING  8221
SWIDTH  1000 0
DWIDTH  16 0
BBX  12 9 2 23
BITMAP
38E0
38E0
38E0
71C0
71C0
71C0
6180
E380
E380
ENDCHAR
STARTCHAR  2026
ENCODING  8230
SWIDTH  1000 0
DWIDTH  28 0
BBX  22 4 3 5
BITMAP
603818
F07C3C
F07C3C
603818
ENDCHAR
STARTCHAR  2032
ENCODING  8242
SWIDTH  1000 0
DWIDTH  9 0
BBX  5 9 2 23
BITMAP
38
38
30
70
70
70
60
60
60
ENDCHAR
STARTCHAR  2033
ENCODING  8243
SWIDTH  1000 0
DWIDTH  15 0
BBX  11 9 2 23
BITMAP
38E0
38C0
39C0
31C0
71C0
71C0
7180
6180
6380
ENDCHAR
STARTCHAR  2103
ENCODING  8451
SWIDTH  1000 0
DWIDTH  36 0
BBX  33 29 1 4
BITMAP
1E0003FE00
7F801FFF00
71807FFF00
E0C0FE0300
C0C1F00000
C0C3E00000
C0C7C00000
6187800000
7F8F000000
1E0F000000
000F000000
000E000000
001E000000
001E000000
001E000000
001E000000
001E000000
000E000000
000F000000
000F000000
000F800000
0007800000
0007C00000
0003F00000
0001FC0300
0000FFFF00
00003FFF00
00000FFC00
0000000000
ENDCHAR
STARTCHAR  221A
ENCODING  8730
SWIDTH  1000 0
DWIDTH  25 0
BBX  20 30 2 4
BITMAP
000060
000060
0000E0
0000E0
0000C0
0000C0
0001C0
0001C0
000180
000180
000380
000300
000300
FC0300
FC0700
0E0600
0E0600
060600
070E00
070C00
038C00
039C00
01DC00
01D800
00D800
00F800
00F800
007000
007000
000000
ENDCHAR
STARTCHAR  2260
ENCODING  8800
SWIDTH  1000 0
DWIDTH  27 0
BBX  18 23 4 5
BITMAP
000700
000700
000E00
000E00
001C00
001800
FFFFC0
FFFFC0
FFFFC0
006000
00E000
01C000
01C000
038000
FFFFC0
FFFFC0
FFFFC0
0E0000
0E0000
1C0000
1C0000
380000
380000
ENDCHAR
STARTCHAR  2264
ENCODING  8804
SWIDTH  1000 0
DWIDTH  27 0
BBX  18 24 4 5
BITMAP
000000
000180
000380
000F80
003F00
00FC00
03F000
0FC000
1F0000
7C0000
7C0000
3F0000
0FC000
03F000
00FC00
003F00
000F80
000380
000080
000000
000000
FFFFC0
FFFFC0
FFFFC0
ENDCHAR
STARTCHAR  2265
ENCODING  8805
SWIDTH  1000 0
DWIDTH  27 0
BBX  18 24 4 5
BITMAP
000000
600000
700000
7C0000
1F0000
07C000
03F000
00FC00
003F00
000F80
000F80
003F00
00FC00
03F000
0FC000
3F0000
7C0000
700000
400000
000000
000000
FFFFC0
FFFFC0
FFFFC0
ENDCHAR
STARTCHAR  3000
ENCODING  12288
SWIDTH  1000 0
DWIDTH  36 0
BBX  0 0 0 5
BITMAP
ENDCHAR
STARTCHAR  3001
ENCODING  12289
SWIDTH  1000 0
DWIDTH  13 0
BBX  9 9 2 0
BITMAP
0000
6000
F800
3C00
1E00
0F00
0780
0300
0000
ENDCHAR
STARTCHAR  3002
ENCODING  12290
SWIDTH  1000 0
DWIDTH  14 0
BBX  10 9 2 1
BITMAP
1E00
3F00
7F80
6380
E180
6180
7F80
3F00
1E00
ENDCHAR
STARTCHAR  3008
ENCODING  12296
SWIDTH  1000 0
DWIDTH  16 0
BBX  12 35 2 0
BITMAP
00E0
01E0
01C0
03C0
0380
0380
0700
0700
0F00
0E00
0E00
1C00
1C00
3800
3800
7800
7000
7000
7000
3800
3800
3C00
1C00
1C00
0E00
0E00
0700
0700
0780
0380
0380
01C0
01C0
00E0
0000
ENDCHAR
STARTCHAR  3009
ENCODING  12297
SWIDTH  1000 0
DWIDTH  16 0
BBX  12 35 2 0
BITMAP
7000
3800
3800
3C00
1C00
1C00
0E00
0E00
0700
0700
0780
0380
0380
01C0
01C0
00E0
00E0
00E0
00E0
01E0
01C0
03C0
0380
0380
0700
0700
0F00
0E00
1E00
1C00
1C00
3800
3800
7800
0000
ENDCHAR
STARTCHAR  300A
ENCODING  12298
SWIDTH  1000 0
DWIDTH  21 0
BBX  17 35 2 0
BITMAP
00E700
00C700
01CE00
01CE00
038C00
039C00
071C00
073800
0E3800
0E7000
0C7000
1CE000
1CE000
38C000
39C000
71C000
738000
738000
738000
31C000
39C000
38E000
1CE000
1C7000
0E7000
0E3000
073800
073800
031C00
039C00
018E00
01CE00
01C700
00E700
000000
ENDCHAR
STARTCHAR  300B
ENCODING  12299
SWIDTH  1000 0
DWIDTH  21 0
BBX  17 35 2 0
BITMAP
738000
71C000
39C000
38C000
1CE000
1CE000
0C7000
0E7000
063800
073800
071C00
039C00
038C00
01CE00
01CE00
00C700
00E700
00E300
00E700
01C700
01CE00
018E00
039C00
031C00
073800
073800
0E3000
0E7000
1C7000
1CE000
38E000
39C000
31C000
738000
000000
ENDCHAR
STARTCHAR  300C
ENCODING  12300
SWIDTH  1000 0
DWIDTH  15 0
BBX  11 35 2 1
BITMAP
FFC0
FFC0
FFC0
E000
E000
E000
E000
E000
E000
E000
E000
E000
E000
E000
E000
E000
E000
E000
E000
E000
E000
E000
E000
E000
E000
E000
E000
E000
E000
E000
E000
E000
E000
E000
E000
ENDCHAR
STARTCHAR  300D
ENCODING  12301
SWIDTH  1000 0
DWIDTH  15 0
BBX  11 35 2 1
BITMAP
00E0
00E0
00E0
00E0
00E0
00E0
00E0
00E0
00E0
00E0
00E0
00E0
00E0
00E0
00E0
00E0
00E0
00E0
00E0
00E0
00E0
00E0
00E0
00E0
00E0
00E0
00E0
00E0
00E0
00E0
00E0
00E0
7FE0
7FE0
7FE0
ENDCHAR
STARTCHAR  300E
ENCODING  12302
SWIDTH  1000 0
DWIDTH  16 0
BBX  12 35 2 1
BITMAP
FFF0
FFF0
C030
C030
C030
CFF0
CFF0
CC00
CC00
CC00
CC00
CC00
CC00
CC00
CC00
CC00
CC00
CC00
CC00
CC00
CC00
CC00
CC00
CC00
CC00
CC00
CC00
CC00
CC00
CC00
CC00
CC00
CC00
FC00
FC00
ENDCHAR
STARTCHAR  300F
ENCODING  12303
SWIDTH  1000 0
DWIDTH  17 0
BBX  13 35 2 1
BITMAP
03F8
03F8
0318
0318
0318
0318
0318
0318
0318
0318
0318
0318
0318
0318
0318
0318
0318
0318
0318
0318
0318
0318
0318
0318
0318
0318
0318
0318
7F18
7F18
6018
6018
6018
7FF8
7FF8
ENDCHAR
STARTCHAR  3010
ENCODING  12304
SWIDTH  1000 0
DWIDTH  13 0
BBX  9 34 2 1
BITMAP
FF80
FF00
FE00
FC00
F800
F000
F000
F000
F000
F000
F000
F000
F000
F000
F000
F000
F000
F000
F000
F000
F000
F000
F000
F000
F000
F000
F000
F000
F000
F800
FC00
FE00
FF00
FF80
ENDCHAR
STARTCHAR  3011
ENCODING  12305
SWIDTH  1000 0
DWIDTH  13 0
BBX  9 34 2 1
BITMAP
FF80
7F80
3F80
1F80
0F80
0780
0780
0780
0780
0780
0780
0780
0780
0780
0780
0780
0780
0780
0780
0780
0780
0780
0780
0780
0780
0780
0780
0780
0780
0F80
1F80
3F80
7F80
FF80
ENDCHAR
STARTCHAR  3014
ENCODING  12308
SWIDTH  1000 0
DWIDTH  14 0
BBX  10 35 4 0
BITMAP
0000
0780
1F80
7F00
FC00
F000
E000
E000
E000
E000
E000
E000
E000
E000
E000
E000
E000
E000
E000
E000
E000
E000
E000
E000
E000
E000
E000
E000
E000
F000
FC00
3F00
0F80
0380
0000
ENDCHAR
STARTCHAR  3015
ENCODING  12309
SWIDTH  1000 0
DWIDTH  14 0
BBX  10 35 2 0
BITMAP
0000
7800
7E00
3F80
0FC0
03C0
01C0
01C0
01C0
01C0
01C0
01C0
01C0
01C0
01C0
01C0
01C0
01C0
01C0
01C0
01C0
01C0
01C0
01C0
01C0
01C0
01C0
01C0
01C0
03C0
0FC0
3F00
7C00
7000
0000
ENDCHAR
STARTCHAR  3016
ENCODING  12310
SWIDTH  1000 0
DWIDTH  18 0
BBX  14 35 2 0
BITMAP
FFF8
FFF8
E070
E0E0
E0E0
E1C0
E1C0
E1C0
E380
E380
E380
E300
E700
E700
E700
E700
E700
E700
E700
E700
E700
E700
E700
E700
E380
E380
E380
E380
E1C0
E1C0
E0E0
E0E0
FFF0
FFF8
0000
ENDCHAR
STARTCHAR  3017
ENCODING  12311
SWIDTH  1000 0
DWIDTH  18 0
BBX  14 35 2 0
BITMAP
7FFC
7FFC
381C
1C1C
1C1C
0E1C
0E1C
0E1C
071C
071C
071C
071C
039C
039C
039C
039C
039C
039C
039C
039C
039C
039C
039C
039C
071C
071C
071C
0F1C
0E1C
0E1C
1C1C
1C1C
3FFC
7FFC
0000
ENDCHAR
STARTCHAR  4E00
ENCODING  19968
SWIDTH  1000 0
DWIDTH  36 0
BBX  32 3 2 17
BITMAP
FFFFFFFF
FFFFFFFF
FFFFFFFF
ENDCHAR
STARTCHAR  4E01
ENCODING  19969
SWIDTH  1000 0
DWIDTH  36 0
BBX  34 32 1 0
BITMAP
FFFFFFFFC0
FFFFFFFFC0
FFFFFFFFC0
0000700000
0000700000
0000700000
0000700000
0000700000
0000700000
0000700000
0000700000
0000700000
0000700000
0000700000
0000700000
0000700000
0000700000
0000700000
0000700000
0000700000
0000700000
0000700000
0000700000
0000700000
0000700000
0000700000
0000700000
0000F00000
00FFF00000
00FFE00000
00FFC00000
0000000000
ENDCHAR
STARTCHAR  4E03
ENCODING  19971
SWIDTH  1000 0
DWIDTH  36 0
BBX  34 33 1 1
BITMAP
000E000000
000E000000
000E000000
000E000000
000E000000
000E000000
000E000000
000E000000
000E000000
000E000000
000E03FFC0
000FFFFFC0
03FFFFFFC0
FFFFFC0000
FFFE000000
FC0E000000
000E000000
000E000000
000E000000
000E000000
000E000000
000E000000
000E000000
000E000380
000E000380
000E000380
000E000380
000E000380
000E000780
000F000F00
0007FFFF00
0007FFFE00
0001FFFC00
ENDCHAR
STARTCHAR  4E07
ENCODING  19975
SWIDTH  1000 0
DWIDTH  36 0
BBX  34 32 1 0
BITMAP
FFFFFFFFC0
FFFFFFFFC0
FFFFFFFFC0
001C000000
001C000000
001C000000
001C000000
001C000000
001C000000
001C000000
001FFFF800
001FFFF800
001FFFF800
003C003800
0038003800
0038003800
0078003800
0078003800
0070003800
00F0003800
00F0003800
01E0003800
01E0003800
03C0003800
07C0007800
0F80007000
1F00007000
3E0000F000
7C00FFE000
F800FFE000
7000FF8000
4000000000
ENDCHAR
STARTCHAR  4E08
ENCODING  19976
SWIDTH  1000 0
DWIDTH  36 0
BBX  34 34 1 1
BITMAP
00000E0000
00000E0000
00000E0000
00000E0000
00000E0000
00000E0000
00000E0000
FFFFFFFFC0
FFFFFFFFC0
FFFFFFFFC0
00000E0000
01000E0000
03800E0000
03800E0000
01C00E0000
01C01C0000
00E01C0000
00F01C0000
00701C0000
00783C0000
003C380000
001E780000
000F700000
0007F00000
0003E00000
0007F00000
000FF80000
003F7E0000
00FE1FC000
03F80FF800
1FE003FFC0
FFC000FFC0
FE00001F80
7800000000
ENDCHAR
STARTCHAR  4E09
ENCODING  19977
SWIDTH  1000 0
DWIDTH  36 0
BBX  34 28 1 3
BITMAP
3FFFFFFE00
3FFFFFFE00
3FFFFFFE00
0000000000
0000000000
0000000000
0000000000
0000000000
0000000000
0000000000
0000000000
0000000000
0FFFFFFC00
0FFFFFFC00
0FFFFFFC00
0000000000
0000000000
0000000000
0000000000
0000000000
0000000000
0000000000
0000000000
0000000000
0000000000
FFFFFFFFC0
FFFFFFFFC0
FFFFFFFFC0
ENDCHAR
STARTCHAR  4E0A
ENCODING  19978
SWIDTH  1000 0
DWIDTH  36 0
BBX  34 32 1 2
BITMAP
0003800000
0003800000
0003800000
0003800000
0003800000
0003800000
0003800000
0003800000
0003800000
0003800000
0003FFFE00
0003FFFE00
0003FFFE00
0003800000
0003800000
0003800000
0003800000
0003800000
0003800000
0003800000
0003800000
0003800000
0003800000
0003800000
0003800000
0003800000
0003800000
0003800000
0003800000
FFFFFFFFC0
FFFFFFFFC0
FFFFFFFFC0
ENDCHAR
STARTCHAR  4E0B
ENCODING  19979
SWIDTH  1000 0
DWIDTH  36 0
BBX  34 31 1 1
BITMAP
FFFFFFFFC0
FFFFFFFFC0
FFFFFFFFC0
0003800000
0003800000
0003800000
0003800000
0003800000
0003800000
0003B80000
0003BC0000
0003BF0000
00038F8000
000387C000
000381E000
000380F000
0003807800
0003803C00
0003801C00
0003800000
0003800000
0003800000
0003800000
0003800000
0003800000
0003800000
0003800000
0003800000
0003800000
0003800000
0003800000
ENDCHAR
STARTCHAR  4E0D
ENCODING  19981
SWIDTH  1000 0
DWIDTH  36 0
BBX  35 31 1 1
BITMAP
FFFFFFFFC0
FFFFFFFFC0
FFFFFFFFC0
0000780000
0000780000
0000F00000
0001E00000
0001E00000
0003C00000
0007800000
000FE00000
001FE20000
003EE78000
007CE7C000
00F8E3F000
01F0E0F800
03E0E07E00
07C0E01F00
1F80E00FC0
3E00E003E0
7C00E001C0
F800E00080
6000E00000
4000E00000
0000E00000
0000E00000
0000E00000
0000E00000
0000E00000
0000E00000
0000E00000
ENDCHAR
STARTCHAR  4E0E
ENCODING  19982
SWIDTH  1000 0
DWIDTH  36 0
BBX  35 34 1 1
BITMAP
01C0000000
01C0000000
01C0000000
01C0000000
01C0000000
01FFFFFFE0
01FFFFFFE0
03FFFFFFE0
0380000000
0380000000
0380000000
0380000000
0380000000
0380000000
03FFFFFF00
03FFFFFF00
03FFFFFF00
0000000700
0000000700
0000000700
0000000700
0000000700
FFFFFFC700
FFFFFFC700
FFFFFFC700
0000000700
0000000E00
0000000E00
0000000E00
0000000E00
0000001E00
0001FFFC00
0001FFF800
0000FFF000
ENDCHAR
STARTCHAR  4E10
ENCODING  19984
SWIDTH  1000 0
DWIDTH  36 0
BBX  33 32 2 1
BITMAP
FFFFFFFF80
FFFFFFFF80
FFFFFFFF80
0003800000
0003800000
1C03800000
1C03800000
1C03800000
1C03FFFC00
1C03FFFC00
1C03FFFC00
1C03800000
1C03800000
1C03800000
1C03800000
1C03800000
1FFFFFFE00
1FFFFFFE00
1FFFFFFE00
0000000E00
0000000E00
0000000E00
0000000E00
0000000E00
0000000E00
0000000E00
0000001E00
0000001C00
0000003C00
0000FFFC00
0000FFF800
0000FFE000
ENDCHAR
STARTCHAR  4E11
ENCODING  19985
SWIDTH  1000 0
DWIDTH  36 0
BBX  36 31 0 2
BITMAP
1FFFFFFC00
1FFFFFFC00
1FFFFFFC00
000E001C00
000E001C00
000E001C00
000E001C00
000E001C00
000E001C00
000E001C00
000E001C00
000E001C00
000C001C00
1FFFFFFC00
1FFFFFFC00
1FFFFFF800
001C003800
001C003800
001C003800
001C003800
001C003800
001C003800
0018003800
0038003800
0038003800
0038003800
0038003800
0038003800
7FFFFFFFE0
7FFFFFFFE0
7FFFFFFFE0
ENDCHAR
STARTCHAR  4E13
ENCODING  19987
SWIDTH  1000 0
DWIDTH  36 0
BBX  35 34 1 1
BITMAP
0003C00000
0003800000
0003800000
0007800000
0007000000
3FFFFFFF00
3FFFFFFF00
3FFFFFFF00
001E000000
001C000000
003C000000
0038000000
FFFFFFFFE0
FFFFFFFFE0
FFFFFFFFE0
00F0000000
00E0000000
00E0000000
01E0000000
01FFFFFE00
01FFFFFE00
01FFFFFE00
0000003C00
0000007800
000000F000
00E001E000
01FC07C000
007F0F0000
001FDE0000
0007FC0000
0001FC0000
00007F0000
00001FC000
000007C000
ENDCHAR
STARTCHAR  4E14
ENCODING  19988
SWIDTH  1000 0
DWIDTH  36 0
BBX  35 31 0 2
BITMAP
07FFFFFC00
07FFFFFC00
07FFFFFC00
0700001C00
0700001C00
0700001C00
0700001C00
0700001C00
0700001C00
07FFFFFC00
07FFFFFC00
07FFFFFC00
0700001C00
0700001C00
0700001C00
0700001C00
0700001C00
0700001C00
07FFFFFC00
07FFFFFC00
07FFFFFC00
0700001C00
0700001C00
0700001C00
0700001C00
0700001C00
0700001C00
0700001C00
FFFFFFFFE0
FFFFFFFFE0
FFFFFFFFE0
ENDCHAR
STARTCHAR  4E15
ENCODING  19989
SWIDTH  1000 0
DWIDTH  36 0
BBX  36 31 0 2
BITMAP
7FFFFFFFE0
7FFFFFFFE0
7FFFFFFFE0
00003C0000
0000780000
0000700000
0000F00000
0001E00000
0003C00000
0003F00000
0007F00000
000F718000
001E73E000
003C71F000
007870FC00
00F0703E00
03E0701F80
07C0700FC0
0F807003F0
3F007001E0
7C00700060
7800700000
3000700000
0000700000
0000700000
0000700000
0000700000
0000000000
7FFFFFFFE0
7FFFFFFFE0
7FFFFFFFE0
ENDCHAR
STARTCHAR  4E16
ENCODING  19990
SWIDTH  1000 0
DWIDTH  36 0
BBX  36 33 0 2
BITMAP
0001C00000
0001C01C00
0701C01C00
0701C01C00
0701C01C00
0701C01C00
0701C01C00
0701C01C00
0701C01C00
7FFFFFFFE0
7FFFFFFFE0
7FFFFFFFE0
0701C01C00
0701C01C00
0701C01C00
0701C01C00
0701C01C00
0701C01C00
0701C01C00
0701C01C00
0701C01C00
0701FFFC00
0701FFFC00
0701FFFC00
0701C01C00
0701C01C00
0700000000
0700000000
0700000000
0700000000
07FFFFFFC0
07FFFFFFC0
07FFFFFFC0
ENDCHAR
STARTCHAR  4E18
ENCODING  19992
SWIDTH  1000 0
DWIDTH  36 0
BBX  34 30 1 4
BITMAP
00001FFE00
03FFFFFE00
03FFFFFE00
03FFE00000
0380000000
0380000000
0380000000
0380000000
0380000000
0380000000
0380000000
03FFFFFF80
03FFFFFF80
03FFFFFF80
0380070000
0380070000
0380070000
0380070000
0380070000
0380070000
0380070000
0380070000
0380070000
0380070000
0380070000
0380070000
0380070000
FFFFFFFFC0
FFFFFFFFC0
FFFFFFFFC0
ENDCHAR
STARTCHAR  4E19
ENCODING  19993
SWIDTH  1000 0
DWIDTH  36 0
BBX  34 32 1 1
BITMAP
FFFFFFFFC0
FFFFFFFFC0
FFFFFFFFC0
0000E00000
0000E00000
0000E00000
0000E00000
0000E00000
1FFFFFFE00
1FFFFFFE00
1FFFFFFE00
1C00E00E00
1C00E00E00
1C00E00E00
1C00F00E00
1C01F80E00
1C01DC0E00
1C038E0E00
1C07870E00
1C0F038E00
1C1E01CE00
1C7C01EE00
1CF800FE00
1CF0006E00
1C40000E00
1C00000E00
1C00000E00
1C00000E00
1C00000E00
1C0007FE00
1C0007FC00
1C0007F800
ENDCHAR
STARTCHAR  4E1A
ENCODING  19994
SWIDTH  1000 0
DWIDTH  36 0
BBX  35 32 1 2
BITMAP
001C0E0000
001C0E0000
001C0E0000
001C0E0000
001C0E0000
001C0E0000
001C0E0000
101C0E0000
381C0E0380
381C0E0380
381C0E0700
1C1C0E0700
1C1C0E0F00
0E1C0E0E00
0E1C0E0E00
0E1C0E1C00
071C0E1C00
071C0E3800
071C0E3800
039C0E7000
039C0E7000
039C0EF000
001C0E2000
001C0E0000
001C0E0000
001C0E0000
001C0E0000
001C0E0000
001C0E0000
FFFFFFFFE0
FFFFFFFFE0
FFFFFFFFE0
ENDCHAR
STARTCHAR  4E1B
ENCODING  19995
SWIDTH  1000 0
DWIDTH  36 0
BBX  35 33 1 2
BITMAP
0000000000
00E0070000
00E0070000
00E0070000
00E0070000
00E0070000
00E0070000
00E0070000
00E0070000
00E0070000
00E0070000
00C0070000
01C0078000
01C0078000
01E00F8000
01F00FC000
01F80FC000
03BC1CC000
039E1CE000
078F9CE000
0707387000
0F02787800
0E00703800
1E00F03C00
1C01E01E00
3803C00F00
7807800FC0
F00F000780
6006000100
0004000000
FFFFFFFFC0
FFFFFFFFC0
FFFFFFFFC0
ENDCHAR
STARTCHAR  4E1C
ENCODING  19996
SWIDTH  1000 0
DWIDTH  36 0
BBX  36 35 0 0
BITMAP
0018000000
001C000000
003C000000
0038000000
0078000000
7FFFFFFFE0
7FFFFFFFE0
7FFFFFFFE0
00E0000000
01E0380000
01C0380000
03C0380000
0380380000
0780380000
0700380000
0700380000
0E00380000
0FFFFFFF80
0FFFFFFF80
0FFFFFFF80
0000380000
0000380000
0040380000
00F0387000
01E0387800
03C0383C00
0780381E00
0F00380F80
1E003807C0
3C003803E0
78007801E0
703FF80040
201FF00000
001FE00000
0000000000
ENDCHAR
STARTCHAR  4E1D
ENCODING  19997
SWIDTH  1000 0
DWIDTH  36 0
BBX  34 33 1 2
BITMAP
00C0000000
00E000E000
01E001C000
01C003C000
03C0038000
0380078000
0700070000
07060E0600
0E0F0E0F00
1C0E1C0E00
1C1E381E00
381C701C00
7FF8FFF800
7FF9FFF800
7FF1FFF000
00E000E000
01E001C000
01C003C000
0380038000
0780070000
07000E0000
0E001C0000
3C7E3FFF80
3FFE7FFF80
3FFC7FFC00
0000000000
0000000000
0000000000
0000000000
0000000000
FFFFFFFFC0
FFFFFFFFC0
FFFFFFFFC0
ENDCHAR
STARTCHAR  4E1E
ENCODING  19998
SWIDTH  1000 0
DWIDTH  36 0
BBX  36 31 0 2
BITMAP
07FFFFFE00
07FFFFFE00
07FFFFFE00
0000007C00
000003F000
00000FC000
00003F0000
00007C0000
3FFC780180
3FFC7C07C0
3FFC7E0F00
001C761E00
0038777C00
003073F000
007071E000
00E071E000
01E070F000
01C0707800
0380703C00
0700701E00
1E00700F80
3C007007E0
78007003E0
7000F000C0
201FE00000
001FE00000
001F800000
0000000000
7FFFFFFFE0
7FFFFFFFE0
7FFFFFFFE0
ENDCHAR
STARTCHAR  4E22
ENCODING  20002
SWIDTH  1000 0
DWIDTH  36 0
BBX  34 33 1 1
BITMAP
0000FFFE00
3FFFFFFE00
3FFFFFFE00
3FFFE00000
0000E00000
0000E00000
0000E00000
0000E00000
0000E00000
3FFFFFFF00
3FFFFFFF00
3FFFFFFF00
0000E00000
0000E00000
0000E00000
0000E00000
0000E00000
0000E00000
FFFFFFFFC0
FFFFFFFFC0
FFFFFFFFC0
000F000000
000E000000
001C030000
0038078000
007003C000
00E001E000
03C000F000
0780007800
1FFFFFFC00
1FFFFFFE00
1FFFFFFF00
0000000600
ENDCHAR
STARTCHAR  4E24
ENCODING  20004
SWIDTH  1000 0
DWIDTH  36 0
BBX  36 33 0 0
BITMAP
7FFFFFFFE0
7FFFFFFFE0
7FFFFFFFE0
000C070000
000C070000
000C070000
000C070000
1FFFFFFF80
1FFFFFFF80
1FFFFFFF80
1C1C070380
1C1C070380
1C1C070380
1C1C070380
1C1C060380
1C1C0E0380
1C3E0F0380
1C3F8F8380
1C33DFC380
1C71DDE380
1C70B8F380
1CE0387B80
1DE0703F80
1FC0F01B80
1F81E00380
1D01C00380
1C00800380
1C00000380
1C00000380
1C0001FF80
1C0001FF00
1C0001FE00
0000000000
ENDCHAR
STARTCHAR  4E25
ENCODING  20005
SWIDTH  1000 0
DWIDTH  36 0
BBX  34 32 1 1
BITMAP
FFFFFFFFC0
FFFFFFFFC0
FFFFFFFFC0
000E0E0000
0C0E0E0600
1E0E0E0F00
0F0E0E1E00
078E0E3C00
038E0E3800
038E0E7000
010E0E2000
000E0E0000
1FFFFFFFC0
1FFFFFFFC0
1FFFFFFFC0
1C00000000
1C00000000
1C00000000
1C00000000
1C00000000
1C00000000
1C00000000
1C00000000
3800000000
3800000000
3800000000
7800000000
7000000000
7000000000
E000000000
E000000000
C000000000
ENDCHAR
STARTCHAR  4E27
ENCODING  20007
SWIDTH  1000 0
DWIDTH  36 0
BBX  34 34 1 1
BITMAP
0000E00000
0000E00000
0000E00000
7FFFFFFF80
7FFFFFFF80
7FFFFFFF80
0000E00000
0600E00800
0F00E01C00
0780E03C00
03C0E07800
01E0E0F000
01E0E1E000
00E0E1C000
0040E08000
0000E00000
FFFFFFFFC0
FFFFFFFFC0
0383000000
0383800000
0383C00E00
0381C01E00
0380E07E00
0380F1F800
03807FE000
03803F8000
03801E0000
03804F8000
0381C7C000
038FC3F800
03FFC0FF00
03FE003FC0
03F0000FC0
03C0000180
ENDCHAR
STARTCHAR  4E28
ENCODING  20008
SWIDTH  1000 0
DWIDTH  36 0
BBX  3 33 17 1
BITMAP
E0
E0
E0
E0
E0
E0
E0
E0
E0
E0
E0
E0
E0
E0
E0
E0
E0
E0
E0
E0
E0
E0
E0
E0
E0
E0
E0
E0
E0
E0
E0
E0
E0
ENDCHAR
STARTCHAR  4E2A
ENCODING  20010
SWIDTH  1000 0
DWIDTH  36 0
BBX  35 33 0 1
BITMAP
0000E00000
0001F00000
0001F00000
0003F80000
0007BC0000
000F1E0000
001E0F0000
003E078000
007C03C000
00F803E000
01F000F000
03E0007C00
0F80E03F00
1F00E01FC0
7E00E007E0
F800E003C0
7000E000C0
0000E00000
0000E00000
0000E00000
0000E00000
0000E00000
0000E00000
0000E00000
0000E00000
0000E00000
0000E00000
0000E00000
0000E00000
0000E00000
0000E00000
0000E00000
0000E00000
ENDCHAR
STARTCHAR  4E2B
ENCODING  20011
SWIDTH  1000 0
DWIDTH  36 0
BBX  33 35 2 0
BITMAP
0000000000
3000000600
7800000E00
3C00001F00
1F00007E00
0F8000F800
07C001F000
03E003E000
01F00F8000
00FC1F0000
00381E0000
0010080000
0000000000
0001C00000
0001C00000
0001C00000
0001C00000
0001C00000
0001C00000
0001C00000
0001C00000
0001C00000
0001C00000
0001C00000
0001C00000
0001C00000
0001C00000
0001C00000
0001C00000
0001C00000
0001C00000
0001C00000
0001C00000
0001C00000
0000000000
ENDCHAR
STARTCHAR  4E2D
ENCODING  20013
SWIDTH  1000 0
DWIDTH  36 0
BBX  30 34 3 1
BITMAP
00038000
00038000
00038000
00038000
00038000
00038000
00038000
FFFFFFFC
FFFFFFFC
FFFFFFFC
E003801C
E003801C
E003801C
E003801C
E003801C
E003801C
E003801C
E003801C
E003801C
FFFFFFFC
FFFFFFFC
FFFFFFFC
E003801C
00038000
00038000
00038000
00038000
00038000
00038000
00038000
00038000
00038000
00038000
00038000
ENDCHAR
STARTCHAR  4E30
ENCODING  20016
SWIDTH  1000 0
DWIDTH  36 0
BBX  34 34 1 1
BITMAP
0000E00000
0000E00000
0000E00000
0000E00000
0000E00000
0000E00000
7FFFFFFF80
7FFFFFFF80
7FFFFFFF80
0000E00000
0000E00000
0000E00000
0000E00000
0000E00000
1FFFFFFE00
1FFFFFFE00
1FFFFFFE00
0000E00000
0000E00000
0000E00000
0000E00000
0000E00000
FFFFFFFFC0
FFFFFFFFC0
FFFFFFFFC0
0000E00000
0000E00000
0000E00000
0000E00000
0000E00000
0000E00000
0000E00000
0000E00000
0000E00000
ENDCHAR
STARTCHAR  4E32
ENCODING  20018
SWIDTH  1000 0
DWIDTH  36 0
BBX  30 34 3 1
BITMAP
00038000
00038000
00038000
00038000
7FFFFFF8
7FFFFFF8
7FFFFFF8
70038038
70038038
70038038
70038038
7FFFFFF8
7FFFFFF8
7FFFFFF8
70038038
00038000
00038000
00038000
FFFFFFFC
FFFFFFFC
FFFFFFFC
E003801C
E003801C
E003801C
E003801C
FFFFFFFC
FFFFFFFC
FFFFFFFC
E003801C
00038000
00038000
00038000
00038000
00038000
ENDCHAR
STARTCHAR  4E34
ENCODING  20020
SWIDTH  1000 0
DWIDTH  36 0
BBX  33 34 2 1
BITMAP
0380700000
0380700000
0380E00000
E380E00000
E381C00000
E381FFFF80
E383FFFF80
E387FFFF80
E387000000
E38F0C0000
E39E1E0000
E39C078000
E3BC03C000
E39801C000
E380008000
E380000000
E387FFFF00
E387FFFF00
E387FFFF00
E387070700
E387070700
E387070700
E387070700
E387070700
E387070700
E387070700
E387070700
E387070700
E387070700
E387070700
E387FFFF00
0387FFFF00
0387000700
0387000700
ENDCHAR
STARTCHAR  4E36
ENCODING  20022
SWIDTH  1000 0
DWIDTH  36 0
BBX  13 15 5 10
BITMAP
0000
2000
7000
7800
7C00
3E00
1F00
0F80
07C0
03E0
01F0
00F8
00F0
0060
0000
ENDCHAR
STARTCHAR  4E38
ENCODING  20024
SWIDTH  1000 0
DWIDTH  36 0
BBX  34 34 1 1
BITMAP
001C000000
001C000000
001C000000
001C000000
001C000000
001C000000
001C000000
7FFFFF8000
7FFFFF8000
7FFFFF8000
001C038000
001C038000
001C038000
001C038000
301C038000
381C038000
3E1C038000
0FB8038000
07F8038000
01F8038000
007C038000
007F038000
007F838000
00F7E38000
00E1C381C0
01E04381C0
01C00381C0
03C00381C0
07800381C0
0F000381C0
1E0003C3C0
7C0003FF80
F80001FF80
700000FE00
ENDCHAR
STARTCHAR  4E39
ENCODING  20025
SWIDTH  1000 0
DWIDTH  36 0
BBX  35 34 1 0
BITMAP
03FFFFF800
03FFFFF800
03FFFFF800
0380003800
0380003800
0381003800
0383803800
0383C03800
0381E03800
0380F03800
0380F03800
0380783800
0380303800
0380003800
0380003800
0380003800
FFFFFFFFE0
FFFFFFFFE0
FFFFFFFFE0
0380003800
0380003800
0780003800
0700003800
0700003800
0700003800
0700003800
0E00003800
0E00003800
1E00003800
1C00003800
3C001FF800
78001FF000
30001FE000
1000000000
ENDCHAR
STARTCHAR  4E3A
ENCODING  20026
SWIDTH  1000 0
DWIDTH  36 0
BBX  31 34 2 1
BITMAP
00038000
0C038000
1E038000
0F038000
07838000
03C38000
01838000
00038000
00038000
FFFFFFFE
FFFFFFFE
FFFFFFFE
0007000E
0007000E
000F000E
000E000E
000E000E
000E300E
001E780E
001C3C0E
003C1E0E
00380F0E
0078078E
0070030E
00F0020E
00E0000E
01E0000E
03C0000E
0780001E
0F00001E
1F00003C
7E007FFC
F8007FF8
F0007FE0
ENDCHAR
STARTCHAR  4E3B
ENCODING  20027
SWIDTH  1000 0
DWIDTH  36 0
BBX  36 34 0 2
BITMAP
0000000000
0000C00000
0001E00000
0000E00000
0000F00000
0000700000
0000600000
3FFFFFFF80
3FFFFFFF80
3FFFFFFF80
0000E00000
0000E00000
0000E00000
0000E00000
0000E00000
0000E00000
0000E00000
0000E00000
0FFFFFFF80
0FFFFFFF80
0FFFFFFF80
0000E00000
0000E00000
0000E00000
0000E00000
0000E00000
0000E00000
0000E00000
0000E00000
0000E00000
0000E00000
7FFFFFFFE0
7FFFFFFFE0
7FFFFFFFE0
ENDCHAR
STARTCHAR  4E3D
ENCODING  20029
SWIDTH  1000 0
DWIDTH  36 0
BBX  34 33 1 1
BITMAP
FFFFFFFFC0
FFFFFFFFC0
FFFFFFFFC0
0000000000
0000000000
0000000000
3FFE3FFF00
3FFE3FFF00
3FFE3FFF00
380E380700
380E380700
380E380700
380E380700
3B0E398700
3B0E39C700
3B8E39C700
398E38C700
39CE38E700
39CE38E700
38CE387700
38EE387700
38CE384700
380E380700
380E380700
380E380700
380E380700
380E380700
380E380700
380E380700
381E380F00
39FC39FE00
39FC39FC00
3800380000
ENDCHAR
STARTCHAR  4E3E
ENCODING  20030
SWIDTH  1000 0
DWIDTH  36 0
BBX  36 36 0 1
BITMAP
0000000000
0001800C00
0603801E00
0701C01C00
0381E03800
03C0F07800
01E070F000
00C040E000
0000004000
7FFFFFFFE0
7FFFFFFFE0
7FFFFFFFE0
0038038000
003801C000
0070E1E000
00E0E0F000
01C0E07800
0380E03C00
0700E01F00
1E7FFFEFC0
7C7FFFE7F0
787FFFE1E0
6000E00080
0000E00000
0000E00000
0000E00000
3FFFFFFF80
3FFFFFFF80
3FFFFFFF80
0000E00000
0000E00000
0000E00000
0000E00000
0000E00000
0000E00000
0000E00000
ENDCHAR
STARTCHAR  4E3F
ENCODING  20031
SWIDTH  1000 0
DWIDTH  36 0
BBX  16 35 8 0
BITMAP
0000
000E
000E
000E
000E
000E
000E
000E
000E
000E
000E
000E
000E
000E
000E
000E
000E
000E
001E
001C
001C
001C
003C
0038
0078
0078
00F0
01E0
03E0
07C0
1F80
7F00
7C00
3800
0000
ENDCHAR
STARTCHAR  4E43
ENCODING  20035
SWIDTH  1000 0
DWIDTH  36 0
BBX  32 32 1 1
BITMAP
7FFFFFF0
7FFFFFF0
7FFFFFF0
007000F0
007000E0
007001E0
007001C0
007003C0
00700380
00700700
00700F00
00700FFF
00700FFF
00E00FFF
00E00007
00E00007
00E00007
00E00007
00E00007
01C00007
01C00007
03C00007
03C00007
07800007
07800007
0F000007
1F00000F
3E00000E
7C00001E
F8007FFC
F8007FF8
60007FE0
ENDCHAR
STARTCHAR  4E45
ENCODING  20037
SWIDTH  1000 0
DWIDTH  36 0
BBX  36 35 0 1
BITMAP
0018000000
001C000000
001C000000
003C000000
0038000000
007FFF8000
007FFF8000
00FFFF8000
00E0038000
01E0038000
01C0078000
0380070000
0780070000
0F000F0000
1E000E0000
1C001E0000
08001C0000
00003C0000
00007C0000
00007C0000
0000FE0000
0001EE0000
0003C70000
0007C78000
000F83C000
001F01E000
003E00F000
00FC00F800
01F0007C00
07E0003E00
0FC0001F80
3F00000FE0
7E000003E0
38000001C0
2000000000
ENDCHAR
STARTCHAR  4E48
ENCODING  20040
SWIDTH  1000 0
DWIDTH  36 0
BBX  34 34 1 1
BITMAP
0001800000
0001E00000
0003C00000
0007800000
0007800000
000F000000
001E000000
001E038000
003C03C000
0078078000
00F0078000
01E00F0000
03E01E0000
07C03C0000
0F803C0000
1F00780000
3E00F00000
7C01E00000
F801E00000
E003C0C000
400781C000
000F01E000
001E00F000
003C007000
0078007800
0078003C00
00F0001C00
01E0001E00
07C0000F00
0FFFFFFF00
1FFFFFFF80
1FFFFFFFC0
00000003C0
0000000180
ENDCHAR
STARTCHAR  4E49
ENCODING  20041
SWIDTH  1000 0
DWIDTH  36 0
BBX  36 36 0 1
BITMAP
0000000000
0001800000
0003C00000
0001C00000
0701E01C00
0380E01C00
0380F01C00
0380701C00
0380783800
01C0383800
01C0203800
01E0007800
00E0007000
00E0007000
007000E000
007000E000
003801E000
003801C000
001C038000
001E078000
000E070000
000F0F0000
00079E0000
0003FC0000
0001F80000
0000F00000
0001F80000
0007FE0000
000F9F8000
003F0FE000
01FC03FC00
07F000FF80
3FC0003FE0
7F00000FC0
38000001C0
2000000000
ENDCHAR
STARTCHAR  4E4B
ENCODING  20043
SWIDTH  1000 0
DWIDTH  36 0
BBX  35 32 0 3
BITMAP
0001C00000
0001E00000
0000F00000
0000700000
0000700000
0000000000
1FFFFFFF00
1FFFFFFF00
1FFFFFFF00
0000001E00
0000003C00
0000007800
000001F000
000003E000
000007C000
00000F0000
00003E0000
00007C0000
0000F80000
0003E00000
0007C00000
001F000000
003E000000
00F8000000
07F0000000
0FC0000000
3FE0000000
7DF0000000
F87E000000
703FFFFFE0
600FFFFFE0
0001FFFFE0
ENDCHAR
STARTCHAR  4E4C
ENCODING  20044
SWIDTH  1000 0
DWIDTH  36 0
BBX  32 34 1 1
BITMAP
00038000
00038000
00070000
00070000
07FFFFF8
07FFFFF8
07FFFFF8
07000038
07000038
07000038
07000030
07000070
07003FF0
07003FE0
07003FC0
07000000
07000000
07FFFFFF
07FFFFFF
07FFFFFF
00000007
00000007
00000007
FFFFFFC7
FFFFFFC7
FFFFFFC7
00000007
00000007
00000007
0000000E
0000001E
00003FFE
00003FFC
00003FF0
ENDCHAR
STARTCHAR  4E4D
ENCODING  20045
SWIDTH  1000 0
DWIDTH  36 0
BBX  35 36 0 0
BITMAP
0000000000
0070000000
0070000000
0070000000
00E0000000
00FFFFFFC0
01FFFFFFC0
01FFFFFFC0
0383800000
0783800000
0703800000
0F03800000
1E03800000
3C03800000
3803FFFF00
7803FFFF00
7003FFFF00
2003800000
0003800000
0003800000
0003800000
0003800000
0003800000
0003FFFFC0
0003FFFFC0
0003FFFFC0
0003800000
0003800000
0003800000
0003800000
0003800000
0003800000
0003800000
0003800000
0003800000
0000000000
ENDCHAR
STARTCHAR  4E4E
ENCODING  20046
SWIDTH  1000 0
DWIDTH  36 0
BBX  35 34 1 0
BITMAP
0000000000
00000FFF00
3FFFFFFF00
3FFFFFFF00
3FFFE00000
0000E00000
0000E00800
0600E01C00
0F00E01C00
0780E03C00
03C0E07800
01C0E0F000
01E0E0E000
00E0E0C000
0000E04000
0000E00000
FFFFFFFFE0
FFFFFFFFE0
FFFFFFFFE0
0000E00000
0000E00000
0000E00000
0000E00000
0000E00000
0000E00000
0000E00000
0000E00000
0000E00000
0000E00000
0001E00000
00FFE00000
00FFC00000
007F800000
0000000000
ENDCHAR
STARTCHAR  4E4F
ENCODING  20047
SWIDTH  1000 0
DWIDTH  36 0
BBX  35 32 0 1
BITMAP
0000FFFF80
3FFFFFFF80
3FFFFFFF80
3FFF000000
0001800000
0003C00000
0001E00000
0000F00000
0000700000
0000200000
0000000000
0FFFFFFF00
0FFFFFFF00
0FFFFFFF00
0000003F00
000000FC00
000003F000
00000FC000
00003F0000
0000FC0000
0001F80000
0007E00000
001F800000
007E000000
03F8000000
07E0000000
1FC0000000
3FE0000000
78F8000000
F07FFFFFE0
701FFFFFE0
6007FFFFE0
ENDCHAR
STARTCHAR  4E50
ENCODING  20048
SWIDTH  1000 0
DWIDTH  36 0
BBX  35 32 1 1
BITMAP
00007FFC00
0FFFFFFC00
0FFFFFFC00
0FFF800000
0E00000000
0E00E00000
0E00E00000
0E00E00000
1C00E00000
1C00E00000
1C00E00000
1C00E00000
1C00E00000
1FFFFFFF80
1FFFFFFF80
3FFFFFFF80
0000E00000
0000E00000
0000E00000
00E0E0E000
01E0E0F000
03C0E07800
0780E03800
0F00E03C00
1E00E01E00
3E00E00F00
3C00E00780
7800E003C0
F001E001E0
607FE00180
007FC00000
003F800000
ENDCHAR
STARTCHAR  4E52
ENCODING  20050
SWIDTH  1000 0
DWIDTH  36 0
BBX  34 34 1 0
BITMAP
00007FFC00
03FFFFFC00
03FFFFFC00
03FF800000
0380000000
0380000000
0380000000
0380000000
0380000000
0380000000
03FFFFFF00
03FFFFFF00
03FFFFFF00
0380038000
0380038000
0380038000
0380038000
0380038000
0380038000
0380038000
0380038000
FFFFFFFFC0
FFFFFFFFC0
FFFFFFFFC0
0000000000
0018000000
007C000000
00F8000000
01E0000000
07C0000000
1F80000000
7E00000000
3800000000
3000000000
ENDCHAR
STARTCHAR  4E53
ENCODING  20051
SWIDTH  1000 0
DWIDTH  36 0
BBX  34 34 1 0
BITMAP
0000FFFC00
03FFFFFC00
03FFFFFC00
03FF000000
0380000000
0380000000
0380000000
0380000000
0380000000
0380000000
03FFFFFF00
03FFFFFF00
03FFFFFF00
0380038000
0380038000
0380038000
0380038000
0380038000
0380038000
0380038000
0380038000
FFFFFFFFC0
FFFFFFFFC0
FFFFFFFFC0
0000000000
0000060000
00000F8000
000007C000
000001F000
000000F800
0000003E00
0000001F00
0000000F00
0000000200
ENDCHAR
STARTCHAR  4E54
ENCODING  20052
SWIDTH  1000 0
DWIDTH  36 0
BBX  35 34 1 -1
BITMAP
00007FFF00
1FFFFFFF00
1FFFFFFF00
1FFFE00000
0000E00000
0000E00000
0000E00000
0001C00000
0001C00000
0001C00000
7FFFFFFFC0
7FFFFFFFC0
7FFFFFFFC0
000E0E0000
001E070000
007C078000
00F803E000
03E001F000
0FC0007E00
7F3803BFE0
FE38038FC0
70380381C0
4038038000
0038038000
0070038000
0070038000
0070038000
00F0038000
01E0038000
03C0038000
0F80038000
3F00038000
3E00038000
1800038000
ENDCHAR
STARTCHAR  4E56
ENCODING  20054
SWIDTH  1000 0
DWIDTH  36 0
BBX  34 34 1 2
BITMAP
00007FFF00
3FFFFFFF00
3FFFFFFF00
3FFFC00000
0001C00000
0001C00000
0001C00000
FFFFFFFFC0
FFFFFFFFC0
FFFFFFFFC0
0001C00000
0001C00000
00E1C1C000
00E1C1C000
00E1C1C080
00E1C1C380
7FE1C1CF80
7FE1C1FE00
00E1C1F800
00E1C1C000
00E1C1C000
00E1C1C080
01E1C1C0C0
1FE1C1C1C0
FFE1C1C1C0
FCE1C1FF80
C0E1C0FF80
00E1C07F00
0001C00000
0001C00000
0001C00000
0001C00000
0001C00000
0001C00000
ENDCHAR
STARTCHAR  4E58
ENCODING  20056
SWIDTH  1000 0
DWIDTH  36 0
BBX  34 34 1 0
BITMAP
00007FFF00
3FFFFFFF00
3FFFFFFF00
3FFFC00000
0001C00000
0001C00000
FFFFFFFFC0
FFFFFFFFC0
FFFFFFFFC0
0001C00000
00E1C1C000
00E1C1C180
7FE1C1C780
7FE1C1FF80
7FE1C1FC00
00E1C1E000
00E1C1C0C0
00E1E1C1C0
01E3E1C1C0
3FE3F1C1C0
FFE7F9FF80
F8EFDCFF80
001DDC3C00
003DCE0000
0079C70000
00F1C3C000
01E1C1E000
07C1C0F800
1F01C07F00
7E01C03FC0
F801C00FC0
7001C00380
0001C00000
0001C00000
ENDCHAR
STARTCHAR  4E59
ENCODING  20057
SWIDTH  1000 0
DWIDTH  36 0
BBX  31 30 3 2
BITMAP
FFFFFFE0
FFFFFFE0
FFFFFFE0
000007C0
00000F80
00003E00
00007C00
0000F800
0001F000
0003C000
000F8000
001F0000
003E0000
00780000
00F00000
01E00000
07C00000
0F800000
1F00000E
3E00000E
7800000E
7000000E
F000000E
E000000E
E000001E
E000001C
F800007C
7FFFFFF8
3FFFFFF0
07FFFF80
ENDCHAR
STARTCHAR  4E5B
ENCODING  20059
SWIDTH  1000 0
DWIDTH  36 0
BBX  32 12 2 20
BITMAP
7FFFFFFF
7FFFFFFF
7FFFFFFF
0000000F
0000001E
0000001E
0000003C
0000003C
00000078
00000078
00000030
00000000
ENDCHAR
STARTCHAR  4E5D
ENCODING  20061
SWIDTH  1000 0
DWIDTH  36 0
BBX  36 36 -1 0
BITMAP
0000000000
000E000000
000E000000
000E000000
000E000000
000E000000
000E000000
000E000000
3FFFFFC000
3FFFFFC000
3FFFFFC000
000E01C000
000E01C000
000E01C000
000E01C000
000E01C000
000E01C000
000E01C000
001E01C000
001C01C000
001C01C000
001C01C000
003C01C000
003801C000
003801C040
007801C070
00F001C070
00F001C070
01E001C0E0
03C001C0E0
078001C0E0
1F0001E1E0
3E0001FFE0
7C0000FFC0
3800007F00
0000000000
ENDCHAR
STARTCHAR  4E5E
ENCODING  20062
SWIDTH  1000 0
DWIDTH  36 0
BBX  33 33 1 2
BITMAP
00E0000000
01E0000000
01C0000000
03C0000000
07FFFFFF80
07FFFFFF80
0FFFFFFF80
1E00000000
3C00000000
3800000000
7800000000
F7FFFFE000
67FFFFE000
07FFFFE000
00000FC000
00001F8000
00007E0000
0000F80000
0003E00000
0007C00000
001F000000
003E000000
00F8000700
01F0000700
03E0000700
0780000700
0F00000700
0E00000700
0E00000F00
0F00003E00
0FFFFFFE00
07FFFFFC00
01FFFFE000
ENDCHAR
STARTCHAR  4E5F
ENCODING  20063
SWIDTH  1000 0
DWIDTH  36 0
BBX  35 33 1 2
BITMAP
0000E00000
0000E00000
0000E00000
0000E00000
0700E00000
0700E00000
0700E00000
0700E1FE00
0700FFFE00
070FFFFE00
07FFFE0E00
FFFFE00E00
FFF0E00E00
FF00E00E00
0700E00E00
0700E00E00
0700E00E00
0700E00E00
0700E00E00
0700E00E00
0700E01C00
0700E7FC00
0700E7F800
0700E7F080
0700E000E0
0700E000E0
0700E001E0
07000001C0
07000001C0
07800003C0
07FFFFFF80
03FFFFFF80
01FFFFFE00
ENDCHAR
STARTCHAR  4E60
ENCODING  20064
SWIDTH  1000 0
DWIDTH  36 0
BBX  31 31 2 1
BITMAP
7FFFFFFC
7FFFFFFC
7FFFFFFC
0000001C
0000001C
0000001C
0300001C
07C0001C
03F0001C
00FC001C
003F001C
000FC01C
0003C01C
0000801C
0000009C
0000079C
00003F9C
0001FF1C
000FF81C
007FC01C
03FE001C
3FF0001C
FF80001C
7C00001C
6000003C
00000038
00000078
0001FFF0
0001FFE0
0001FFC0
00000000
ENDCHAR
STARTCHAR  4E61
ENCODING  20065
SWIDTH  1000 0
DWIDTH  36 0
BBX  30 34 2 1
BITMAP
0003C000
00078000
000F0000
001E0000
003C00E0
007801E0
00F003C0
01E00780
03C00F00
0F001E00
1FFFFC00
3FFFF800
3FFFF000
0003C01C
0007801C
000F001C
003E0038
00780038
00F00070
03C00070
0FFFFFE0
1FFFFFE0
1FFFFFC0
18000780
00000F00
00001E00
00007C00
0001F800
0007E000
003FC000
01FF0000
3FF80000
FFC00000
FE000000
ENDCHAR
STARTCHAR  4E66
ENCODING  20070
SWIDTH  1000 0
DWIDTH  36 0
BBX  34 35 0 0
BITMAP
0003801000
0003803800
0003803C00
0003801F00
0003800F80
0003800380
1FFFFFF900
1FFFFFF800
1FFFFFF800
0003803800
0003803800
0003803800
0003803800
0003803800
0003803800
0003803800
7FFFFFFF80
7FFFFFFF80
7FFFFFFF80
0003800380
0003800380
0003800380
0003800380
0003800380
0003800380
0003800380
0003800780
000387FF00
000383FF00
000383FC00
0003800000
0003800000
0003800000
0003800000
0000000000
ENDCHAR
STARTCHAR  4E69
ENCODING  20073
SWIDTH  1000 0
DWIDTH  36 0
BBX  33 34 2 1
BITMAP
00000E0000
03800E0000
03800E0000
03800E0000
03800E0000
03800E0000
03800E0000
03800E0000
03FFCE0000
03FFCE0000
03800E0000
03800E0000
03800E0000
03800E0000
03800E0000
03800E0000
03800E0000
03800E0000
FFFF0E0000
FFFF0E0000
E0070E0000
E0070E0000
E0070E0000
E0070E0380
E0070E0380
E0070E0380
E0070E0380
E0070E0380
E0070E0380
E0070E0380
FFFF0E0380
FFFF0FFF80
E00707FF00
E00703FE00
ENDCHAR
STARTCHAR  4E70
ENCODING  20080
SWIDTH  1000 0
DWIDTH  36 0
BBX  36 34 0 -1
BITMAP
1FFFFFFFC0
1FFFFFFFC0
1FFFFFFFC0
00000001C0
0000000380
00E00E0380
00F00E0700
007C0E0700
001E0E0E00
000F8E1E00
04070E0000
07010E0000
07800E0000
03E00E0000
00F00E0000
007C0C0000
00381C0000
00001C0000
00001C0000
7FFFFFFFE0
7FFFFFFFE0
7FFFFFFFE0
0000700000
0000FC0000
0001FF0000
0003CFC000
000783E000
001F00F800
007E003E00
03F8001F80
3FE00007C0
1F800001C0
1C000000C0
0000000000
ENDCHAR
STARTCHAR  4E71
ENCODING  20081
SWIDTH  1000 0
DWIDTH  36 0
BBX  34 33 1 1
BITMAP
0000070000
00FFC70000
FFFFC70000
FFFFC70000
FFE0070000
00E0070000
00E0070000
00E0070000
00E0070000
00E0070000
FFFFE70000
FFFFE70000
FFFFE70000
00E0070000
00E0070000
00E0070000
00E0070000
00E0070000
7FFF870000
7FFF870000
7003870000
7003870000
7003870000
70038701C0
70038701C0
70038701C0
70038701C0
70038701C0
70038701C0
7FFF8701C0
7FFF87FFC0
700383FF80
700381FF00
ENDCHAR
STARTCHAR  4E73
ENCODING  20083
SWIDTH  1000 0
DWIDTH  36 0
BBX  34 34 1 1
BITMAP
003FE70000
FFFFE70000
FFFFE70000
7FC0070000
0000070000
01C0C70000
21C1C70000
70C1C70000
30E3870000
38E3870000
1867070000
1807070000
000E070000
7FFFC70000
7FFFC70000
7FFFC70000
0007870000
001F070000
003C070000
00F8070000
00E0070000
00E7E70000
03FFE70000
FFFFC701C0
FFE00701C0
F8E00701C0
00E00701C0
00E00701C0
00E00701C0
00E00701C0
00E00783C0
3FE007FFC0
1FC003FF80
1F8000FF00
ENDCHAR
STARTCHAR  4E7E
ENCODING  20094
SWIDTH  1000 0
DWIDTH  36 0
BBX  35 34 1 1
BITMAP
03800C0000
03800C0000
03801C0000
FFFE1C0000
FFFE1C0000
FFFE3FFFC0
03803FFFC0
03807FFFC0
7FFC700000
7FFCE00000
7FFCE00000
701DC00000
701FC00000
701DBFFF00
7FFCBFFF00
7FFC3FFF00
7FFC001E00
701C003C00
701C007800
7FFC00F000
7FFC01E000
7FFC03C000
739C078000
03800F00E0
03800E00E0
03801C00E0
FFFF3800E0
FFFF7800E0
FFFF7000E0
03807000E0
03807001C0
03807FFFC0
03803FFF80
03800FFE00
ENDCHAR
STARTCHAR  4E86
ENCODING  20102
SWIDTH  1000 0
DWIDTH  36 0
BBX  31 31 2 1
BITMAP
FFFFFFFE
FFFFFFFE
FFFFFFFC
00000078
000000F0
000001E0
000007C0
00000F00
00003E00
00007C00
0001F000
0001E000
0001C000
0001C000
0001C000
0001C000
0001C000
0001C000
0001C000
0001C000
0001C000
0001C000
0001C000
0001C000
0001C000
0001C000
0001C000
0003C000
03FFC000
03FF8000
03FE0000
ENDCHAR
STARTCHAR  4E88
ENCODING  20104
SWIDTH  1000 0
DWIDTH  36 0
BBX  32 33 1 0
BITMAP
1FFFFFF8
1FFFFFF8
1FFFFFF8
000001F0
004003E0
00F00F80
00F81F00
003E7C00
001FF800
0007E000
0003E000
0001E000
FFFFFFFF
FFFFFFFF
FFFFFFFF
0001C00F
0001C00E
0001C00E
0001C01E
0001C01C
0001C01C
0001C008
0001C000
0001C000
0001C000
0001C000
0001C000
0001C000
0003C000
03FF8000
03FF8000
01FE0000
00000000
ENDCHAR
STARTCHAR  4E89
ENCODING  20105
SWIDTH  1000 0
DWIDTH  36 0
BBX  35 34 1 1
BITMAP
0038000000
0078000000
00F0000000
00FFFFC000
01FFFFC000
03FFFFC000
0780078000
0F000F0000
1E000E0000
3FFFFFFC00
7FFFFFFC00
F7FFFFFC00
6001C01C00
0001C01C00
0001C01C00
FFFFFFFFE0
FFFFFFFFE0
FFFFFFFFE0
0001C01C00
0001C01C00
0001C01C00
0001C01C00
0FFFFFFC00
0FFFFFFC00
0FFFFFFC00
0001C01C00
0001C01C00
0001C00000
0001C00000
0001C00000
0003C00000
00FFC00000
00FF800000
00FF000000
ENDCHAR
STARTCHAR  4E8B
ENCODING  20107
SWIDTH  1000 0
DWIDTH  36 0
BBX  35 34 1 1
BITMAP
0000E00000
0000E00000
FFFFFFFFC0
FFFFFFFFC0
FFFFFFFFC0
0000E00000
0000E00000
07FFFFFC00
07FFFFFC00
07FFFFFC00
0600E00C00
0600E00C00
07FFFFFC00
07FFFFFC00
07FFFFFC00
0000E00000
3FFFFFFE00
3FFFFFFE00
3FFFFFFE00
0000E00E00
0000E00E00
FFFFFFFFE0
FFFFFFFFE0
FFFFFFFE00
0000E00E00
0000E00E00
3FFFFFFE00
3FFFFFFE00
3FFFFFFE00
0000E00000
0000E00000
007FC00000
007FC00000
007F800000
ENDCHAR
STARTCHAR  4E8C
ENCODING  20108
SWIDTH  1000 0
DWIDTH  36 0
BBX  34 27 1 4
BITMAP
0000000000
3FFFFFFE00
3FFFFFFE00
3FFFFFFE00
0000000000
0000000000
0000000000
0000000000
0000000000
0000000000
0000000000
0000000000
0000000000
0000000000
0000000000
0000000000
0000000000
0000000000
0000000000
0000000000
0000000000
0000000000
0000000000
0000000000
FFFFFFFFC0
FFFFFFFFC0
FFFFFFFFC0
ENDCHAR
STARTCHAR  4E8E
ENCODING  20110
SWIDTH  1000 0
DWIDTH  36 0
BBX  35 32 1 0
BITMAP
1FFFFFFF00
1FFFFFFF00
1FFFFFFF00
0000E00000
0000E00000
0000E00000
0000E00000
0000E00000
0000E00000
0000E00000
0000E00000
FFFFFFFFE0
FFFFFFFFE0
FFFFFFFFE0
0000E00000
0000E00000
0000E00000
0000E00000
0000E00000
0000E00000
0000E00000
0000E00000
0000E00000
0000E00000
0000E00000
0000E00000
0000E00000
0000E00000
00FFE00000
00FFC00000
007F800000
0000000000
ENDCHAR
STARTCHAR  4E8F
ENCODING  20111
SWIDTH  1000 0
DWIDTH  36 0
BBX  36 32 0 0
BITMAP
0FFFFFFF00
0FFFFFFF00
0FFFFFFF00
0000000000
0000000000
0000000000
0000000000
0000000000
7FFFFFFFE0
7FFFFFFFE0
7FFFFFFFE0
0070000000
00E0000000
00E0000000
01E0000000
01C0000000
01FFFFFE00
01FFFFFE00
01FFFFFE00
0000000E00
0000000E00
0000000E00
0000000C00
0000001C00
0000001C00
0000001C00
0000001C00
0000003C00
0001FFF800
0001FFF000
0001FFE000
0000000000
ENDCHAR
STARTCHAR  4E91
ENCODING  20113
SWIDTH  1000 0
DWIDTH  36 0
BBX  34 31 1 2
BITMAP
1FFFFFFE00
1FFFFFFE00
1FFFFFFE00
0000000000
0000000000
0000000000
0000000000
0000000000
0000000000
0000000000
0000000000
FFFFFFFFC0
FFFFFFFFC0
FFFFFFFFC0
000F000000
000E000000
001E000000
003C000000
0038060000
0078070000
00F0078000
01E003C000
01C001E000
03C000F000
0780007800
0F00003800
1FFFFFFC00
1FFFFFFE00
1FFFFFFF00
0000000780
0000000300
ENDCHAR
STARTCHAR  4E92
ENCODING  20114
SWIDTH  1000 0
DWIDTH  36 0
BBX  33 29 2 3
BITMAP
7FFFFFFF00
7FFFFFFF00
7FFFFFFF00
0380000000
0380000000
0380000000
0380000000
0380000000
07FFFFF000
07FFFFF000
07FFFFF000
0700007000
0700007000
070000E000
070000E000
0E0000E000
0E0000E000
0E0000E000
0FFFFFE000
0FFFFFE000
0FFFFFE000
000000E000
000000E000
000000E000
000000E000
000000E000
FFFFFFFF80
FFFFFFFF80
FFFFFFFF80
ENDCHAR
STARTCHAR  4E94
ENCODING  20116
SWIDTH  1000 0
DWIDTH  36 0
BBX  35 31 1 2
BITMAP
7FFFFFFF80
7FFFFFFF80
7FFFFFFF80
000E000000
000E000000
001C000000
001C000000
001C000000
001C000000
001C000000
001C000000
001C000000
3FFFFFF800
3FFFFFF800
3FFFFFF800
0038003800
0038003800
0038003800
0038003800
0070003800
0070003800
0070003800
0070003800
0070003800
0070003800
00E0003800
00E0003800
00E0003800
FFFFFFFFE0
FFFFFFFFE0
FFFFFFFFE0
ENDCHAR
STARTCHAR  4E95
ENCODING  20117
SWIDTH  1000 0
DWIDTH  36 0
BBX  36 35 0 0
BITMAP
003800E000
003800E000
003800E000
003800E000
003800E000
003800E000
003800E000
003800E000
3FFFFFFFC0
3FFFFFFFC0
3FFFFFFFC0
003800E000
003800E000
003800E000
003800E000
003800E000
003800E000
003800E000
003800E000
7FFFFFFFE0
7FFFFFFFE0
7FFFFFFFE0
003800E000
007000E000
007000E000
007000E000
00F000E000
00E000E000
01E000E000
03C000E000
078000E000
1F0000E000
3E0000E000
180000E000
1000000000
ENDCHAR
STARTCHAR  4E98
ENCODING  20120
SWIDTH  1000 0
DWIDTH  36 0
BBX  34 31 1 2
BITMAP
3FFFFFFF80
3FFFFFFF80
3FFFFFFF80
0000000000
0000000000
0000000000
0000000000
0FFFFFFC00
0FFFFFFC00
0FFFFFFC00
0E00001C00
0E00001C00
0E00001C00
0E00001C00
0FFFFFFC00
0FFFFFFC00
0FFFFFFC00
0E00001C00
0E00001C00
0E00001C00
0E00001C00
0E00001C00
0FFFFFFC00
0FFFFFFC00
0FFFFFFC00
0E00001C00
0000000000
0000000000
FFFFFFFFC0
FFFFFFFFC0
FFFFFFFFC0
ENDCHAR
STARTCHAR  4E9A
ENCODING  20122
SWIDTH  1000 0
DWIDTH  36 0
BBX  35 31 1 2
BITMAP
7FFFFFFF80
7FFFFFFF80
7FFFFFFF80
001C0E0000
001C0E0000
001C0E0000
001C0E0000
101C0E0200
381C0E0380
381C0E0700
381C0E0700
1C1C0E0F00
1C1C0E0E00
0E1C0E0E00
0E1C0E1E00
0E1C0E1C00
071C0E1C00
071C0E3800
079C0E3800
039C0E7000
039C0E7000
039C0EE000
001C0E2000
001C0E0000
001C0E0000
001C0E0000
001C0E0000
001C0E0000
FFFFFFFFE0
FFFFFFFFE0
FFFFFFFFE0
ENDCHAR
STARTCHAR  4E9B
ENCODING  20123
SWIDTH  1000 0
DWIDTH  36 0
BBX  35 33 1 2
BITMAP
00380E0000
00380E0000
00380E0000
00380E0000
1C380E0300
1C380E0780
1C380E1F00
1C3FEE3E00
1C3FEEF800
1C380FE000
1C380F8000
1C380F00E0
1C380E00E0
1C380E00E0
1C380E00E0
1C380E00E0
1C3FEE01E0
FFFFE7FFC0
FFFFE7FF80
FFC003FF00
0000000000
0000000000
0000000000
0000000000
07FFFFFC00
07FFFFFC00
07FFFFFC00
0000000000
0000000000
0000000000
7FFFFFFFC0
7FFFFFFFC0
7FFFFFFFC0
ENDCHAR
STARTCHAR  4E9F
ENCODING  20127
SWIDTH  1000 0
DWIDTH  36 0
BBX  36 31 0 2
BITMAP
0FFFFFFE00
0FFFFFFE00
0FFFFFFE00
000000F800
000003E000
00000F8000
00003E0000
00007C0000
1FF873FFC0
1FF873FFC0
1C38700180
1C38700380
1C38710380
1C38738700
1C3871C700
1C3870EE00
1C38707C00
1C38703C00
1C38703C00
1FF8707E00
1FF870E700
1C0073C380
1C007783C0
0000F70180
003FE60000
003FE00000
003F800000
0000000000
7FFFFFFFE0
7FFFFFFFE0
7FFFFFFFE0
ENDCHAR
STARTCHAR  4EA1
ENCODING  20129
SWIDTH  1000 0
DWIDTH  36 0
BBX  35 32 0 3
BITMAP
0001C00000
0000E00000
0000F00000
0000780000
0000380000
0000000000
FFFFFFFFE0
FFFFFFFFE0
FFFFFFFFE0
0380000000
0380000000
0380000000
0380000000
0380000000
0380000000
0380000000
0380000000
0380000000
0380000000
0380000000
0380000000
0380000000
0380000000
0380000000
0380000000
0380000000
0380000000
0380000000
0380000000
03FFFFFF80
03FFFFFF80
03FFFFFF80
ENDCHAR
STARTCHAR  4EA2
ENCODING  20130
SWIDTH  1000 0
DWIDTH  36 0
BBX  34 35 2 0
BITMAP
0003000000
0003800000
0003800000
0001C00000
0001C00000
FFFFFFFF80
FFFFFFFF80
FFFFFFFF80
0000000000
0000000000
0000000000
0000000000
0000000000
01FFFF0000
01FFFF0000
01FFFF0000
01C0070000
01C0070000
01C0070000
01C0070000
01C0070000
01C0070000
01C0070000
0380070000
0380070000
03800701C0
07800701C0
07000701C0
0F000701C0
1E000701C0
3C000701C0
780007FFC0
F80003FF80
E00001FF00
4000000000
ENDCHAR
STARTCHAR  4EA4
ENCODING  20132
SWIDTH  1000 0
DWIDTH  36 0
BBX  35 36 0 0
BITMAP
0000000000
0000400000
0001E00000
0000E00000
0000F00000
0000700000
7FFFFFFFE0
7FFFFFFFE0
7FFFFFFFE0
0000000000
0000000000
0010018000
003C03E000
007800F000
00F0007800
03E0003C00
07C0011E00
0F3801CF00
1E3803C7C0
7C3C0383C0
381C078180
100E070000
000F0F0000
00071E0000
00079C0000
0003F80000
0001F80000
0001F80000
0007FC0000
001F9F0000
007F0FE000
03FC03FC00
1FF000FFC0
7F80003FC0
3E000007C0
3000000000
ENDCHAR
STARTCHAR  4EA5
ENCODING  20133
SWIDTH  1000 0
DWIDTH  36 0
BBX  34 35 1 0
BITMAP
0001000000
0003800000
0001C00000
0001E00000
0000E00000
FFFFFFFFC0
FFFFFFFFC0
FFFFFFFFC0
001E000000
003C000000
0078038000
00F0070000
01E00F0000
03C00E0000
07801C0000
1FFFFC1800
1FFFF83C00
1FFFF03800
0003E07800
0007C0F000
001F01E000
003E03C000
00FC078000
07F00F8000
1FC01F0000
FF003C0000
7C00FF0000
6001F7C000
0007E3E000
001F80F800
007E007C00
03F8001F00
1FE0000F80
0F80000700
0C00000000
ENDCHAR
STARTCHAR  4EA6
ENCODING  20134
SWIDTH  1000 0
DWIDTH  36 0
BBX  36 36 0 0
BITMAP
0000000000
0000400000
0001E00000
0000F00000
0000700000
0000780000
0000300000
7FFFFFFFE0
7FFFFFFFE0
7FFFFFFFE0
000E038000
000E038000
000E038000
000E038400
070E039C00
070E038E00
0E0E038E00
0E0E038700
1C0C038780
1C1C038380
3C1C0383C0
381C0381C0
781C0381E0
70380380E0
70380380E0
0038038000
0070038000
00F0038000
00E0038000
01E0038000
03C0038000
0F80078000
1F01FF0000
7E01FF0000
3801FC0000
1000000000
ENDCHAR
STARTCHAR  4EA7
ENCODING  20135
SWIDTH  1000 0
DWIDTH  36 0
BBX  35 34 0 1
BITMAP
0000400000
0000E00000
0000F00000
0000700000
7FFFFFFFE0
7FFFFFFFE0
7FFFFFFFE0
0020004000
00F000E000
007801E000
003801C000
001C03C000
001C038000
0008070000
0FFFFFFFC0
0FFFFFFFC0
0FFFFFFFC0
0E00000000
0E00000000
0E00000000
0E00000000
0E00000000
0E00000000
0E00000000
0E00000000
1C00000000
1C00000000
1C00000000
1C00000000
3800000000
3800000000
7000000000
F000000000
6000000000
ENDCHAR
STARTCHAR  4EA8
ENCODING  20136
SWIDTH  1000 0
DWIDTH  36 0
BBX  34 35 1 1
BITMAP
0001800000
0001C00000
0001E00000
0000E00000
FFFFFFFFC0
FFFFFFFFC0
FFFFFFFFC0
0000000000
0000000000
07FFFFF800
07FFFFF800
07FFFFF800
0700003800
0700003800
0700003800
07FFFFF800
07FFFFF800
07FFFFF800
0000000000
7FFFFFFE00
7FFFFFFE00
7FFFFFFC00
000000F000
000007E000
00003FC000
0000FE0000
0000E00000
0000E00000
0000E00000
0000E00000
0000E00000
0000E00000
007FE00000
007FC00000
007F800000
ENDCHAR
STARTCHAR  4EA9
ENCODING  20137
SWIDTH  1000 0
DWIDTH  36 0
BBX  34 34 1 1
BITMAP
0000C00000
0001E00000
0000E00000
0000700000
0000600000
FFFFFFFFC0
FFFFFFFFC0
FFFFFFFFC0
0000000000
0000000000
0000000000
0000000000
1FFFFFFE00
1FFFFFFE00
1FFFFFFE00
1C00E00E00
1C00E00E00
1C00E00E00
1C00E00E00
1C00E00E00
1C00E00E00
1FFFFFFE00
1FFFFFFE00
1FFFFFFE00
1C00E00E00
1C00E00E00
1C00E00E00
1C00E00E00
1C00E00E00
1C00E00E00
1FFFFFFE00
1FFFFFFE00
1FFFFFFE00
1C00000E00
ENDCHAR
STARTCHAR  4EAB
ENCODING  20139
SWIDTH  1000 0
DWIDTH  36 0
BBX  35 35 0 0
BITMAP
0001C00000
0001E00000
0000E00000
0000F00000
7FFFFFFFE0
7FFFFFFFE0
7FFFFFFFE0
0000000000
0000000000
07FFFFFC00
07FFFFFC00
07FFFFFC00
0700001C00
0700001C00
07FFFFFC00
07FFFFFC00
07FFFFFC00
0000000000
1FFFFFFC00
1FFFFFFC00
1FFFFFF800
000001E000
00000FE000
00007F0000
0000780000
FFFFFFFFE0
FFFFFFFFE0
FFFFFFFFE0
0000700000
0000700000
0000700000
0000F00000
003FE00000
003FE00000
003F000000
ENDCHAR
STARTCHAR  4EAC
ENCODING  20140
SWIDTH  1000 0
DWIDTH  36 0
BBX  34 34 1 1
BITMAP
0001800000
0003C00000
0001C00000
0001E00000
0000E00000
FFFFFFFFC0
FFFFFFFFC0
FFFFFFFFC0
0000000000
0000000000
0000000000
0FFFFFFC00
0FFFFFFC00
0FFFFFFC00
0E00001C00
0E00001C00
0E00001C00
0E00001C00
0E00001C00
0FFFFFFC00
0FFFFFFC00
0FFFFFFC00
0E00E00000
0000E00000
0080E08000
01C0E1C000
07C0E1F000
0F80E07C00
3E00E03E00
7C00E00F80
F000E00780
603FE00100
003FC00000
003F800000
ENDCHAR
STARTCHAR  4EAD
ENCODING  20141
SWIDTH  1000 0
DWIDTH  36 0
BBX  33 33 1 2
BITMAP
0003800000
0003C00000
0001C00000
FFFFFFFF80
FFFFFFFF80
FFFFFFFF80
0000000000
07FFFFF000
07FFFFF000
07FFFFF000
0700007000
0700007000
07FFFFF000
07FFFFF000
07FFFFF000
0000000000
0000000000
FFFFFFFF80
FFFFFFFF80
FFFFFFFF80
E000000380
E000000380
E7FFFFFB80
07FFFFF800
07FFFFF800
0000E00000
0000E00000
0000E00000
0000E00000
0000E00000
007FE00000
007FC00000
003F800000
ENDCHAR
STARTCHAR  4EAE
ENCODING  20142
SWIDTH  1000 0
DWIDTH  36 0
BBX  34 35 1 0
BITMAP
0003000000
0003800000
0003800000
FFFFFFFF80
FFFFFFFF80
FFFFFFFF80
0000000000
0000000000
07FFFFE000
07FFFFE000
07FFFFE000
0600006000
0600006000
07FFFFE000
07FFFFE000
07FFFFE000
0000000000
0000000000
FFFFFFFF80
FFFFFFFF80
FFFFFFFF80
E000000380
E000000380
00FFFF0000
00FFFF0000
00FFFF0000
00E00700C0
00E00700C0
00C00701C0
01C00701C0
07C00701C0
1F8007FF80
FE0003FF80
F80001FE00
C000000000
ENDCHAR
STARTCHAR  4EB2
ENCODING  20146
SWIDTH  1000 0
DWIDTH  36 0
BBX  36 36 0 0
BITMAP
0000000000
0000600000
0000E00000
0000F00000
0000700000
3FFFFFFF80
3FFFFFFF80
3FFFFFFF80
0000004000
00E000F000
00F000E000
007001C000
003803C000
003C038000
7FFFFFFFE0
7FFFFFFFE0
7FFFFFFFE0
0000700000
0000700000
0000700000
0000700000
3FFFFFFF80
3FFFFFFF80
3FFFFFFF80
0000700000
0000700000
00C0704000
01E070F000
03C070F800
0780703E00
1F00701F00
3E00700F80
7800F003C0
303FE00180
003FE00000
003F800000
ENDCHAR
STARTCHAR  4EB3
ENCODING  20147
SWIDTH  1000 0
DWIDTH  36 0
BBX  34 33 1 1
BITMAP
0001C00000
0001C00000
FFFFFFFFC0
FFFFFFFFC0
FFFFFFFFC0
0000000000
0000000000
07FFFFF800
07FFFFF800
07FFFFF800
0700003800
07FFFFF800
07FFFFF800
07FFFFF800
0000000000
7FFFFFFF80
7FFFFFFF80
7FFFFFFF80
7000000380
7000FFF380
07FFFFF000
07FFFFF000
07FF800000
0003800000
0003FFFFC0
FFFFFFFFC0
FFFFFFFFC0
FFFF800000
0003800380
0003800380
0001FFFF80
0001FFFF00
0000FFFE00
ENDCHAR
STARTCHAR  4EB5
ENCODING  20149
SWIDTH  1000 0
DWIDTH  36 0
BBX  35 35 1 0
BITMAP
0000C00000
0000E00000
0000E00000
FFFFFFFFC0
FFFFFFFFC0
FFFFFFFFC0
03801C0000
03801C0000
03801C0000
0381FFF800
7FF9FFF800
7FF9FFF800
7FF8183800
0381183800
03FBF83800
7FF9F838E0
7FF8FE38E0
7F81DF9CE0
0387879CE0
039F010FE0
3F9E400FE0
3F88E007C0
3F03C00000
0007E00C00
001FF01E00
007C783E00
01F03CF800
07F01FE000
3FF00F8000
FC7033F000
F071F0FE00
007FF03FC0
007F800780
00F8000080
0060000000
ENDCHAR
STARTCHAR  4EBA
ENCODING  20154
SWIDTH  1000 0
DWIDTH  36 0
BBX  34 33 1 1
BITMAP
0001C00000
0001C00000
0001C00000
0001C00000
0001C00000
0001C00000
0001C00000
0001C00000
0001C00000
0001C00000
0003E00000
0003F00000
0003F00000
0003B00000
0007B80000
0007380000
000F1C0000
000E1C0000
001E0E0000
001E0E0000
003C070000
003C078000
0078038000
00F003C000
01F001E000
03E000F000
07C000F800
0F80007E00
1F00003F00
3E00001FC0
FC00000FC0
F800000380
6000000180
ENDCHAR
STARTCHAR  4EBF
ENCODING  20159
SWIDTH  1000 0
DWIDTH  36 0
BBX  37 35 0 0
BITMAP
0040000000
0070000000
00F0000000
00E3FFFF80
00E3FFFF80
01C3FFFF80
01C0000780
01C0000F00
0380001E00
0380003C00
0780007800
078000F000
0F8000E000
0F8001E000
1F8003C000
3F80078000
3B800F0000
73801E0000
73801C0000
2380380000
0380780000
0380F00060
0381E00070
0381C00070
0383800070
0387800070
0387000070
03870000E0
03870000E0
03870001E0
0387FFFFE0
0383FFFFC0
0381FFFF00
0380000000
0000000000
ENDCHAR
STARTCHAR  4EC0
ENCODING  20160
SWIDTH  1000 0
DWIDTH  36 0
BBX  36 36 0 0
BITMAP
0000000000
0060038000
00F0038000
00F0038000
00E0038000
01E0038000
01C0038000
01C0038000
0380038000
0380038000
0780038000
0780038000
0F80038000
0F80038000
1F8FFFFFF0
1F8FFFFFF0
3B8FFFFFF0
7B80038000
7380038000
6380038000
6380038000
0380038000
0380038000
0380038000
0380038000
0380038000
0380038000
0380038000
0380038000
0380038000
0380038000
0380038000
0380038000
0380038000
0380038000
0000000000
ENDCHAR
STARTCHAR  4EC1
ENCODING  20161
SWIDTH  1000 0
DWIDTH  36 0
BBX  36 36 0 -1
BITMAP
0000000000
00F0000000
00E0000000
00E0000000
01E0000000
01C3FFFFC0
01C3FFFFC0
0383FFFFC0
0380000000
0780000000
0780000000
0F80000000
0F80000000
1F80000000
1F80000000
3F80000000
3B80000000
7380000000
7380000000
6380000000
0380000000
0380000000
0380000000
0380000000
0380000000
0380000000
0380000000
0380000000
0380000000
038FFFFFF0
038FFFFFF0
038FFFFFF0
0380000000
0380000000
0380000000
0000000000
ENDCHAR
STARTCHAR  4EC3
ENCODING  20163
SWIDTH  1000 0
DWIDTH  36 0
BBX  36 35 0 0
BITMAP
0040000000
00F0000000
00E0000000
00E7FFFFF0
01C7FFFFF0
01C7FFFFF0
01C0007000
0380007000
0380007000
0780007000
0780007000
0F80007000
0F80007000
1F80007000
3F80007000
3B80007000
7380007000
7380007000
6380007000
0380007000
0380007000
0380007000
0380007000
0380007000
0380007000
0380007000
0380007000
0380007000
0380007000
0380007000
038000F000
03807FE000
03807FE000
03807FC000
0380000000
ENDCHAR
STARTCHAR  4EC4
ENCODING  20164
SWIDTH  1000 0
DWIDTH  36 0
BBX  36 33 0 0
BITMAP
0FFFFFFFE0
0FFFFFFFE0
0FFFFFFFE0
0E00000000
0E001C0000
0E001C0000
0E001C0000
0E001C0000
0E001C0000
0E001C0000
0E001C0000
0E001C0000
0E001E0000
0E003E0000
0E003E0000
0E003E0000
0E003F0000
0E00370000
0E00738000
0E00738000
0E00E1C000
1C00E1C000
1C01C0E000
1C03C0E000
1C07807000
3C07007800
380F003C00
383E001F00
707C000F80
70F80007E0
E1F00003C0
60C0000080
0000000000
ENDCHAR
STARTCHAR  4EC5
ENCODING  20165
SWIDTH  1000 0
DWIDTH  36 0
BBX  35 35 0 0
BITMAP
00C0000000
00E0000000
00E0000000
01EFFFFF80
01CFFFFF80
01CFFFFF80
0383800380
0383800380
0703800380
0703800700
0F01800700
0F01C00700
1F01C00F00
3F01C00E00
3F00E00E00
7700E01C00
F700E01C00
6700703C00
4700703800
4700387800
07003CF000
07001CE000
07001FE000
07000FC000
0700078000
07000FC000
07001FE000
07007DF000
0700F87C00
0703F03E00
0707E01F80
071F800FE0
073F0003E0
071C0000C0
0700000000
ENDCHAR
STARTCHAR  4EC6
ENCODING  20166
SWIDTH  1000 0
DWIDTH  36 0
BBX  36 35 0 0
BITMAP
0000000000
00201C0000
00701C0000
00701C0000
00F01C0000
00E01C0000
01E01C0000
01C01C0000
03C01C0000
03801C0000
07801D0000
07801FC000
0F801FE000
1F801DF000
3F801C7800
3F801C3E00
7B801C1F00
73801C0F80
63801C07C0
03801C03E0
03801C00E0
03801C0040
03801C0000
03801C0000
03801C0000
03801C0000
03801C0000
03801C0000
03801C0000
03801C0000
03801C0000
03801C0000
03801C0000
03801C0000
03801C0000
ENDCHAR
STARTCHAR  4EC7
ENCODING  20167
SWIDTH  1000 0
DWIDTH  36 0
BBX  36 35 0 0
BITMAP
0000700000
00E0700000
00E0700000
01C0700000
01C0700000
01C0700000
0380700000
0380700000
071FFFF800
071FFFF800
071FFFF800
0F00703800
0F00703800
1F00703800
1F00703800
3F00703800
7F00603800
7700603800
6700E03800
6700E03800
0700E03800
0700E03800
0700E03800
0701C03860
0701C03870
0703C03870
0703803860
0707803860
07070038E0
070F0038E0
071E0038E0
073C003FE0
077C001FC0
0738000F80
0700000000
ENDCHAR
STARTCHAR  4EC9
ENCODING  20169
SWIDTH  1000 0
DWIDTH  36 0
BBX  36 37 0 -1
BITMAP
0000000000
00F0000000
00E0000000
00E1FFF800
01E1FFF800
01C1FFF800
01C1C03800
0381C03800
0381C03800
0701C03800
0701C03800
0F01C03800
0F01C03800
1F01C03800
3F01C03800
3F01C03800
7F01C03800
7701C03800
6701C03800
6701C03800
0701C03800
0701C03800
0701C03800
0703803800
0703803840
0703803870
0703803870
0707803870
0707003860
0707003860
070F003860
071E0038E0
071E003FE0
073C001FC0
0738000F80
0718000000
0000000000
ENDCHAR
STARTCHAR  4ECA
ENCODING  20170
SWIDTH  1000 0
DWIDTH  36 0
BBX  36 36 0 0
BITMAP
0000000000
0000F00000
0000F00000
0001F80000
0003FC0000
00079C0000
000F0E0000
001E0F0000
003C078000
007803E000
00F001F000
01E080F800
07C3C03E00
1F81E01F80
3E00E00FF0
FC00F003E0
70007800C0
6000300000
0000000000
0000000000
0FFFFFFC00
0FFFFFFC00
0FFFFFFC00
0000003C00
0000007800
000000F000
000001E000
000001E000
000003C000
0000078000
00000F0000
00000E0000
00001E0000
00003C0000
0000380000
0000000000
ENDCHAR
STARTCHAR  4ECB
ENCODING  20171
SWIDTH  1000 0
DWIDTH  36 0
BBX  36 35 0 0
BITMAP
0000780000
0000F00000
0001F80000
0001FC0000
0003DC0000
00078E0000
000F0F0000
001E078000
003C03C000
007801E000
00F000F800
03E0007C00
07C0003F00
1F80001FC0
7F3801C7F0
7C3801C3E0
383801C0C0
203801C000
003801C000
003801C000
003801C000
003801C000
003801C000
007001C000
007001C000
007001C000
007001C000
00F001C000
00E001C000
01E001C000
03C001C000
078001C000
1F0001C000
0E0001C000
0400000000
ENDCHAR
STARTCHAR  4ECD
ENCODING  20173
SWIDTH  1000 0
DWIDTH  36 0
BBX  33 34 0 0
BITMAP
00C0000000
01C0000000
01CFFFFE00
01CFFFFE00
038FFFFE00
0380E01C00
0780E03C00
0700E03800
0700E07800
0F00E07000
0F00E0F000
1F00E0E000
1F00E0FF80
3F00E0FF80
7F00E0FF80
7700E00380
E700E00380
6700C00380
0701C00380
0701C00380
0701C00380
0701C00380
0701C00380
0703800380
0703800380
0707800380
0707000380
070F000380
070E000780
071E000F00
073C07FF00
077803FE00
073003FC00
0700000000
ENDCHAR
STARTCHAR  4ECE
ENCODING  20174
SWIDTH  1000 0
DWIDTH  36 0
BBX  36 35 0 0
BITMAP
01C0070000
01C0070000
01C0070000
01C0070000
01C0070000
01C0070000
01C0070000
01C0070000
01C0070000
01C0070000
01C0070000
01C0070000
01C0070000
01C0078000
01E0078000
01F00F8000
01F80F8000
01BC0FC000
039E0FC000
038F1CC000
03879CE000
03839CE000
0703B87000
0701387000
0700707800
0E00703800
0E00E01C00
1C01E01E00
1C03C00F00
3807800F80
780F0007C0
701F0003E0
603E0001C0
6018000080
0000000000
ENDCHAR
STARTCHAR  4ED1
ENCODING  20177
SWIDTH  1000 0
DWIDTH  36 0
BBX  36 34 0 1
BITMAP
0000000000
0000F00000
0001F00000
0003F80000
0007BC0000
000F1E0000
001E0F0000
003C078000
007803E000
01F001F000
03E000FC00
0FC0003E00
1F00001FC0
7E000007E0
79C00021C0
61C000F040
01C003F800
01C00FE000
01C03F8000
01C0FE0000
01C7F00000
01FFC00000
01FE000000
01F0000800
01C0000E00
01C0000E00
01C0000E00
01C0000E00
01C0000E00
01C0001C00
01E0003C00
00FFFFFC00
00FFFFF800
003FFFE000
ENDCHAR
STARTCHAR  4ED3
ENCODING  20179
SWIDTH  1000 0
DWIDTH  36 0
BBX  35 34 0 1
BITMAP
0000700000
0000F00000
0001F80000
0003FC0000
00079E0000
000F0F0000
001E078000
003C03C000
00F801F000
01F000F800
07C0003E00
0F80001F80
3F00000FE0
FDFFFFF3E0
71FFFFF0C0
21FFFFF000
01C0007000
01C0007000
01C0007000
01C0007000
01C0007000
01C000E000
01C000E000
01C07FE000
01C07FC180
01C07F8380
01C0000380
01C0000380
01C0000380
01C0000380
01E0000700
00FFFFFF00
00FFFFFE00
003FFFF800
ENDCHAR
STARTCHAR  4ED4
ENCODING  20180
SWIDTH  1000 0
DWIDTH  36 0
BBX  35 36 0 0
BITMAP
0000000000
00E0000000
00E0000000
00E3FFFF80
01C3FFFF80
01C3FFFF80
03C0000780
0380000F00
0380001E00
0700001C00
0700003800
0F00007800
1F0000F000
1F0001E000
3F0001C000
3F0001C000
7F0001C000
F71FFFFFE0
671FFFFFE0
671FFFFFE0
470001C000
070001C000
070001C000
070001C000
070001C000
070001C000
070001C000
070001C000
070001C000
070001C000
070001C000
070003C000
0701FF8000
0701FF8000
0701FE0000
0000000000
ENDCHAR
STARTCHAR  4ED5
ENCODING  20181
SWIDTH  1000 0
DWIDTH  36 0
BBX  36 35 0 0
BITMAP
0020000000
0070038000
0070038000
0070038000
00E0038000
00E0038000
01C0038000
01C0038000
0180038000
0380038000
0780038000
078FFFFFF0
0F8FFFFFF0
0F8FFFFFF0
1F80038000
3F80038000
3B80038000
7380038000
7380038000
2380038000
0380038000
0380038000
0380038000
0380038000
0380038000
0380038000
0380038000
0380038000
0380038000
0380038000
0387FFFFE0
0387FFFFE0
0387FFFFE0
0380000000
0380000000
ENDCHAR
STARTCHAR  4ED6
ENCODING  20182
SWIDTH  1000 0
DWIDTH  36 0
BBX  36 36 0 0
BITMAP
0000000000
00E0038000
00E0038000
00E0038000
01C0038000
01C0038000
01C7038000
0387038000
0387038180
0707039F80
070703FF80
0F073FFB80
0F07FF8380
1F3FFB8380
3F3F838380
3F37038380
7707038380
F707038380
6707038380
4707038380
0707038380
070703BF80
070703BF00
070703BE00
0707038040
07070380E0
07070380E0
07070380E0
07070000E0
07070000E0
07070001E0
07078003C0
0703FFFFC0
0703FFFF80
0700FFFE00
0700000000
ENDCHAR
STARTCHAR  4ED7
ENCODING  20183
SWIDTH  1000 0
DWIDTH  36 0
BBX  36 35 0 0
BITMAP
000000E000
00E000E000
00E000E000
00E000E000
01C000E000
01C000E000
038000E000
03BFFFFFE0
07BFFFFFE0
073FFFFFE0
0F0000E000
0F0000E000
1F0700E000
1F0700E000
3F0700E000
7F0380E000
770380C000
670381C000
6701C1C000
4701C1C000
0700E38000
0700F38000
0700778000
07003F0000
07003F0000
07001F0000
07003F8000
07007FC000
0701F1F000
0703E0FC00
070FC07F80
071F001FE0
077E0007C0
07380001C0
0710000000
ENDCHAR
STARTCHAR  4ED8
ENCODING  20184
SWIDTH  1000 0
DWIDTH  36 0
BBX  36 36 0 0
BITMAP
0000000000
0040001C00
00F0001C00
00E0001C00
00E0001C00
01C0001C00
01C0001C00
01C0001C00
0380001C00
039FFFFFE0
079FFFFFE0
079FFFFFE0
0F80001C00
0F80001C00
1F80001C00
3F80001C00
3B81001C00
7B87801C00
7383801C00
6381C01C00
2381E01C00
0380E01C00
0380F01C00
0380701C00
0380301C00
0380001C00
0380001C00
0380001C00
0380001C00
0380001C00
0380001C00
0380003C00
03801FF800
03800FF800
03800FF000
0380000000
ENDCHAR
STARTCHAR  4ED9
ENCODING  20185
SWIDTH  1000 0
DWIDTH  36 0
BBX  34 35 0 0
BITMAP
0000038000
00E0038000
00E0038000
00E0038000
01C0038000
01C0038000
0380038000
0380038000
07870381C0
07070381C0
07070381C0
0F070381C0
1F070381C0
1F070381C0
3F070381C0
3F070381C0
77070381C0
F7070381C0
67070381C0
47070381C0
07070381C0
07070381C0
07070381C0
07070381C0
07070381C0
07070381C0
07070381C0
07070381C0
07070381C0
0707FFFFC0
0707FFFFC0
0707FFFFC0
07000001C0
07000001C0
0700000000
ENDCHAR
STARTCHAR  4EDD
ENCODING  20189
SWIDTH  1000 0
DWIDTH  36 0
BBX  34 33 1 2
BITMAP
0000E00000
0001E00000
0001F00000
0003F80000
0007B80000
000F1C0000
001E1E0000
003C0F0000
007C078000
00F803C000
01F001E000
03C000F800
0F80007C00
1F00003F00
7E00000FC0
F8000007C0
F000000180
47FFFFF800
07FFFFF800
07FFFFF800
0000E00000
0000E00000
0000E00000
0000E00000
0000E00000
0000E00000
0000E00000
0000E00000
0000E00000
0000E00000
7FFFFFFF80
7FFFFFFF80
7FFFFFFF80
ENDCHAR
STARTCHAR  4EDE
ENCODING  20190
SWIDTH  1000 0
DWIDTH  36 0
BBX  33 34 0 1
BITMAP
00E0000000
00E0000000
01C7FFFF80
01C7FFFF80
01C7FFFF80
03800E0380
03800E0380
07000E0380
07000E0380
07000E0380
0F070E0380
0F070E0380
1F070E0380
3F070E0380
3F0E0E0380
770E1C0380
F70E1C0380
671C1C0380
071C1C0380
071C1C0380
07001C0380
0700380380
0700380380
0700780380
0700700380
0700F00380
0700E00380
0701E00380
0703C00700
0707800F00
070F03FF00
071F03FE00
071E03F800
0708000000
ENDCHAR
STARTCHAR  4EDF
ENCODING  20191
SWIDTH  1000 0
DWIDTH  36 0
BBX  35 35 1 0
BITMAP
0080000000
00E0000000
00E0007FC0
01C7FFFFC0
01C7FFFFC0
0387FF8000
0380038000
0780038000
0700038000
0F00038000
0F00038000
1F00038000
1F00038000
3F00038000
3F00038000
7700038000
F71FFFFFE0
E71FFFFFE0
C71FFFFFE0
C700038000
0700038000
0700038000
0700038000
0700038000
0700038000
0700038000
0700038000
0700038000
0700038000
0700038000
0700038000
0700038000
0700038000
0700038000
0700038000
ENDCHAR
STARTCHAR  4EE1
ENCODING  20193
SWIDTH  1000 0
DWIDTH  36 0
BBX  36 35 0 0
BITMAP
0040400000
00E0700000
00E0E00000
00E0E00000
01C1C00000
01C1FFFFE0
01C3FFFFE0
0383FFFFE0
0387000000
0787000000
078E000000
0F8E000000
0F9C000000
1F9DFFFE00
3F81FFFE00
3B81FFFE00
7380003C00
738000F800
238001E000
038003C000
0380078000
03800F0000
03801E0000
03803C00E0
03807800E0
0380F000E0
0381E000E0
0383C000E0
03838000E0
03838001C0
03838003C0
0383FFFF80
0381FFFF80
03803FFC00
0380000000
ENDCHAR
STARTCHAR  4EE3
ENCODING  20195
SWIDTH  1000 0
DWIDTH  36 0
BBX  35 35 1 0
BITMAP
00C0380000
00E0380000
01E0387000
01C0387800
01C0383C00
0380381E00
0380380F00
0700380600
0700380000
0F00380000
0F00381FE0
1F003FFFE0
1F3FFFFFE0
3F3FFFE000
7F3FFC0000
77001C0000
E7001C0000
E7001C0000
C7000C0000
07000E0000
07000E0000
07000E0000
07000F0000
0700070000
0700070000
07000780E0
07000380E0
070003C0E0
070001C0E0
070001E0E0
070000F1C0
0700007FC0
0700003FC0
0700001F80
0700000200
ENDCHAR
STARTCHAR  4EE4
ENCODING  20196
SWIDTH  1000 0
DWIDTH  36 0
BBX  36 36 0 -1
BITMAP
0000000000
0000F00000
0001F00000
0003F80000
00039C0000
00071E0000
000E0F0000
003C078000
007803C000
00F001F000
03E180F800
07C3C03E00
1F81E01F80
7E00F007E0
7C007803E0
70003000C0
0000200000
0000000000
0FFFFFFC00
0FFFFFFC00
0FFFFFFC00
0000007800
000000F000
000001E000
007003C000
00F8078000
003E0F0000
001F1E0000
0007FC0000
0003F80000
0001F80000
00007C0000
00003E0000
00001E0000
0000040000
0000000000
ENDCHAR
STARTCHAR  4EE5
ENCODING  20197
SWIDTH  1000 0
DWIDTH  36 0
BBX  35 35 1 0
BITMAP
0004000000
381C003800
380E003800
380F003800
3807003800
3807803800
3803803800
3803C03800
3801C03800
3801C03800
3800003800
3800003800
3800003800
3800003800
3800007000
3800007000
3800007000
3800007000
3800007000
380000E000
380000E000
380600E000
380E01C000
383E03E000
38FC03F000
39F007F800
3FE00F3C00
3F801E1E00
7F003C0F00
7C00F80780
7801F007C0
2007E003E0
001F8001C0
000F000000
000C000000
ENDCHAR
STARTCHAR  4EE8
ENCODING  20200
SWIDTH  1000 0
DWIDTH  36 0
BBX  35 34 0 0
BITMAP
00E0000000
01C0000000
01C0000000
01C7FFFFC0
0387FFFFC0
0387FFFFC0
0780000000
0700000000
0700000000
0F00000000
0F00000000
1F00000000
1F00000000
3F00000000
3F00000000
7703FFFF80
F703FFFF80
E703FFFF80
4700000000
0700000000
0700000000
0700000000
0700000000
0700000000
0700000000
0700000000
0700000000
0700000000
071FFFFFE0
071FFFFFE0
071FFFFFE0
0700000000
0700000000
0700000000
ENDCHAR
STARTCHAR  4EEA
ENCODING  20202
SWIDTH  1000 0
DWIDTH  36 0
BBX  36 35 0 0
BITMAP
0000040000
00E01C0000
00E00E0000
00E00E0000
01C30F0380
01C7070380
03C7078380
0387038380
0787038780
0703800700
0F03800700
0F03800700
1F03800F00
1F01C00E00
3F01C00E00
7F01C01C00
7700E01C00
6700E03C00
6700703800
4700787800
070038F000
07003CE000
07001FE000
07000FC000
07000F8000
07000FC000
07001FE000
07003FF000
0700F8FC00
0701F03E00
0707E01F80
071FC00FE0
073F0003E0
073C0000C0
0710000000
ENDCHAR
STARTCHAR  4EEC
ENCODING  20204
SWIDTH  1000 0
DWIDTH  36 0
BBX  33 33 1 2
BITMAP
01CE000000
01C7000000
038387FF80
0383C7FF80
0701E7FF80
0700C00380
0700000380
0E0E000380
0E0E000380
1E0E000380
1E0E000380
3E0E000380
3E0E000380
7E0E000380
FE0E000380
EE0E000380
CE0E000380
CE0E000380
8E0E000380
0E0E000380
0E0E000380
0E0E000380
0E0E000380
0E0E000380
0E0E000380
0E0E000380
0E0E000380
0E0E000380
0E0E000380
0E0E000780
0E0E03FF00
0E0E03FF00
0E0E03FE00
ENDCHAR
STARTCHAR  4EF0
ENCODING  20208
SWIDTH  1000 0
DWIDTH  36 0
BBX  33 35 1 0
BITMAP
0380000000
03801C0000
0381FC0000
071FFC0000
071FC7FF80
071C07FF80
0E1C07FB80
0E1C070380
0E1C070380
1E1C070380
1E1C070380
3E1C070380
3E1C070380
3E1C070380
7E1C070380
7E1C070380
EE1C070380
CE1C070380
CE1C070380
8E1C070380
0E1C070380
0E1C070380
0E1C070380
0E1C070380
0E1C370380
0E1CF70300
0E1FE7FF00
0E1F877F00
0E1E077E00
0E18070000
0E00070000
0E00070000
0E00070000
0E00070000
0000070000
ENDCHAR
STARTCHAR  4EF2
ENCODING  20210
SWIDTH  1000 0
DWIDTH  36 0
BBX  34 35 0 0
BITMAP
0080000000
00E0038000
01C0038000
01C0038000
0180038000
0380038000
0380038000
070FFFFFC0
070FFFFFC0
0F0FFFFFC0
0F0E0381C0
1F0E0381C0
1F0E0381C0
3F0E0381C0
3F0E0381C0
770E0381C0
F70E0381C0
E70E0381C0
470E0381C0
470E0381C0
070FFFFFC0
070FFFFFC0
070FFFFFC0
070E0381C0
070E0381C0
0700038000
0700038000
0700038000
0700038000
0700038000
0700038000
0700038000
0700038000
0700038000
0700038000
ENDCHAR
STARTCHAR  4EF5
ENCODING  20213
SWIDTH  1000 0
DWIDTH  36 0
BBX  36 35 -1 0
BITMAP
0060300000
0070300000
00E0700000
00E0700000
00E0E00000
01C0FFFFC0
01C0FFFFC0
0381FFFFC0
0381C1C000
078381C000
078381C000
0F8701C000
0F8701C000
1F8601C000
3F8001C000
3B8001C000
738001C000
738001C000
238FFFFFF0
038FFFFFF0
038FFFFFF0
038001C000
038001C000
038001C000
038001C000
038001C000
038001C000
038001C000
038001C000
038001C000
038001C000
038001C000
038001C000
038001C000
0000000000
ENDCHAR
STARTCHAR  4EF6
ENCODING  20214
SWIDTH  1000 0
DWIDTH  36 0
BBX  35 34 0 1
BITMAP
008001C000
01C001C000
01C001C000
01C1C1C000
0381C1C000
0381C1C000
0383C1C000
078381C000
0703FFFFC0
0F07FFFFC0
0F07FFFFC0
0F0701C000
1F0E01C000
1F0E01C000
3F1E01C000
7F1C01C000
771C01C000
F70001C000
E70001C000
070FFFFFE0
070FFFFFE0
070FFFFFE0
070001C000
070001C000
070001C000
070001C000
070001C000
070001C000
070001C000
070001C000
070001C000
070001C000
070001C000
070001C000
ENDCHAR
STARTCHAR  4EF7
ENCODING  20215
SWIDTH  1000 0
DWIDTH  36 0
BBX  36 35 0 0
BITMAP
0000070000
00E0070000
01C00F8000
01C01F8000
01C01DC000
038038E000
038078F000
0300F07800
0701E03C00
0703C01E00
0F07800F80
0F0F0007C0
1F3E0003F0
1F3C0000E0
3F10E03840
3F00E03800
7700E03800
7700E03800
6700E03800
6700E03800
0700E03800
0700E03800
0700E03800
0700E03800
0701C03800
0701C03800
0701C03800
0703C03800
0703803800
0707803800
0707003800
070F003800
071E003800
071C003800
0708003800
ENDCHAR
STARTCHAR  4EFB
ENCODING  20219
SWIDTH  1000 0
DWIDTH  36 0
BBX  36 35 0 0
BITMAP
0040000000
0070000000
0060001FC0
00E7FFFFC0
00E7FFFFC0
01C7FFC000
01C001C000
038001C000
038001C000
078001C000
078001C000
0F8001C000
0F8001C000
1F8001C000
3F8001C000
3B8001C000
7B8FFFFFF0
738FFFFFF0
638FFFFFF0
038001C000
038001C000
038001C000
038001C000
038001C000
038001C000
038001C000
038001C000
038001C000
038001C000
038001C000
038FFFFFE0
038FFFFFE0
038FFFFFE0
0380000000
0380000000
ENDCHAR
STARTCHAR  4EFD
ENCODING  20221
SWIDTH  1000 0
DWIDTH  36 0
BBX  34 35 1 0
BITMAP
0080010000
01C0030000
01C0738000
0180E18000
0380E1C000
0381C0E000
0701C0E000
0703807000
0E07807800
0E07003C00
1E0E001E00
1E1E000F00
3E3C000780
3E780003C0
7EF00001C0
FE6FFFF880
EE0FFFF800
CE0FFFF800
CE00E03800
8E00E03800
0E00E03800
0E00E03800
0E00C03800
0E01C03800
0E01C03800
0E01C03800
0E03803800
0E07803800
0E07003800
0E0E003800
0E1E007000
0E7C3FF000
0E783FE000
0E701FC000
0E20000000
ENDCHAR
STARTCHAR  4EFF
ENCODING  20223
SWIDTH  1000 0
DWIDTH  36 0
BBX  35 36 0 0
BITMAP
0000000000
0000040000
00C00E0000
01C00F0000
01C0078000
0180038000
0380030000
03BFFFFFE0
07BFFFFFE0
073FFFFFE0
0700E00000
0F00E00000
0F00E00000
1F00E00000
1F00E00000
3F00FFFF80
7F00FFFF80
7700FFFF80
E700E00380
6700E00380
4700E00380
0701E00380
0701E00380
0701C00380
0701C00380
0703C00380
0703800380
0703800380
0707800380
0707000700
070F000700
071E000F00
073C07FF00
077807FE00
073807F800
0710000000
ENDCHAR
STARTCHAR  4F01
ENCODING  20225
SWIDTH  1000 0
DWIDTH  36 0
BBX  36 33 0 2
BITMAP
0000700000
0000F00000
0001F80000
0003FC0000
00079E0000
000F0F0000
001E078000
003C03C000
007801F000
01F000F800
03E0003E00
0FC0701F80
3F00700FF0
FE007003E0
78007000C0
3000700000
0000700000
01C0700000
01C07FFE00
01C07FFE00
01C07FFE00
01C0700000
01C0700000
01C0700000
01C0700000
01C0700000
01C0700000
01C0700000
01C0700000
01C0700000
3FFFFFFFC0
3FFFFFFFC0
3FFFFFFFC0
ENDCHAR
STARTCHAR  4F09
ENCODING  20233
SWIDTH  1000 0
DWIDTH  36 0
BBX  36 36 0 0
BITMAP
0000000000
0060060000
0070070000
00E0070000
00E0038000
00E0038000
01CFFFFFC0
01CFFFFFC0
038FFFFFC0
0380000000
0780000000
0780000000
0F80000000
0F80FFF800
1F80FFF800
1F80FFF800
3B80E03800
7B80E03800
7380E03800
6380E03800
2380E03800
0380E03800
0380E03800
0380E03800
0380E03800
0381C03800
0381C03860
0381C03870
0383803870
0383803870
0387803860
038F003860
039E003FE0
03BC003FE0
03B8001FC0
0390000000
ENDCHAR
STARTCHAR  4F0A
ENCODING  20234
SWIDTH  1000 0
DWIDTH  36 0
BBX  36 35 0 1
BITMAP
0040000000
00E0000000
00E0000000
00CFFFFF00
01CFFFFF00
01CFFFFF00
0380380700
0380380700
0700380700
0700380700
0F00380700
0F3FFFFFF0
1F3FFFFFF0
1F3FFFFFF0
3F00380700
7F00380700
F700380700
6700380700
6700380700
4700380700
071FFFFF00
071FFFFF00
071FFFFF00
0700700700
0700700000
0700F00000
0700E00000
0701E00000
0701C00000
0703C00000
0707800000
070F000000
073E000000
071C000000
0700000000
ENDCHAR
STARTCHAR  4F0D
ENCODING  20237
SWIDTH  1000 0
DWIDTH  36 0
BBX  34 34 1 1
BITMAP
0180000000
0380000000
03BFFFFF80
033FFFFF80
073FFFFF80
0700E00000
0E00E00000
0E00E00000
1E00E00000
1E00E00000
3E00E00000
3E00E00000
7E00E00000
7E1FFFFE00
FE1FFFFE00
EE1FFFFE00
CE01C00E00
CE01C00E00
8E01C00E00
0E01C00E00
0E01C00E00
0E01C00E00
0E01C00E00
0E01C00E00
0E01C00E00
0E01C00E00
0E01C00E00
0E01C00E00
0E01C00E00
0E7FFFFFC0
0E7FFFFFC0
0E7FFFFFC0
0E00000000
0E00000000
ENDCHAR
STARTCHAR  4F0E
ENCODING  20238
SWIDTH  1000 0
DWIDTH  36 0
BBX  36 35 0 1
BITMAP
0000070000
00E0070000
01E0070000
01C0070000
01C0070000
0380070000
039FFFFFE0
039FFFFFE0
071FFFFFE0
0700070000
0F00070000
0F00070000
1F00070000
1F00070000
3F0FFFFF80
7F0FFFFF80
7703800700
E703800700
E701800E00
4701C00E00
0700C01C00
0700E03C00
0700703800
0700707000
070038F000
07001DE000
07001FC000
07000F8000
07003FC000
07007DF000
0701F8FE00
070FE07FC0
073F801FE0
071E0003C0
0718000000
ENDCHAR
STARTCHAR  4F0F
ENCODING  20239
SWIDTH  1000 0
DWIDTH  36 0
BBX  36 35 0 0
BITMAP
0000070000
00E0070000
00E0070800
00E0073C00
01C0071E00
01C0070F00
03C0070780
0380070380
0380070100
0700070000
0700070000
0F3FFFFFE0
1F3FFFFFE0
1F3FFFFFE0
3F00070000
7F00070000
77000F0000
F7000F8000
67000F8000
47000F8000
07001DC000
07001DC000
070038E000
070038E000
0700787000
0700F07000
0700E03800
0701E03C00
0703C01E00
0707800F00
070F000780
073E0003E0
077C0003E0
07380000C0
0720000000
ENDCHAR
STARTCHAR  4F10
ENCODING  20240
SWIDTH  1000 0
DWIDTH  36 0
BBX  35 34 1 1
BITMAP
0080380000
00E0384000
00E038F000
01E0387800
01C0383C00
01C0381E00
0380380600
0380380000
0700380000
07003FFFC0
0F1FFFFFC0
1F1FFFFFC0
1F1FFC0000
3F001C0000
3F001C0100
77001C0180
F7001C03C0
E7001C0780
C7001C0F00
C7001C1E00
07000E3C00
07000EF800
07000FF000
07000FC000
07000F8000
07003F00E0
0700FF80E0
0703F380E0
070FE3C0C0
073F81E1C0
073E00F1C0
071000FBC0
0700007F80
0700001F80
ENDCHAR
STARTCHAR  4F11
ENCODING  20241
SWIDTH  1000 0
DWIDTH  36 0
BBX  35 35 0 0
BITMAP
00E0070000
00E0070000
00E0070000
01C0070000
01C0070000
01C0070000
0380070000
0380070000
073FFFFFC0
073FFFFFC0
0F3FFFFFC0
0F001F8000
1F001FC000
3F003FC000
3F0037C000
7F00776000
F700776000
6700E77000
4700E73000
4701C73800
0703C71C00
0703871C00
0707070E00
070F070F00
071E070780
071C0703C0
07380703E0
07700701E0
07700700C0
0720070000
0700070000
0700070000
0700070000
0700070000
0700070000
ENDCHAR
STARTCHAR  4F17
ENCODING  20247
SWIDTH  1000 0
DWIDTH  36 0
BBX  36 36 0 -1
BITMAP
0000000000
0000F00000
0001F00000
0003F80000
0007BC0000
000F1E0000
001E0F0000
003C07C000
00F801E000
01F000F800
07E0007E00
1F80001FC0
7F00000FE0
7C700383C0
3870038000
2070038000
0070038000
0070038000
006003C000
00E003C000
00E803C000
00FC07E000
00FE07E000
01CF076000
01C70E7000
03C38E7000
0383DE3800
07819C3C00
0F003C1E00
0E00780F00
1E00F00F80
7C01E007E0
F807C003E0
30078000C0
0003000000
0000000000
ENDCHAR
STARTCHAR  4F18
ENCODING  20248
SWIDTH  1000 0
DWIDTH  36 0
BBX  36 37 0 -1
BITMAP
0000000000
00C0380000
00E0386000
00E038F800
01C0387C00
01C0381E00
01C0380F00
0380380600
0380380000
0700380000
073FFFFFE0
0F3FFFFFE0
0F3FFFFFE0
1F00738000
1F00738000
3F00738000
7F00738000
7700738000
6700738000
6700638000
4700E38000
0700E38000
0700E38000
0701C38000
0701C380C0
0703C380E0
07038380E0
07078380E0
07070380E0
070F0380E0
071E0380E0
071C03C1C0
073C03FFC0
077801FF80
077000FF00
0720000000
0000000000
ENDCHAR
STARTCHAR  4F19
ENCODING  20249
SWIDTH  1000 0
DWIDTH  36 0
BBX  36 35 0 0
BITMAP
0060070000
0070070000
00F0070000
00E0070000
00E0070000
01C0070000
01C0070000
03C0070080
03880700C0
039C0701E0
079E0703C0
0F8E070380
0F8F070700
1F87070F00
1F83871E00
3B83871C00
7B818F9800
73810F8000
63800F8000
63800FC000
03801DC000
03801CC000
03803CE000
038038F000
0380787000
0380F07800
0380E03C00
0381E01E00
0383C01F00
0387800F80
038F0007C0
03BE0003E0
03BC0001E0
03B80000C0
0390000000
ENDCHAR
STARTCHAR  4F1A
ENCODING  20250
SWIDTH  1000 0
DWIDTH  36 0
BBX  36 34 0 0
BITMAP
0000F00000
0001F00000
0003F80000
0007BC0000
000F1E0000
001E0F0000
003C078000
007803C000
00F001F000
01E000F800
07C0003E00
0F80001F80
3EFFFFEFF0
FCFFFFE3E0
70FFFFE0C0
2000000000
0000000000
0000000000
0000000000
3FFFFFFFC0
3FFFFFFFC0
3FFFFFFFC0
0007000000
000E000000
001C030000
003C078000
007801C000
00F000F000
01E0007800
03FFFFFC00
07FFFFFE00
07FFFFFF00
0000000E00
0000000400
ENDCHAR
STARTCHAR  4F1E
ENCODING  20254
SWIDTH  1000 0
DWIDTH  36 0
BBX  36 35 0 0
BITMAP
0000780000
0000F80000
0000F80000
0001FC0000
0003DE0000
00078F0000
000F078000
003E03E000
007C01F000
00F8707800
03E0703E00
0FC0701F80
1F007007E0
7E007003E0
38807008E0
31C0701C00
01E0703C00
00F0707800
007870F000
007C71E000
003870C000
0010700000
0000700000
0000700000
3FFFFFFFE0
3FFFFFFFE0
3FFFFFFFE0
0000700000
0000700000
0000700000
0000700000
0000700000
0000700000
0000700000
0000700000
ENDCHAR
STARTCHAR  4F1F
ENCODING  20255
SWIDTH  1000 0
DWIDTH  36 0
BBX  33 34 0 1
BITMAP
00001C0000
00E01C0000
01E01C0000
01C01C0000
03FFFFFF80
03BFFFFF80
03BFFFFF80
07001C0000
07001C0000
0F001C0000
0F001C0000
0F0FFFFF00
1F0FFFFF00
3F0FFFFF00
3F001C0000
7F001C0000
77001C0000
E77FFFFF80
677FFFFF80
477FFFFF80
07001C0380
07001C0380
07001C0380
07001C0380
07001C0380
07001C0380
07001C0780
07001DFF00
07001DFF00
07001CFC00
07001C0000
07001C0000
07001C0000
07001C0000
ENDCHAR
STARTCHAR  4F20
ENCODING  20256
SWIDTH  1000 0
DWIDTH  36 0
BBX  35 34 0 0
BITMAP
00E01C0000
01C01C0000
01C01C0000
01C01C0000
038FFFFFC0
038FFFFFC0
078FFFFFC0
0700380000
0700380000
0F00380000
0F00380000
1F3FFFFFE0
1F3FFFFFE0
3F3FFFFFE0
7F00700000
7700700000
E700700000
67007FFF00
4700FFFF80
0700FFFF80
0700000780
0700000F00
0700001E00
0703003C00
0703C07800
0703F0F000
0700F9E000
07003FC000
07001F8000
070007C000
070001F000
070000F800
0700003000
0000001000
ENDCHAR
STARTCHAR  4F22
ENCODING  20258
SWIDTH  1000 0
DWIDTH  36 0
BBX  35 34 0 1
BITMAP
0080000000
00C0000000
01C7FFFFE0
01C7FFFFE0
0187FFFFE0
0380003800
0380003800
0703803800
0703803800
0703003800
0F07003800
0F07003800
1F06003800
1F0E003800
3F0FFFFFE0
3F0FFFFFE0
770FFFFFE0
F70001F800
670003B800
0700073800
07000F3800
07001E3800
07003C3800
0700783800
0700F03800
0701E03800
0703C03800
070F803800
071E003800
077C003800
0738003800
07000FF800
07000FF000
070007E000
ENDCHAR
STARTCHAR  4F24
ENCODING  20260
SWIDTH  1000 0
DWIDTH  36 0
BBX  35 34 0 1
BITMAP
00E0700000
01C0E00000
01C0E00000
01C1C00000
0381FFFFE0
0383FFFFE0
0707FFFFE0
0707000000
070E1C0000
0F1E1C0000
0F3C1C0000
1F381C0000
1F101C0000
3F1FFFFF80
7F1FFFFF80
771FFFFF80
E7001C0380
E7001C0380
47001C0380
07001C0380
0700380380
0700380380
0700380380
0700780380
0700700380
0700F00380
0701E00380
0703C00380
0707C00380
070F800700
073F07FF00
073C07FE00
071803FC00
0710000000
ENDCHAR
STARTCHAR  4F25
ENCODING  20261
SWIDTH  1000 0
DWIDTH  36 0
BBX  35 35 0 0
BITMAP
0081C00000
00E1C00000
00E1C00100
01C1C00380
01C1C00780
01C1C00F00
0381C01E00
0381C07C00
0701C0F800
0701C3E000
0F01C7C000
0F01C70000
1F01C60000
3F01C00000
3F01C00000
771FFFFFE0
F71FFFFFE0
E71FFFFFE0
4701C18000
0701C1C000
0701C0C000
0701C0E000
0701C0E000
0701C07000
0701C07800
0701C03800
0701C01C00
0701C01E00
0701C30F00
0701DF07C0
0701FF03E0
0701F801E0
0701E00040
0701800000
0700000000
ENDCHAR
STARTCHAR  4F26
ENCODING  20262
SWIDTH  1000 0
DWIDTH  36 0
BBX  35 34 1 1
BITMAP
01C00F0000
01C00F0000
03C01F8000
03803FC000
038039C000
070070E000
0700F07000
0F01E07800
0E07C03E00
1E0F801F00
1E1F000FC0
3E3C0003E0
3E380001C0
7E13800080
7E03801800
EE03803C00
EE03807C00
CE0381F000
8E0387E000
0E039F8000
0E03FF0000
0E03FC0000
0E03F00000
0E03800380
0E03800380
0E03800380
0E03800380
0E03800700
0E03800700
0E03C00F00
0E03FFFF00
0E01FFFE00
0E007FF800
0E00000000
ENDCHAR
STARTCHAR  4F27
ENCODING  20263
SWIDTH  1000 0
DWIDTH  36 0
BBX  36 35 0 0
BITMAP
00C0070000
00E00F0000
00E00F8000
01C01F8000
01C03DC000
03C078E000
0380F07000
0781E07800
0703C03C00
0707801F00
0F0F000FC0
1F3E0003F0
1F7C0001E0
3F3BFFFE40
3F03FFFE00
7703FFFE00
F703800E00
6703800E00
4703800E00
0703800C00
0703801C00
0703801C00
0703801C00
07038FFC00
07038FF8C0
07038FF0E0
07038000E0
07038000E0
07038000C0
07038001C0
0703C003C0
0703FFFFC0
0701FFFF80
07003FFC00
0700000000
ENDCHAR
STARTCHAR  4F2A
ENCODING  20266
SWIDTH  1000 0
DWIDTH  36 0
BBX  33 35 0 0
BITMAP
00C01C0000
00C01C0000
01CC1C0000
01CE1C0000
01CF1C0000
03879C0000
03839C0000
03831C0000
07001C0000
073FFFFF80
0F3FFFFF80
0F3FFFFF80
1F00380380
1F00380380
3F00380380
7F00380380
7700390380
E7003B8380
670039C380
470071C380
070070E380
070070E380
0700E07380
0700E00380
0701E00380
0701C00380
0703C00380
0703800380
0707000380
070F000780
071E000F00
073C03FF00
077803FE00
073003FC00
0700000000
ENDCHAR
STARTCHAR  4F2B
ENCODING  20267
SWIDTH  1000 0
DWIDTH  36 0
BBX  35 36 0 0
BITMAP
0000000000
0000080000
00E01C0000
01E00E0000
01C00F0000
01C0070000
0380060000
039FFFFFC0
079FFFFFC0
071FFFFFC0
071C0001C0
0F1C0001C0
0F1C0001C0
1F1C0001C0
1F1C0001C0
3F00000000
7F00000000
7700000000
F700000000
E700000000
4700000000
4700000000
0700000000
0700000000
0700000000
0700000000
0700000000
0700000000
0700000000
0700000000
071FFFFFE0
071FFFFFE0
071FFFFFE0
0700000000
0700000000
0700000000
ENDCHAR
STARTCHAR  4F2F
ENCODING  20271
SWIDTH  1000 0
DWIDTH  36 0
BBX  33 34 0 1
BITMAP
0080070000
01C00F0000
01C00E0000
01C00E0000
03801C0000
0387FFFF80
0387FFFF80
0707FFFF80
0707000380
0F07000380
0F07000380
0F07000380
1F07000380
3F07000380
3F07000380
7F07000380
7707000380
E707FFFF80
E707FFFF80
4707FFFF80
0707000380
0707000380
0707000380
0707000380
0707000380
0707000380
0707000380
0707000380
0707FFFF80
0707FFFF80
0707FFFF80
0707000380
0707000380
0707000380
ENDCHAR
STARTCHAR  4F30
ENCODING  20272
SWIDTH  1000 0
DWIDTH  36 0
BBX  35 35 0 0
BITMAP
00C0070000
01C0070000
01C0070000
01C0070000
0380070000
0380070000
0380070000
073FFFFFE0
073FFFFFE0
0F3FFFFFE0
0F00070000
1F00070000
1F00070000
3F00070000
3F00070000
7700070000
F700070000
E70FFFFF80
470FFFFF80
070FFFFF80
070E000380
070E000380
070E000380
070E000380
070E000380
070E000380
070E000380
070E000380
070E000380
070FFFFF80
070FFFFF80
070FFFFF80
070E000380
070E000380
070E000380
ENDCHAR
STARTCHAR  4F34
ENCODING  20276
SWIDTH  1000 0
DWIDTH  36 0
BBX  36 36 0 0
BITMAP
0000000000
0070038000
0070038000
00E0038000
00E2038080
00E60381C0
01CF0381C0
01C78383C0
0383C38780
0381C38F00
0381E38E00
0780C38C00
0F80038000
0F80038000
1F8FFFFFC0
1F8FFFFFC0
3B8FFFFFC0
7B80038000
7380038000
7380038000
6380038000
0380038000
0380038000
039FFFFFF0
039FFFFFF0
039FFFFFF0
0380038000
0380038000
0380038000
0380038000
0380038000
0380038000
0380038000
0380038000
0380038000
0000000000
ENDCHAR
STARTCHAR  4F36
ENCODING  20278
SWIDTH  1000 0
DWIDTH  36 0
BBX  35 35 1 0
BITMAP
01800E0000
01C00E0000
01C01F0000
03C03F8000
03803B8000
038071C000
0700F0E000
0701E0F000
0E03C07800
0E07803C00
1E0F381E00
1E1E1C0F80
3E7C1E07E0
3EF80F03C0
7E700700C0
FE00030000
EE00020000
EE00000000
CE1FFFFF00
8E1FFFFF00
0E1FFFFF00
0E00000F00
0E00001E00
0E00003C00
0E04007800
0E0700F000
0E07C1E000
0E03E3C000
0E00FF8000
0E007F0000
0E001F8000
0E0007C000
0E0003F000
0E0000F000
0E00006000
ENDCHAR
STARTCHAR  4F38
ENCODING  20280
SWIDTH  1000 0
DWIDTH  36 0
BBX  33 35 1 0
BITMAP
01C00E0000
01C00E0000
03800E0000
03800E0000
03800E0000
07000E0000
071FFFFF80
061FFFFF80
0E1C0E0380
0E1C0E0380
1E1C0E0380
1E1C0E0380
3E1C0E0380
3E1C0E0380
7E1FFFFF80
7E1FFFFF80
EE1C0E0380
CE1C0E0380
CE1C0E0380
0E1C0E0380
0E1C0E0380
0E1C0E0380
0E1FFFFF80
0E1FFFFF80
0E1C0E0380
0E000E0000
0E000E0000
0E000E0000
0E000E0000
0E000E0000
0E000E0000
0E000E0000
0E000E0000
0E000E0000
00000E0000
ENDCHAR
STARTCHAR  4F3A
ENCODING  20282
SWIDTH  1000 0
DWIDTH  36 0
BBX  34 34 0 0
BITMAP
00E0000000
01E7FFFFC0
01C7FFFFC0
01C7FFFFC0
03C00001C0
03800001C0
03800001C0
07000001C0
070FFFF9C0
0F0FFFF9C0
0F0FFFF9C0
1F000001C0
1F000001C0
3F000001C0
3F000001C0
7707FFC1C0
F707FFC1C0
6707FFC1C0
470701C1C0
070701C1C0
070701C1C0
070701C1C0
070701C1C0
070701C1C0
0707FFC1C0
0707FFC1C0
0707FFC1C0
07040001C0
07000001C0
07000001C0
07000003C0
070001FFC0
070001FF80
070001FC00
ENDCHAR
STARTCHAR  4F3C
ENCODING  20284
SWIDTH  1000 0
DWIDTH  36 0
BBX  34 35 1 0
BITMAP
0380000000
0380700E00
0380380E00
0380380E00
071C1C0E00
071C1C0E00
061C0E0E00
0E1C0E0E00
0E1C070E00
0E1C070E00
1E1C040E00
1E1C000E00
3E1C000E00
3E1C000E00
7E1C000E00
7E1C000E00
EE1C000E00
CE1C001C00
CE1C001C00
0E1C021C00
0E1C061C00
0E1C1E3800
0E1C3E3800
0E1CFC3800
0E1DF07800
0E1FC0F800
0E1F80FC00
0E1F01EE00
0E1C03CF00
0E18078780
0E000F03C0
0E003E01C0
0E007C01C0
0E00380080
0E00000000
ENDCHAR
STARTCHAR  4F3D
ENCODING  20285
SWIDTH  1000 0
DWIDTH  36 0
BBX  34 35 0 0
BITMAP
018E000000
018E000000
038E000000
038E000000
030E00FFC0
070E00FFC0
077FFCFFC0
067FFCE1C0
0E7FFCE1C0
0E0E1CE1C0
0E0E1CE1C0
1E0E1CE1C0
1E0E1CE1C0
3E0E1CE1C0
3E0E1CE1C0
7E0E1CE1C0
7E0E1CE1C0
EE0E1CE1C0
6E0E1CE1C0
4E0E1CE1C0
0E0E1CE1C0
0E0E1CE1C0
0E0E1CE1C0
0E0E1CE1C0
0E1C1CE1C0
0E1C1CE1C0
0E1C1CE1C0
0E181CE1C0
0E381CFFC0
0E383CFFC0
0E7038FFC0
0EF7F8E1C0
0EE7F00000
0EC3E00000
0E00000000
ENDCHAR
STARTCHAR  4F43
ENCODING  20291
SWIDTH  1000 0
DWIDTH  36 0
BBX  34 34 0 1
BITMAP
00C0000000
01C0000000
01C7FFFFC0
01C7FFFFC0
0387FFFFC0
03870381C0
07870381C0
07070381C0
07070381C0
0F070381C0
0F070381C0
1F070381C0
1F070381C0
3F070381C0
7F070381C0
7707FFFFC0
E707FFFFC0
6707FFFFC0
07070381C0
07070381C0
07070381C0
07070381C0
07070381C0
07070381C0
07070381C0
07070381C0
07070381C0
07070381C0
0707FFFFC0
0707FFFFC0
0707FFFFC0
07070001C0
07070001C0
0700000000
ENDCHAR
STARTCHAR  4F46
ENCODING  20294
SWIDTH  1000 0
DWIDTH  36 0
BBX  34 34 1 0
BITMAP
01C0000000
01C0000000
018FFFFF00
038FFFFF00
038FFFFF00
070E000700
070E000700
0F0E000700
0E0E000700
1E0E000700
1E0E000700
3E0FFFFF00
3E0FFFFF00
7E0FFFFF00
FE0E000700
EE0E000700
CE0E000700
CE0E000700
8E0E000700
0E0E000700
0E0E000700
0E0FFFFF00
0E0FFFFF00
0E0FFFFF00
0E0E000700
0E00000000
0E00000000
0E00000000
0E00000000
0E7FFFFFC0
0E7FFFFFC0
0E7FFFFFC0
0E00000000
0E00000000
ENDCHAR
STARTCHAR  4F4D
ENCODING  20301
SWIDTH  1000 0
DWIDTH  36 0
BBX  34 35 1 0
BITMAP
01800C0000
01C01E0000
03C00E0000
03800F0000
0380078000
0700030000
073FFFFFC0
073FFFFFC0
0E3FFFFFC0
0E00000000
1E00000000
1E02000400
3E0E000F00
3E0E000E00
7E07000E00
7E07001E00
EE07001C00
EE03801C00
CE03801C00
0E03803800
0E01C03800
0E01C03800
0E01C07000
0E00E07000
0E00E07000
0E00E06000
0E00F0E000
0E0000E000
0E0000C000
0E0001C000
0E7FFFFFC0
0E7FFFFFC0
0E7FFFFFC0
0E00000000
0E00000000
ENDCHAR
STARTCHAR  4F4E
ENCODING  20302
SWIDTH  1000 0
DWIDTH  36 0
BBX  35 35 1 0
BITMAP
0080000000
01C0000000
01C001FFC0
018FFFFFC0
038FFFFFC0
038FFF8000
070E038000
070E038000
0E0E038000
0E0E038000
1E0E038000
1E0E038000
3E0E038000
3E0E038000
7E0FFFFFE0
EE0FFFFFE0
EE0FFFFFE0
CE0E038000
8E0E018000
0E0E01C000
0E0E01C000
0E0E01C000
0E0E01C000
0E0E01C000
0E0E00E000
0E0E00E000
0E0E18E0E0
0E0E7C70E0
0E0EF870E0
0E0FE038E0
0E0F9C3CE0
0E0F0E1FC0
0E0C070FC0
0E08038780
0E00000000
ENDCHAR
STARTCHAR  4F4F
ENCODING  20303
SWIDTH  1000 0
DWIDTH  36 0
BBX  36 35 0 0
BITMAP
0040020000
00700F0000
00E0070000
00E0038000
00E003C000
01C0018000
01CFFFFFC0
038FFFFFC0
038FFFFFC0
0780038000
0780038000
0F80038000
0F80038000
1F80038000
3F80038000
3B80038000
7B80038000
F387FFFF80
6387FFFF80
4387FFFF80
0380038000
0380038000
0380038000
0380038000
0380038000
0380038000
0380038000
0380038000
0380038000
0380038000
039FFFFFE0
039FFFFFE0
039FFFFFE0
0380000000
0000000000
ENDCHAR
STARTCHAR  4F50
ENCODING  20304
SWIDTH  1000 0
DWIDTH  36 0
BBX  35 35 1 0
BITMAP
0000700000
0380700000
0380700000
0380700000
0380700000
0700700000
077FFFFFC0
0E7FFFFFC0
0E7FFFFFC0
0E00E00000
1E00E00000
1E01C00000
3E01C00000
7E03800000
7E03800000
EE07000000
EE07FFFF80
CE0FFFFF80
CE0FFFFF80
8E1C038000
0E3C038000
0E38038000
0E70038000
0EF0038000
0FE0038000
0EC0038000
0E00038000
0E00038000
0E00038000
0E00038000
0E1FFFFFE0
0E1FFFFFE0
0E1FFFFFE0
0E00000000
0E00000000
ENDCHAR
STARTCHAR  4F51
ENCODING  20305
SWIDTH  1000 0
DWIDTH  36 0
BBX  35 34 0 0
BITMAP
01C01C0000
01C01C0000
01C01C0000
01C01C0000
03801C0000
039FFFFFE0
071FFFFFE0
071FFFFFE0
0700380000
0F00700000
0F00700000
1F00E00000
1F00E00000
3F01C00000
7701C00000
7703FFFFC0
E707FFFFC0
6707FFFFC0
470FC001C0
071FC001C0
071DC001C0
0739C001C0
0779C001C0
0771C001C0
0721C001C0
0701C001C0
0701C001C0
0701C001C0
0701FFFFC0
0701FFFFC0
0701FFFFC0
0701C001C0
0701C001C0
0701C001C0
ENDCHAR
STARTCHAR  4F53
ENCODING  20307
SWIDTH  1000 0
DWIDTH  36 0
BBX  36 36 0 0
BITMAP
0000000000
00C0070000
00E0070000
01C0070000
01C0070000
01C0070000
0380070000
0380070000
033FFFFFE0
073FFFFFE0
073FFFFFE0
0F003FC000
0F0037C000
1F0037E000
1F00776000
3F00677000
3F00E77000
7700E73000
6701C73800
6701C73800
4703871C00
0703871E00
0707070E00
070E070700
071E070780
073C0703C0
0778FFF9E0
07F0FFF8E0
0770FFF860
0700070000
0700070000
0700070000
0700070000
0700070000
0700070000
0000000000
ENDCHAR
STARTCHAR  4F55
ENCODING  20309
SWIDTH  1000 0
DWIDTH  36 0
BBX  36 33 0 1
BITMAP
00C0000000
01C0000000
01CFFFFFF0
01CFFFFFF0
038FFFFFF0
0380000700
0780000700
0700000700
0700000700
0F00000700
0F07FF8700
1F07FF8700
1F07038700
3F07038700
7F07038700
7707038700
E707038700
6707038700
4707038700
0707038700
0707038700
0707FF8700
0707FF8700
0700000700
0700000700
0700000700
0700000700
0700000700
0700000700
0700000F00
070003FF00
070003FE00
070003FC00
ENDCHAR
STARTCHAR  4F57
ENCODING  20311
SWIDTH  1000 0
DWIDTH  36 0
BBX  33 35 0 0
BITMAP
01001C0000
01801C0000
03800E0000
03800E0000
03000E0000
073FFFFF80
073FFFFF80
0E3FFFFF80
0E38000380
0E38000380
1E38000380
1E38000000
3E07000000
3E07000800
7E07001C00
EE07003E00
EE0700F800
CE0703F000
CE0707C000
8E071F0000
0E07FE0000
0E07F80000
0E07C00000
0E07000300
0E07000380
0E07000380
0E07000380
0E07000780
0E07000700
0E07000700
0E07800F00
0E03FFFE00
0E03FFFC00
0E007FE000
0E00000000
ENDCHAR
STARTCHAR  4F58
ENCODING  20312
SWIDTH  1000 0
DWIDTH  36 0
BBX  34 35 1 0
BITMAP
0000E00000
0001E00000
0003F00000
0007F80000
000F3C0000
001E1E0000
003C0F0000
0078078000
00F003E000
03E001F000
07C000FC00
1FFFFFFF00
7FFFFFFFC0
F9FFFFE7C0
E000000000
0000000000
0000000000
0000000000
7FFFFFFF80
7FFFFFFF80
7FFFFFFF80
0000E00000
0000E00000
00C0E18000
01E0E3C000
03C0E1E000
0780E0F800
0F00E07C00
1E00E03E00
3C00E00F00
7C00E00780
F801E00380
307FC00100
007FC00000
007E000000
ENDCHAR
STARTCHAR  4F59
ENCODING  20313
SWIDTH  1000 0
DWIDTH  36 0
BBX  34 35 1 0
BITMAP
0000E00000
0001E00000
0003F00000
0007F80000
000F3C0000
001E1E0000
003C0F0000
0078078000
00F003E000
03E001F000
07C000FC00
1FFFFFFF00
7FFFFFFFC0
F9FFFFE7C0
F000E00180
4000E00000
0000E00000
0000E00000
0000E00000
7FFFFFFF80
7FFFFFFF80
7FFFFFFF80
0000E00000
0080E08000
01C0E1C000
03C0E1E000
0780E0F000
0700E07C00
0F00E03E00
1E00E01F00
7C00E00780
F801E00380
307FC00100
007FC00000
007E000000
ENDCHAR
STARTCHAR  4F5A
ENCODING  20314
SWIDTH  1000 0
DWIDTH  36 0
BBX  35 34 0 0
BITMAP
00E0070000
00E0070000
01C3070000
01C3870000
01C3870000
0383870000
0387FFFFC0
0707FFFFC0
0707FFFFC0
0F0E070000
0F0E070000
1F1C070000
3F1C070000
3F18070000
7700070000
F71FFFFFE0
E71FFFFFE0
C71FFFFFE0
07000F8000
07000F8000
07000D8000
07001DC000
07001CC000
070038E000
070078F000
0700707000
0700E03800
0701E03C00
0707C01E00
070F800F80
073F0007C0
073C0003E0
07180000C0
0700000000
ENDCHAR
STARTCHAR  4F5B
ENCODING  20315
SWIDTH  1000 0
DWIDTH  36 0
BBX  34 34 1 1
BITMAP
0180E1C000
0380E1C000
0380E1C000
0380E1C000
037FFFFF00
077FFFFF00
077FFFFF00
0E00E1C700
0E00E1C700
0E00E1C700
1E00E1C700
1E7FFFFF00
3E7FFFFF00
3E7FFFFF00
7E70E1C700
6E70E1C700
EE70E1C000
CE70E1C000
CE70E1C000
0E7FFFFFC0
0E7FFFFFC0
0E7FFFFFC0
0E01C1C1C0
0E01C1C1C0
0E01C1C1C0
0E0381C1C0
0E0381C1C0
0E0781C3C0
0E0701DF80
0E0E01DF80
0E1E01DE00
0E3C01C000
0E7801C000
0E3001C000
ENDCHAR
STARTCHAR  4F5C
ENCODING  20316
SWIDTH  1000 0
DWIDTH  36 0
BBX  35 35 0 0
BITMAP
00E0E00000
00E0E00000
01C0E00000
01C1C00000
01C1C00000
0381FFFFE0
0383FFFFE0
0783FFFFE0
07071C0000
07071C0000
0F0E1C0000
0F0E1C0000
1F1C1C0000
1F3C1C0000
3F381FFF80
7F181FFF80
77001FFF80
F7001C0000
E7001C0000
47001C0000
07001C0000
07001C0000
07001C0000
07001FFFC0
07001FFFC0
07001FFFC0
07001C0000
07001C0000
07001C0000
07001C0000
07001C0000
07001C0000
07001C0000
07001C0000
07001C0000
ENDCHAR
STARTCHAR  4F5D
ENCODING  20317
SWIDTH  1000 0
DWIDTH  36 0
BBX  34 35 0 0
BITMAP
00E0C00000
00E1C00000
00E1C00000
01C1C00000
01C3800000
01C3FFFFC0
0387FFFFC0
0387FFFFC0
070E0001C0
070E0001C0
0F1C0001C0
0F3C0001C0
1F380001C0
3F37FFE1C0
3F07FFE1C0
7707FFE1C0
F70700E1C0
E70700E1C0
070700E1C0
070700E1C0
070700E1C0
070700E1C0
0707FFE1C0
0707FFE1C0
0707FFE1C0
07000001C0
07000001C0
07000001C0
07000001C0
07000003C0
0700000380
07000FFF80
07000FFF00
07000FFE00
0700000000
ENDCHAR
STARTCHAR  4F5E
ENCODING  20318
SWIDTH  1000 0
DWIDTH  36 0
BBX  35 34 0 1
BITMAP
00E0000000
00EFFFFF80
01CFFFFF80
01CFFFFF80
03C0000000
0380000000
0380000000
0700000000
0700000000
0F1FFFFFE0
0F1FFFFFE0
1F1FFFFFE0
1F001C0000
3F001C0000
7F00380000
7700380000
E73FFFFFE0
673FFFFFE0
473FFFFFE0
0700E01C00
0701E01C00
0701C03800
0703C03800
0703C07000
0703F0F000
0700FDE000
07003FC000
070007E000
07001FF800
0700FE7E00
0707F81FC0
073FE007E0
073F0001C0
0718000000
ENDCHAR
STARTCHAR  4F5F
ENCODING  20319
SWIDTH  1000 0
DWIDTH  36 0
BBX  36 36 0 0
BITMAP
0000000000
00C0600000
00E0E00000
00E0E00000
01C1C00000
01C1FFFF80
0183FFFF80
0383800780
0387C00F00
070EE00E00
071EE01E00
0F1C703C00
1F38387800
1F381DF000
3F101FE000
3F000F8000
77001FE000
F700FDF800
E703F87F00
471FE01FE0
077F8007E0
073C0000C0
07003C0000
07007F8000
07001FF000
070003FC00
0700007800
0700001800
0707000000
0707F00000
0707FE0000
0700FFE000
07000FFC00
070001FE00
0700003E00
0700000400
ENDCHAR
STARTCHAR  4F60
ENCODING  20320
SWIDTH  1000 0
DWIDTH  36 0
BBX  34 33 1 2
BITMAP
00E0700000
00E0E00000
01C0E00000
01C1C00000
0381C00000
0383FFFFC0
0383FFFFC0
0707FFFFC0
07070001C0
0F0E000380
1F1E070380
1F1C070700
3F08070700
3F00070100
7700070000
F701870C00
E701C71C00
C703870E00
0703870E00
0707070700
0707070700
0707070380
070E070380
070E0703C0
071C0701C0
071C0701C0
07380700C0
0708070000
0700070000
0700070000
0701FF0000
0701FE0000
0701FC0000
ENDCHAR
STARTCHAR  4F63
ENCODING  20323
SWIDTH  1000 0
DWIDTH  36 0
BBX  33 34 1 1
BITMAP
0180000000
0380000000
039FFFFF80
039FFFFF80
031FFFFF80
071C0E0380
071C0E0380
0E1C0E0380
0E1C0E0380
1E1C0E0380
1E1C0E0380
3E1FFFFF80
3E1FFFFF80
7E1FFFFF80
7E1C0E0380
EE1C0E0380
EE1C0E0380
CE1C0E0380
CE1C0E0380
0E1C0E0380
0E1FFFFF80
0E1FFFFF80
0E1FFFFF80
0E180E0380
0E180E0380
0E380E0380
0E380E0380
0E380E0380
0E300E0380
0E700E0380
0E700E0380
0EE00EFF00
0EE00E7F00
0E40007E00
ENDCHAR
STARTCHAR  4F64
ENCODING  20324
SWIDTH  1000 0
DWIDTH  36 0
BBX  36 34 0 0
BITMAP
00E0000000
00E0000000
00EFFFFFE0
01CFFFFFE0
01CFFFFFE0
0381C00000
0381C00000
0701C00000
0701C00000
0F01C00000
0F01FFF800
1F01FFF800
1F03FFF800
3F03803800
7703803800
F703903800
6703B83800
4703B83800
07039C3800
07038E3800
0703873800
0703873800
070703B860
0707013870
0707003870
0707003870
0707003870
070707B860
07077FB860
070FFF38E0
070FF01FE0
070F001FC0
0700000700
0700000000
ENDCHAR
STARTCHAR  4F65
ENCODING  20325
SWIDTH  1000 0
DWIDTH  36 0
BBX  33 34 1 1
BITMAP
0001C00000
0003C00000
0003E00000
0007700000
000F780000
001E3C0000
007C1E0000
00F80F8000
01E007C000
07C001E000
0F8000F800
3F00007E00
FC00001F80
FBFFFFEF80
E3FFFFE380
03FFFFE000
0000000000
0007000000
0007001000
0403803800
0E03803800
0E03807800
0701C07000
0701C07000
0381C0E000
0380E0E000
03C0C1E000
01C001C000
01C001C000
0000038000
0000038000
FFFFFFFF80
FFFFFFFF80
FFFFFFFF80
ENDCHAR
STARTCHAR  4F69
ENCODING  20329
SWIDTH  1000 0
DWIDTH  36 0
BBX  36 35 1 0
BITMAP
01C0000000
01C0000000
01DFFFFF00
01DFFFFF00
039FFFFF00
039C000700
039C000700
039C000700
071DFFF700
0F1DFFF700
0F1DFFF700
1F1C0E0700
1F1C0E0700
3F1C0E0700
3F1DFFF700
771DFFF700
771DFFF700
E71DCE7700
C71DCE7700
871DCE7700
071DCE7700
071DCE7700
0739CE7700
0739CE7700
0739CE7700
0739CE7770
0739CE7770
0739CEE770
0771CFE770
07718FC770
07E00E03F0
07E00E03E0
07C00E01C0
07400E0080
0700000000
ENDCHAR
STARTCHAR  4F6C
ENCODING  20332
SWIDTH  1000 0
DWIDTH  36 0
BBX  34 35 1 0
BITMAP
01C0700000
01C0700000
0380700000
0380700000
0380700100
0700700380
071FFFE380
071FFFE700
0E00700E00
0E00701E00
1E00703C00
1E00707800
3E0070F000
3EFFFFFFC0
7EFFFFFFC0
7E000F0000
EE003E0000
EE007C0000
CE01F00000
0E07E00000
0E1F801E00
0E7F80FE00
0EFF83FE00
0EF3FFE000
0E83FF0000
0E03FC0700
0E03800700
0E03800700
0E03800700
0E03800700
0E03800700
0E03FFFF00
0E01FFFE00
0E00FFF800
0E00000000
ENDCHAR
STARTCHAR  4F6F
ENCODING  20335
SWIDTH  1000 0
DWIDTH  36 0
BBX  35 35 0 0
BITMAP
0080000800
00E3800C00
00E3C01C00
01C1E03C00
01C0F03800
01C0607000
039FFFFFC0
039FFFFFC0
071FFFFFC0
0700070000
0F00070000
0F00070000
1F00070000
1F00070000
3F0FFFFF00
7F0FFFFF00
770FFFFF00
E700070000
E700070000
4700070000
0700070000
0700070000
0700070000
073FFFFFE0
073FFFFFE0
073FFFFFE0
0700070000
0700070000
0700070000
0700070000
0700070000
0700070000
0700070000
0700070000
0700070000
ENDCHAR
STARTCHAR  4F70
ENCODING  20336
SWIDTH  1000 0
DWIDTH  36 0
BBX  35 35 0 0
BITMAP
00E0000000
00E0000000
01C0000000
01CFFFFFE0
01CFFFFFE0
038FFFFFE0
03800E0000
07800E0000
07001C0000
07001C0000
0F07FFFF80
0F07FFFF80
1F07FFFF80
1F07000380
3F07000380
7F07000380
7707000380
E707000380
6707000380
4707FFFF80
0707FFFF80
0707FFFF80
0707000380
0707000380
0707000380
0707000380
0707000380
0707000380
0707000380
0707000380
0707FFFF80
0707FFFF80
0707FFFF80
0707000380
0700000000
ENDCHAR
STARTCHAR  4F73
ENCODING  20339
SWIDTH  1000 0
DWIDTH  36 0
BBX  35 35 0 0
BITMAP
0080000000
00E0070000
01E0070000
01C0070000
01C0070000
03C0070000
038FFFFF80
078FFFFF80
070FFFFF80
0700070000
0F00070000
0F00070000
1F00070000
3F00070000
3F1FFFFFE0
7F1FFFFFE0
771FFFFFE0
E700070000
6700070000
4700070000
0700070000
0700070000
070FFFFFC0
070FFFFFC0
070FFFFFC0
0700070000
0700070000
0700070000
0700070000
0700070000
073FFFFFE0
073FFFFFE0
073FFFFFE0
0700000000
0000000000
ENDCHAR
STARTCHAR  4F74
ENCODING  20340
SWIDTH  1000 0
DWIDTH  36 0
BBX  35 34 0 0
BITMAP
00E0000000
00E0000000
01DFFFFFC0
01DFFFFFC0
019FFFFFC0
0383800E00
0383800E00
0703800E00
0703800E00
0F03FFFE00
1F03FFFE00
1F03FFFE00
3F03800E00
3F03800E00
7703800E00
F703800E00
6703FFFE00
4703FFFE00
0703FFFE00
0703800E00
0703800E00
0703800E00
0703800E00
0703800E00
0703803FE0
0703FFFFE0
073FFFFFE0
073FFFCE00
073C000E00
0700000E00
0700000E00
0700000E00
0700000E00
0700000E00
ENDCHAR
STARTCHAR  4F76
ENCODING  20342
SWIDTH  1000 0
DWIDTH  36 0
BBX  35 34 0 1
BITMAP
00C0070000
00E0070000
01C0070000
01C0070000
01C0070000
03BFFFFFE0
03BFFFFFE0
07BFFFFFE0
0700070000
0700070000
0F00070000
1F00070000
1F00070000
3F1FFFFF80
3F1FFFFF80
771FFFFF80
7700000000
E700000000
4700000000
0700000000
070FFFFF80
070FFFFF80
070FFFFF80
070E000380
070E000380
070E000380
070E000380
070E000380
070E000380
070E000380
070FFFFF80
070FFFFF80
070FFFFF80
070E000380
ENDCHAR
STARTCHAR  4F7B
ENCODING  20347
SWIDTH  1000 0
DWIDTH  36 0
BBX  36 35 0 0
BITMAP
00C070E000
00E070E000
00E070E000
01C070E000
01C070E000
018870E080
03B870E0E0
039C70E1C0
071C70E1C0
070E70E380
0F0E70E780
0F0770E700
1F0670E600
3F0070E000
3F0070E000
770070E000
770070E000
6700F0F800
4703F0FE00
0707F0FF00
071F70E7C0
073E70E3E0
073860E0C0
0710E0E000
0700E0E000
0700E0E060
0701C0E070
0701C0E070
070380E060
070780E060
070F00E0E0
071E00FFE0
077C007FC0
0738001F00
0000000000
ENDCHAR
STARTCHAR  4F7C
ENCODING  20348
SWIDTH  1000 0
DWIDTH  36 0
BBX  35 35 0 0
BITMAP
0080040000
00E00E0000
01C00E0000
01C0070000
01C0070000
0380000000
039FFFFFE0
079FFFFFE0
071FFFFFE0
0700000000
0F00E07000
0F01E03800
1F01C01C00
1F03800E00
3F07800700
7F07000780
770E0013C0
E71DC039C0
671DC03880
4708E07000
0700E07000
070070F000
070070E000
070039C000
07001FC000
07001F8000
07000F0000
07001F8000
07003FE000
0700F9F800
0701F07E00
070FE01FC0
073F800FC0
071E000180
0718000000
ENDCHAR
STARTCHAR  4F7F
ENCODING  20351
SWIDTH  1000 0
DWIDTH  36 0
BBX  34 35 1 0
BITMAP
01800E0000
01800E0000
03800E0000
03800E0000
03000E0000
077FFFFFC0
077FFFFFC0
067FFFFFC0
0E000E0000
0E000E0000
1E000E0000
1E1FFFFF80
3E1FFFFF80
3E1FFFFF80
7E1C0E0380
7E1C0E0380
EE1C0E0380
CE1C0E0380
CE1FFFFF80
0E1FFFFF80
0E1FFFFF80
0E000E0000
0E060C0000
0E0F1C0000
0E071C0000
0E039C0000
0E01F80000
0E00F80000
0E00FC0000
0E01FF0000
0E07DFE000
0E1F87FF80
0EFE00FFC0
0E78001FC0
0E60000000
ENDCHAR
STARTCHAR  4F83
ENCODING  20355
SWIDTH  1000 0
DWIDTH  36 0
BBX  35 34 1 0
BITMAP
01C0000000
0380000000
039FFFFF00
039FFFFF00
031FFFFF00
071C000700
071C000700
0E1C000700
0E1C000700
0E1C000700
1E1C000700
1E1FFFFF00
3E1FFFFF00
7E1FFFFF00
7E1C000700
EE00000000
EE00000000
CE0E1C3800
0E0E1C3800
0E0E1C3800
0E0E1C3800
0E0E1C3800
0E0E1C3800
0E0E1C3800
0E0E1C3880
0E0C1C38E0
0E1C1C38E0
0E1C1C38E0
0E3C1C38E0
0E381C38E0
0E781C1DE0
0EF01C1FC0
0EE0000F80
0E40000000
ENDCHAR
STARTCHAR  4F84
ENCODING  20356
SWIDTH  1000 0
DWIDTH  36 0
BBX  35 35 0 0
BITMAP
0040000000
00E0000000
00EFFFFFC0
01EFFFFFC0
01CFFFFFC0
01C01C0000
0380380000
0380700000
0700701800
0700E01C00
0F01C01E00
0F03C00E00
1F07800700
3F07FFFF80
3F07FFFF80
7707FFFFC0
F700000180
6700070000
4700070000
0700070000
0700070000
0700070000
070FFFFFC0
070FFFFFC0
070FFFFFC0
0700070000
0700070000
0700070000
0700070000
0700070000
0700070000
073FFFFFE0
073FFFFFE0
073FFFFFE0
0700000000
ENDCHAR
STARTCHAR  4F88
ENCODING  20360
SWIDTH  1000 0
DWIDTH  36 0
BBX  36 36 0 0
BITMAP
0000000000
00700C0000
00701E0000
00E01C0000
00E03FFFC0
00E07FFFC0
01C0F001C0
01C1E003C0
0383C00780
0387980F00
079F1E1E00
078E0F3C00
0F8407F800
1F8003E000
1F8007C000
3B803F0000
7B80FE0000
7387F38000
639FC70000
038F0FFFE0
03881FFFE0
03803C00E0
03807800E0
0380F001C0
0383E003C0
0387CE0780
039F0F0F00
038E079E00
038403FC00
038001F000
038007E000
03803F8000
0381FE0000
039FF80000
038FC00000
000C000000
ENDCHAR
STARTCHAR  4F89
ENCODING  20361
SWIDTH  1000 0
DWIDTH  36 0
BBX  35 35 1 0
BITMAP
01800E0000
01C01C0000
03801C0000
03BFFFFFC0
03BFFFFFC0
073FFFFFC0
0700F1C000
0700E0E000
0E01C07000
0E03803800
1E07001E00
1E1FFFEF80
3E3FFFF7E0
3E7BFFF3E0
7E700000C0
7E60000000
EE00000000
CE7FFFFF80
CE7FFFFF80
8E7FFFFF80
0E03800000
0E03800000
0E03FFFE00
0E07FFFE00
0E07FFFE00
0E00000E00
0E00000E00
0E00000E00
0E00000E00
0E00000E00
0E00001C00
0E007FFC00
0E007FF800
0E007FF000
0E00000000
ENDCHAR
STARTCHAR  4F8B
ENCODING  20363
SWIDTH  1000 0
DWIDTH  36 0
BBX  34 34 1 1
BITMAP
01C00001C0
01BFFF01C0
03BFFF01C0
03BFFF01C0
03838001C0
03038001C0
07038071C0
07038071C0
06070071C0
0E07FC71C0
0E07FC71C0
1E07FC71C0
1E0E0C71C0
3E0E0C71C0
3E0C0C71C0
7E1C1C71C0
7E181C71C0
EE381C71C0
EE3A1871C0
CE77B871C0
0E73F871C0
0E61F071C0
0E00F071C0
0E007071C0
0E00E071C0
0E01E071C0
0E01C071C0
0E038001C0
0E078001C0
0E0F0001C0
0E1E0001C0
0E3C007FC0
0E38007FC0
0630007F80
ENDCHAR
STARTCHAR  4F8D
ENCODING  20365
SWIDTH  1000 0
DWIDTH  36 0
BBX  36 34 0 1
BITMAP
0040038000
00E0038000
00E0038000
00E0038000
01C0038000
01CFFFFFC0
038FFFFFC0
038FFFFFC0
0700038000
0700038000
0F00038000
0F00038000
1F1FFFFFF0
3F1FFFFFF0
3F1FFFFFF0
7F00000000
F700001C00
6700001C00
6700001C00
471FFFFFE0
071FFFFFE0
071FFFFFE0
0700001C00
0701001C00
0703801C00
0703C01C00
0701E01C00
0700F01C00
0700601C00
0700001C00
0700003C00
07000FFC00
07000FF800
07000FF000
ENDCHAR
STARTCHAR  4F8F
ENCODING  20367
SWIDTH  1000 0
DWIDTH  36 0
BBX  35 34 0 1
BITMAP
0180070000
01C0070000
01C3070000
0183870000
0383870000
0387070000
0307FFFF80
0707FFFF80
070FFFFF80
0E0E070000
0E1C070000
1E1C070000
1E3C070000
3E18070000
3E00070000
7E3FFFFFE0
7E3FFFFFE0
EE3FFFFFE0
4E001F8000
0E001FC000
0E003FC000
0E00376000
0E00777000
0E00E73000
0E01C73800
0E03C71C00
0E07870E00
0E0F070F00
0E1E070780
0E3C0703E0
0E780701E0
0E700700C0
0E20070000
0E00070000
ENDCHAR
STARTCHAR  4F91
ENCODING  20369
SWIDTH  1000 0
DWIDTH  36 0
BBX  34 35 1 0
BITMAP
0100180000
0180180000
0380380000
0380380000
033FFFFFC0
073FFFFFC0
073FFFFFC0
0600E00000
0E00E00000
0E01C00000
1E01C00000
1E03FFFF00
3E07FFFF00
3E07FFFF00
7E0F800700
6E1F800700
EE3F800700
CE7BFFFF00
CEF3FFFF00
8EE3FFFF00
0E43800700
0E03800700
0E03800700
0E03FFFF00
0E03FFFF00
0E03FFFF00
0E03800700
0E03800700
0E03800700
0E03800700
0E03800700
0E0380FF00
0E0380FE00
0E0380FC00
0E00000000
ENDCHAR
STARTCHAR  4F94
ENCODING  20372
SWIDTH  1000 0
DWIDTH  36 0
BBX  34 35 1 0
BITMAP
0000200000
01C0780000
0380700000
0380E02000
0381C07000
0703C07800
0707803800
060F001C00
0E1E000E00
0E3FFFFF00
1E7FFFFF00
1E7FFFFF80
3E00000180
3E040E0000
7E0E0E0000
FE0E0E0000
EE1C0E0000
CE1FFFFF80
CE3FFFFF80
8E3FFFFF80
0E700E0000
0EF00E0000
0E600E0000
0E000E0000
0E000E0000
0EFFFFFFC0
0EFFFFFFC0
0EFFFFFFC0
0E000E0000
0E000E0000
0E000E0000
0E000E0000
0E000E0000
0E000E0000
0E000E0000
ENDCHAR
STARTCHAR  4F97
ENCODING  20375
SWIDTH  1000 0
DWIDTH  36 0
BBX  33 34 1 1
BITMAP
0180000000
0380000000
039FFFFF80
039FFFFF80
071FFFFF80
071C000380
071C000380
0E1C000380
0E1CFFFB80
0E1CFFFB80
1E1CFFFB80
1E1C000380
3E1C000380
3E1C000380
7E1C000380
7E1C7FE380
EE1C7FE380
CE1C7FE380
CE1C70E380
0E1C70E380
0E1C70E380
0E1C70E380
0E1C70E380
0E1C70E380
0E1C7FE380
0E1C7FE380
0E1C7FE380
0E1C000380
0E1C000380
0E1C000380
0E1C000380
0E1C01FF80
0E1C01FF00
0E1C00FE00
ENDCHAR
STARTCHAR  4F9B
ENCODING  20379
SWIDTH  1000 0
DWIDTH  36 0
BBX  36 35 0 0
BITMAP
0040003800
00E0E03800
00E0E03800
00E0E03800
01C0E03800
01C0E03800
0380E03800
0380E03800
071FFFFFC0
071FFFFFC0
0F1FFFFFC0
0F00E03800
1F00E03800
1F00E03800
3F00E03800
7F00E03800
F700E03800
E700E03800
6700E03800
4700E03800
073FFFFFF0
073FFFFFF0
073FFFFFF0
0700000000
0700202000
0700707000
0700F07800
0701E03C00
0701C01E00
0703800F00
0707000780
071E0003C0
073C0001E0
07380000C0
0710000000
ENDCHAR
STARTCHAR  4F9D
ENCODING  20381
SWIDTH  1000 0
DWIDTH  36 0
BBX  35 35 0 0
BITMAP
0180080000
01C01C0000
01C01E0000
01800F0000
0380070000
03BFFFFFE0
033FFFFFE0
073FFFFFE0
06001C0000
0E001C0000
0E003C0000
1E003E0000
1E007E0000
3E00F60380
3E01E607C0
7E01C70F80
7E03871E00
EE07837C00
4E0F83F800
0E1F83E000
0E3F81C000
0E7B81C000
0EF380E000
0EE380F000
0EC3807000
0E03803800
0E03803C00
0E03861E00
0E039F0F80
0E03BE07C0
0E03F803E0
0E03F001C0
0E03C00000
0E03000000
0E00000000
ENDCHAR
STARTCHAR  4FA0
ENCODING  20384
SWIDTH  1000 0
DWIDTH  36 0
BBX  35 34 0 0
BITMAP
00F0070000
00E0070000
00E0070000
01E0070000
01CFFFFFC0
03CFFFFFC0
038FFFFFC0
0380070000
0700070000
0F06070300
0F070703C0
1F07870780
1F03870F00
3F01C71E00
7F00871800
7700070000
F700070000
673FFFFFE0
473FFFFFE0
073FFFFFE0
07000F8000
07000D8000
07001DC000
07001CC000
070038E000
0700787000
0700F07800
0701E03C00
0703C01E00
070F800F80
073F0007E0
077E0003E0
07380000C0
0710000000
ENDCHAR
STARTCHAR  4FA3
ENCODING  20387
SWIDTH  1000 0
DWIDTH  36 0
BBX  33 35 1 0
BITMAP
0180000000
01C0000000
038FFFFF00
038FFFFF00
038FFFFF00
070E000700
070E000700
070E000700
0E0E000700
0E0E000700
1E0E000700
1E0E000700
3E0FFFFF00
3E0FFFFF00
7E0FFFFF00
7E0E000300
EE00000000
EE00000000
CE00000000
0E1FFFFF80
0E1FFFFF80
0E1FFFFF80
0E1C000380
0E1C000380
0E1C000380
0E1C000380
0E1C000380
0E1C000380
0E1C000380
0E1C000380
0E1FFFFF80
0E1FFFFF80
0E1FFFFF80
0E1C000380
0E00000000
ENDCHAR
STARTCHAR  4FA5
ENCODING  20389
SWIDTH  1000 0
DWIDTH  36 0
BBX  35 35 1 0
BITMAP
0183800000
0183800000
0381C00000
0381C03F00
0301FFFF00
077FFFFF00
077FFFC000
067FF00400
0E00701E00
0E00383C00
1E003CF800
1E001FE0C0
3E000FC0C0
3E003F80C0
7E01FFC1C0
7E0FF1F1C0
EE7F80FF80
CE3C003F80
CE20000600
0E00000000
0E7FFFFFC0
0E7FFFFFC0
0E7FFFFFC0
0E01C1C000
0E01C1C000
0E01C1C000
0E01C1C0E0
0E0381C0E0
0E0381C0C0
0E0701C0C0
0E0F01C0C0
0E3E01E3C0
0EFC01FFC0
0EF000FF80
0E40000000
ENDCHAR
STARTCHAR  4FA6
ENCODING  20390
SWIDTH  1000 0
DWIDTH  36 0
BBX  35 35 0 0
BITMAP
0040070000
00E0070000
00E0070000
00C0070000
01C007FF80
01C007FF80
038007FF80
0380070000
0700070000
0700070000
0F0FFFFF80
0F0FFFFF80
1F0FFFFF80
3F0E000380
3F0E000380
770E070380
F70E070380
670E070380
470E070380
070E070380
070E070380
070E070380
070E070380
070E070380
070E0F0380
070E0F8380
070E1FC380
07001DF000
07003CF800
0700783E00
0701F01F00
0707E007C0
073F8003E0
073E0001C0
0718000000
ENDCHAR
STARTCHAR  4FA7
ENCODING  20391
SWIDTH  1000 0
DWIDTH  36 0
BBX  34 35 0 0
BITMAP
01C00001C0
01C00001C0
01DFFF01C0
039FFF39C0
039FFF39C0
039C0739C0
039C0739C0
071CE739C0
071CE739C0
061CE739C0
0E1CE739C0
0E1CE739C0
1E1CE739C0
1E1CE739C0
3E1CE739C0
3E1CE739C0
7E1CE739C0
FE1CE739C0
EE1CE739C0
0E1CE739C0
0E1CE739C0
0E1CE739C0
0E1CE739C0
0E1DE739C0
0E1DC739C0
0E01A039C0
0E03F039C0
0E033801C0
0E071C01C0
0E0E1E01C0
0E1E0F01C0
0E3C079FC0
0E78023FC0
0E70003FC0
0E20000000
ENDCHAR
STARTCHAR  4FA8
ENCODING  20392
SWIDTH  1000 0
DWIDTH  36 0
BBX  35 34 0 0
BITMAP
00E0000000
00E001FF80
00E7FFFF80
01C7FFFF80
01C7FF0000
0380070000
0380060000
07800E0000
07000E0000
0F1FFFFFE0
0F1FFFFFE0
1F1FFFFFE0
1F003CE000
3F00387000
7F00707000
7700F03800
F701E01C00
E703C01F00
470F800F80
071E0003E0
077CE01DE0
0738E01C40
0700E01C00
0700E01C00
0700E01C00
0700E01C00
0700E01C00
0701C01C00
0701C01C00
0703801C00
0707801C00
070F001C00
073E001C00
071C001C00
ENDCHAR
STARTCHAR  4FA9
ENCODING  20393
SWIDTH  1000 0
DWIDTH  36 0
BBX  35 35 0 0
BITMAP
0040070000
00E00F0000
00E00F0000
00C01F8000
01C03DC000
01C038E000
038070E000
0380E07000
0701C03C00
0703C01E00
0F0F800F00
0F1E0007C0
1F7FFFFBE0
3F3BFFFCC0
3F13FFFC00
7700000000
F700000000
6700000000
4700000000
073FFFFFC0
073FFFFFC0
073FFFFFC0
0700380000
0700380000
0700702000
0700E06000
0701E07000
0701C03800
0703801C00
0707000E00
070E000F00
071FFFFF80
071FFFFFC0
071FFFFDC0
0700000080
ENDCHAR
STARTCHAR  4FAC
ENCODING  20396
SWIDTH  1000 0
DWIDTH  36 0
BBX  36 35 0 0
BITMAP
00C0030000
00C0030000
01C0070000
01C0070000
0180070000
039FFFFFC0
039FFFFFC0
031FFFFFC0
071C0E01C0
071C1E01C0
0F1C1E01C0
0F1C3E01C0
1F003F0000
1F00770000
3F00730380
3F00E303C0
7701E38780
6701C19E00
6703C1FC00
0707C1F800
070FC0F000
070FC0E000
071DC07000
073DC07000
0779C03800
0771C03C00
0761C01E00
0701C08F00
0701C387C0
0701CF83E0
0701FF01E0
0701F800C0
0701E00000
0701C00000
0700000000
ENDCHAR
STARTCHAR  4FAE
ENCODING  20398
SWIDTH  1000 0
DWIDTH  36 0
BBX  35 34 0 1
BITMAP
0080E00000
01C1E00000
01C1C00000
0183800000
0383FFFFE0
0387FFFFE0
030EFFFFE0
071E000000
073C000000
0F7BFFFF00
0F37FFFF00
1F07FFFF00
1F070C0700
3F071E0700
3F07078700
7707038700
F707010700
6707FFFFE0
477FFFFFE0
077FFFFFE0
070E000700
070E080700
070E1E0700
070E0F0700
070E070700
070E03C700
070FFFFFE0
070FFFFFE0
071FFFFFE0
0700000E00
0700000E00
07000FFE00
07000FFC00
070007F800
ENDCHAR
STARTCHAR  4FAF
ENCODING  20399
SWIDTH  1000 0
DWIDTH  36 0
BBX  35 35 0 0
BITMAP
01C0000000
01C0000000
01C7FFFE00
0187FFFE00
0387FFFE00
0380000E00
0300000E00
0700000E00
073FFFFFE0
0F3FFFFFE0
0F3FFFFFE0
1F00000000
1F01800000
3F03800000
3F03800000
7707000000
7707FFFF80
E70FFFFF80
671FFFFF80
473C070000
0738070000
0710070000
073FFFFFE0
073FFFFFE0
073FFFFFE0
07000F8000
07001DC000
07003DE000
070078F000
0700F07800
0703E03E00
070FC01FC0
077F0007E0
073E0001C0
0710000000
ENDCHAR
STARTCHAR  4FB5
ENCODING  20405
SWIDTH  1000 0
DWIDTH  36 0
BBX  34 35 0 0
BITMAP
0100000000
01DFFFFF00
01DFFFFF00
019FFFFF00
0380000700
0380000700
0707FFFF00
0707FFFF00
0707FFFF00
0E00000700
0E00000700
1E1FFFFF00
1E1FFFFF00
3E1FFFFF00
3E00000700
7E00000000
7E7FFFFFC0
EE7FFFFFC0
6E7FFFFFC0
4E700001C0
0E700001C0
0E07FFFC00
0E07FFFC00
0E01FFFC00
0E01C03C00
0E00E07800
0E0070F000
0E0079E000
0E001FC000
0E001F8000
0E007FE000
0E07F9FE00
0E7FE07FC0
0E3F000F80
0E30000180
ENDCHAR
STARTCHAR  4FBF
ENCODING  20415
SWIDTH  1000 0
DWIDTH  36 0
BBX  35 35 0 0
BITMAP
0080000000
00E0000000
01EFFFFFE0
01CFFFFFE0
01CFFFFFE0
0380070000
0380070000
070FFFFF80
070FFFFF80
070FFFFF80
0F0C070180
0F0C070180
1F0C070180
3F0FFFFF80
3F0FFFFF80
7F0FFFFF80
770C070180
E70C070180
470C070180
470FFFFF80
070FFFFF80
070FFFFF80
0702070000
070F060000
07078E0000
0703CE0000
0701FC0000
0700FC0000
07007E0000
0700FFC000
0703E7FE00
070FC0FFE0
077F001FC0
073C0000C0
0710000000
ENDCHAR
STARTCHAR  4FC3
ENCODING  20419
SWIDTH  1000 0
DWIDTH  36 0
BBX  34 34 1 1
BITMAP
0180000000
01C0000000
038FFFFF00
038FFFFF00
038FFFFF00
070E000700
070E000700
060E000700
0E0E000700
0E0E000700
1E0E000700
1E0E000700
3E0FFFFF00
3E0FFFFF00
7E0FFFFF00
7E0E070700
EE00070000
EE00070000
CE07070000
0E07070000
0E0607FF80
0E0607FF80
0E0E07FF80
0E0E070000
0E0E070000
0E0E070000
0E1F070000
0E1F870000
0E3BC70000
0E39F70000
0E70FFFFC0
0EF03FFFC0
0EE00FFFC0
0E40000000
ENDCHAR
STARTCHAR  4FC4
ENCODING  20420
SWIDTH  1000 0
DWIDTH  36 0
BBX  37 35 0 0
BITMAP
018001C000
01C001C000
01C009C400
0183FDCE00
03BFFDC780
03BFC1C3C0
033381C1E0
070381C0C0
060381C000
0E0381C000
0E0381C000
1E7FFFFFF0
1E7FFFFFF0
3E7FFFFFF0
3E0380E000
760380E000
E60380E0C0
660380E0E0
460384E1C0
0603FCE3C0
060FFCE780
067FE0E700
067F806E00
0663807E00
0603807C00
060380F840
060381F070
060387F870
06038FB870
0603BE3870
06039C1C60
067F801FE0
063F800FE0
063F0007C0
0600000180
ENDCHAR
STARTCHAR  4FC5
ENCODING  20421
SWIDTH  1000 0
DWIDTH  36 0
BBX  36 36 0 0
BITMAP
0000000000
00C00E0000
00E00E3800
01C00E3C00
01C00E1F00
01C00E0F00
03800E0200
03800E0000
033FFFFFE0
073FFFFFE0
073FFFFFE0
0F000E0000
0F000E0000
1F180E0000
1F3C0F0180
3F1E0F03C0
7F0E0F0780
77070F9F00
67078FBC00
67038FF800
47010EF000
07001EE000
07007E7000
0701FE7800
0707EE3C00
070F8E1E00
073E0E0F00
073C0E0780
07300E03E0
07000E01E0
07000E00C0
07000E0000
0703FE0000
0703FC0000
0703F80000
0000000000
ENDCHAR
STARTCHAR  4FCA
ENCODING  20426
SWIDTH  1000 0
DWIDTH  36 0
BBX  34 35 1 0
BITMAP
0000180000
00E03C0000
01C0380000
01C0700000
0380F06000
0381E07000
0381C03800
0703801C00
070F000E00
0E1FFFFF00
0E1FFFFF80
1E0FFFFF80
3E00802000
3E03C07800
7E07807E00
FE1F001F80
EE3E7007C0
EE787001C0
CE30E00080
0E01FFFC00
0E03FFFC00
0E07801C00
0E0FC03800
0E1EE03800
0E3CF07000
0E3878E000
0E103FC000
0E001F8000
0E001F8000
0E007FE000
0E01F9FC00
0E1FE07F80
0E7F801FC0
0E7C0003C0
0020000000
ENDCHAR
STARTCHAR  4FCE
ENCODING  20430
SWIDTH  1000 0
DWIDTH  36 0
BBX  35 34 0 1
BITMAP
0180000000
0180000000
0381FFFF00
0381FFFF00
0381FFFF00
0301C00700
0781C00700
07C1C00700
07E1C00700
0EE1C00700
0E71C00700
1C79FFFF00
1C3DFFFF00
381DFFFF00
7009C00700
F001C00700
6381C00700
0381C00700
0381C00700
0301C00700
0701FFFF00
0701FFFF00
0781FFFF00
07C1C00700
0EE1C00700
0CF1C00700
1C79C00700
1C39C00700
383DC00700
7819C00700
7001C00700
E01FFFFFE0
601FFFFFE0
001FFFFFE0
ENDCHAR
STARTCHAR  4FCF
ENCODING  20431
SWIDTH  1000 0
DWIDTH  36 0
BBX  35 35 0 0
BITMAP
0180070000
01C4070080
01CE0701C0
038F0703C0
0387870780
0383870700
0701C70F00
0701C71E00
0E00870400
0E00070000
0E0FFFFFC0
1E0FFFFFC0
1E0FFFFFC0
3E0E0001C0
3E0E0001C0
7E0E0001C0
EE0E0001C0
EE0FFFFFC0
4E0FFFFFC0
4E0FFFFFC0
0E0E0001C0
0E0E0001C0
0E0E0001C0
0E0E0001C0
0E0FFFFFC0
0E0FFFFFC0
0E0FFFFFC0
0E0E0001C0
0E0E0001C0
0E0E0001C0
0E0E0001C0
0E0E01FFC0
0E0E01FF80
0E0E01FF00
0000000000
ENDCHAR
STARTCHAR  4FD0
ENCODING  20432
SWIDTH  1000 0
DWIDTH  36 0
BBX  33 34 1 1
BITMAP
0380000380
0300FC0380
037FFC0380
077FFC0380
077F800380
0603800380
0E0380E380
0E0380E380
0E0380E380
1E0380E380
1EFFFCE380
3EFFFCE380
3EFFFCE380
3E0380E380
7E0380E380
7E0780E380
EE0780E380
CE0FE0E380
CE0FF0E380
8E1FB8E380
0E1BB8E380
0E3B9CE380
0E3B88E380
0E7380E380
0EE380E380
0EE380E380
0EC380E380
0E83800380
0E03800380
0E03800380
0E03800380
0E0380FF80
0E0380FF00
0E0380FE00
ENDCHAR
STARTCHAR  4FD1
ENCODING  20433
SWIDTH  1000 0
DWIDTH  36 0
BBX  34 35 0 0
BITMAP
01C0000000
01CFFFFF80
01CFFFFF80
038FFFFF80
0380000F00
0381803E00
0701E07800
0701F1E000
0E007FC000
0E001F0000
0E00070000
1E1FFFFFC0
1E1FFFFFC0
3E1FFFFFC0
7E1C0701C0
7E1C0701C0
EE1C0701C0
EE1FFFFFC0
4E1FFFFFC0
4E1FFFFFC0
0E1C0701C0
0E1C0701C0
0E1C0701C0
0E1C0701C0
0E1FFFFFC0
0E1FFFFFC0
0E1FFFFFC0
0E1C0701C0
0E1C0701C0
0E1C0701C0
0E1C0701C0
0E1C0703C0
0E1C077F80
0E1C077F80
0E1C007E00
ENDCHAR
STARTCHAR  4FD7
ENCODING  20439
SWIDTH  1000 0
DWIDTH  36 0
BBX  35 35 1 0
BITMAP
0080000000
01C0000000
01C0C06000
01C0E07000
0381C03800
0383C01C00
0707800E00
070F000700
061E0E0380
0E3C0F03C0
1E781F81E0
1E303F80C0
3E0039C000
3E0070E000
7E00E0F000
EE01E07800
EE03C03C00
CE0F801F00
8E1F000F80
0E7C0003E0
0E7FFFFFC0
0E37FFFE40
0E07FFFE00
0E07000E00
0E07000E00
0E07000E00
0E07000E00
0E07000E00
0E07000E00
0E07000E00
0E07FFFE00
0E07FFFE00
0E07000E00
0E00000000
0E00000000
ENDCHAR
STARTCHAR  4FD8
ENCODING  20440
SWIDTH  1000 0
DWIDTH  36 0
BBX  35 35 0 0
BITMAP
0080000000
00E001FFC0
00FFFFFFC0
01DFFFFFC0
01DFFF0000
01C0000000
03800E0380
038E0E0380
070E070700
0707070700
0F03838E00
0F03831C00
1F01000C00
3F00000000
3F0FFFFF00
770FFFFF00
F70FFFFF00
6700001E00
4700007C00
470000F800
070001E000
070003C000
077FFFFFE0
077FFFFFE0
077FFFFFE0
0700038000
0700038000
0700038000
0700038000
0700038000
0700038000
0700078000
0701FF8000
0701FF0000
0700F80000
ENDCHAR
STARTCHAR  4FDA
ENCODING  20442
SWIDTH  1000 0
DWIDTH  36 0
BBX  34 34 1 1
BITMAP
0300000000
0380000000
039FFFFF00
071FFFFF00
071C0E0700
071C0E0700
0E1C0E0700
0E1C0E0700
0E1C0E0700
1E1FFFFF00
1E1FFFFF00
3E1FFFFF00
3E1C0E0700
7E1C0E0700
7E1C0E0700
EE1C0E0700
EE1C0E0700
CE1FFFFF00
8E1FFFFF00
8E1FFFF700
0E000E0000
0E000E0000
0E000E0000
0E1FFFFF80
0E1FFFFF80
0E1FFFFF80
0E000E0000
0E000E0000
0E000E0000
0E000E0000
0E000E0000
0E7FFFFFC0
0E7FFFFFC0
0E7FFFFFC0
ENDCHAR
STARTCHAR  4FDD
ENCODING  20445
SWIDTH  1000 0
DWIDTH  36 0
BBX  35 35 0 1
BITMAP
01C0000000
01C0000000
01CFFFFF00
018FFFFF00
038FFFFF00
038E000700
030E000700
070E000700
070E000700
0E0E000700
0E0E000700
1E0E000700
1E0FFFFF00
1E0FFFFF00
3E0FFFFF00
7E00070000
7E00070000
EE00070000
4E7FFFFFC0
0E7FFFFFE0
0E7FFFFFE0
0E003FC000
0E0077C000
0E00776000
0E00E77000
0E01C73800
0E03871C00
0E07070F00
0E0F070780
0E3E0703E0
0E780701E0
0E700700C0
0E20070000
0E00070000
0E00070000
ENDCHAR
STARTCHAR  4FDE
ENCODING  20446
SWIDTH  1000 0
DWIDTH  36 0
BBX  34 35 1 0
BITMAP
0000F00000
0001F00000
0003F80000
0007BC0000
000F1E0000
003C0F8000
00F803C000
01F001F000
07C000FC00
3F7FFFBF80
FC7FFF8FC0
F07FFF83C0
4000000000
0000000E00
1FFF800E00
1FFF870E00
1FFF870E00
1C03870E00
1C03870E00
1FFF870E00
1FFF870E00
1FFF870E00
1C03870E00
1C03870E00
1C03870E00
1FFF870E00
1FFF870E00
1FFF870E00
1C03870E00
1C03800E00
1C03800E00
1C7F83FE00
1C3F83FC00
1C3F01FC00
1C00000000
ENDCHAR
STARTCHAR  4FDF
ENCODING  20447
SWIDTH  1000 0
DWIDTH  36 0
BBX  34 34 1 1
BITMAP
0000100000
03803C0000
0380780000
0300702000
0700E07000
0701C07800
0E03C03C00
0E07801C00
0E1E000E00
1E3FFFFF00
1E3FFFFF80
3E3FFFFF80
3E03000000
7E07000000
7E0E000000
EE0FFFFF00
EE1FFFFF00
CE3FFFFF00
8E780E0000
0EF00E0000
0E200E0000
0E000E0000
0E7FFFFFC0
0E7FFFFFC0
0E7FFFFFC0
0E001F0000
0E003B8000
0E0079C000
0E00F1E000
0E01E0F800
0E07C07C00
0E7F801FC0
0EFE000FC0
0E78000380
ENDCHAR
STARTCHAR  4FE1
ENCODING  20449
SWIDTH  1000 0
DWIDTH  36 0
BBX  34 35 1 0
BITMAP
01000C0000
01801C0000
03800E0000
03800E0000
0300070000
077FFFFFC0
077FFFFFC0
0E7FFFFFC0
0E00000000
0E00000000
1E1FFFFF00
1E1FFFFF00
3E1FFFFF00
7E00000000
7E00000000
EE1FFFFF00
EE1FFFFF00
CE1FFFFF00
CE00000000
8E00000000
0E00000000
0E0FFFFF00
0E0FFFFF00
0E0FFFFF00
0E0E000700
0E0E000700
0E0E000700
0E0E000700
0E0E000700
0E0E000700
0E0FFFFF00
0E0FFFFF00
0E0FFFFF00
0E0E000700
0E00000000
ENDCHAR
STARTCHAR  4FE8
ENCODING  20456
SWIDTH  1000 0
DWIDTH  36 0
BBX  35 35 1 0
BITMAP
01C0000000
01C0000000
03BFFFFF80
03BFFFFFC0
03BFFFFFC0
030070E000
071870E080
073870E1E0
0E1C70E1C0
0E0E70E3C0
1E0E70E780
1E0770E700
1E0370EE00
3E0270E400
7E0070E000
7E1FFFFFE0
EE1FFFFFE0
EE1FFFFFE0
CE1C000000
0E1C000000
0E1C000000
0E1C000000
0E1C000000
0E1C000000
0E1C000000
0E18000000
0E38000000
0E38000000
0E38000000
0E70000000
0E70000000
0EE0000000
0FE0000000
0EC0000000
0E40000000
ENDCHAR
STARTCHAR  4FE9
ENCODING  20457
SWIDTH  1000 0
DWIDTH  36 0
BBX  34 35 1 0
BITMAP
0180000000
0380000000
03BFFFFFC0
03BFFFFFC0
07BFFFFFC0
0700E0E000
0600E0E000
0E00E0E000
0E00E0E000
1E3FFFFF80
1E3FFFFF80
1E3FFFFF80
3E38E0E380
3E38E0E380
7E38E0E380
EE38E0E380
EE38E0E380
CE38F0E380
CE38F9E380
8E38DDE380
0E39CDF380
0E39C3BB80
0E3B839F80
0E3B831F80
0E3F070F80
0E3F0E0380
0E3E0E0380
0E3C0C0380
0E38000380
0E38000380
0E38000380
0E3800FF80
0E3800FF80
0E3800FF00
0E38000000
ENDCHAR
STARTCHAR  4FEA
ENCODING  20458
SWIDTH  1000 0
DWIDTH  36 0
BBX  34 35 1 0
BITMAP
0380000000
0380000000
03BFFFFFC0
03BFFFFFC0
07BFFFFFC0
0700000000
0700000000
0E00000000
0E3FF1FF80
1E3FF1FF80
1E3FF1FF80
1E3871C380
3E3871C380
3E3871C380
7E3871C380
6E3C71F380
EE3E71F380
CE3E71DB80
CE3E71DB80
8E3E71DB80
0E3B71DB80
0E3B71DB80
0E3B71DF80
0E3B71CB80
0E3871C380
0E3871C380
0E3871C380
0E3871C380
0E3871C380
0E3871C380
0E3871C380
0E3871C380
0E3BF1DF80
0E3BE1DF80
0E03C01F00
ENDCHAR
STARTCHAR  4FED
ENCODING  20461
SWIDTH  1000 0
DWIDTH  36 0
BBX  35 34 0 1
BITMAP
00E0070000
00E00F0000
00E01F0000
01C01F8000
01C039C000
038079E000
0380F0F000
0380E07800
0701C03C00
0707801E00
0F0F000F80
0F1E0007C0
1F3C0003E0
3F3BFFFCC0
3F13FFFC00
7703FFFC00
F700000000
67001C0000
470C1C0700
071C1C0F00
070E0C0E00
070E0E0E00
07060E1E00
07070E1C00
0707061C00
0707073800
0703873800
0703803000
0703007000
0700007000
073FFFFFC0
073FFFFFC0
073FFFFFC0
0700000000
ENDCHAR
STARTCHAR  4FEE
ENCODING  20462
SWIDTH  1000 0
DWIDTH  36 0
BBX  34 35 1 0
BITMAP
0300100000
0300380000
0700380000
0700700000
07007FFF00
0E00FFFF00
0E71FFFE00
0E71F01C00
1E73B83C00
1E773C7800
1E761EF000
3E720FE000
3E7007C000
7E701FF800
7E707C7F00
EE73F01FC0
EE7FC087C0
CE7701C000
CE7007C000
8E701F0000
0E70FC1800
0E77F03C00
0E73C0F800
0E7003E000
0E700F8300
0E703F0780
0E61FC1F00
0E03F03E00
0E0180F800
0E0003E000
0E001FC000
0E00FF0000
0E07F80000
0E07E00000
0E06000000
ENDCHAR
STARTCHAR  4FEF
ENCODING  20463
SWIDTH  1000 0
DWIDTH  36 0
BBX  35 35 0 0
BITMAP
0180020000
0180070000
0380070000
0380038000
039FFFFFE0
071FFFFFE0
071FFFFFE0
071C000000
0E1C1C0700
0E1C180700
0E1C380700
1E1C380700
1E1C300700
3E1C77FFE0
3E1C77FFE0
7E1CF7FFE0
7E1CF00700
EE1DF00700
6E1FF30700
4E1FF70700
0E1F738700
0E1D718700
0E1C71C700
0E1C71C700
0E1870E700
0E38708700
0E38700700
0E38700700
0E30700700
0E70700700
0E70700700
0EE073FF00
0EE073FE00
0E4071FC00
0E00000000
ENDCHAR
STARTCHAR  4FF1
ENCODING  20465
SWIDTH  1000 0
DWIDTH  36 0
BBX  35 34 1 0
BITMAP
01C0000000
01C7FFFE00
0387FFFE00
0387FFFE00
0307000E00
0707000E00
0607FFFE00
0E07FFFE00
0E07FFFE00
0E07000E00
1E07000E00
1E07FFFE00
3E07FFFE00
3E07FFFE00
7E07000E00
EE07000E00
EE07FFFE00
CE07FFFE00
8E07FFFE00
0E07000E00
0E07000E00
0E07000E00
0E7FFFFFE0
0E7FFFFFE0
0E7FFFFFE0
0E00404000
0E00E0E000
0E01E0F000
0E03C07800
0E07801E00
0E0F000F00
0E3E000780
0E78000380
0E30000180
ENDCHAR
STARTCHAR  4FF3
ENCODING  20467
SWIDTH  1000 0
DWIDTH  36 0
BBX  36 35 0 0
BITMAP
0000000000
00E070E000
01C070E000
01C070E000
01C070E000
038070E000
03BFF0FFE0
073FF0FFE0
073FF0FFE0
060070E000
0E0070E000
0E0070E000
1E0070E000
1E0070E000
3E0070E000
7E1FF0FFC0
7E1FF0FFC0
EE1FF0FFC0
6E0070E000
4E0070E000
0E0070E000
0E0070E000
0E0070E000
0E7FF0FFE0
0E7FF0FFE0
0E7FF0FFE0
0E0070E000
0E0070E000
0E0070E000
0E0070E000
0E0070E000
0E0070E000
0E0070E000
0E0070E000
0E0070E000
ENDCHAR
STARTCHAR  4FF8
ENCODING  20472
SWIDTH  1000 0
DWIDTH  36 0
BBX  35 35 1 0
BITMAP
00000E0000
01C00E0000
01C00E0000
01BFFFFF80
03BFFFFF80
03BFFFFF80
07001C0000
07001C0000
0E1FFFFF00
0E1FFFFF00
1E1FFFFF00
1E00700000
3E00700000
3E7FFFFFE0
7E7FFFFFE0
FE7FFFFFE0
EE01C0E000
CE03807000
CE070E3800
0E0F0E1C00
0E1E0E0F00
0E7FFFFFC0
0EFFFFFBC0
0E7FFFF9C0
0E000E0000
0E000E0000
0E000E0000
0E3FFFFF80
0E3FFFFF80
0E3FFFFF80
0E000E0000
0E000E0000
0E000E0000
0E000E0000
0E000E0000
ENDCHAR
STARTCHAR  4FFA
ENCODING  20474
SWIDTH  1000 0
DWIDTH  36 0
BBX  35 35 1 0
BITMAP
01C0180000
01C01C0000
0380380000
0380380000
03BFFFFF00
073FFFFF80
073FFFFF80
0E01C0C000
0E03C0E000
1E07807000
1E0F1C3800
3E1E1C1E00
3E3C1C0F80
7EF81C07C0
FEFFFFFFC0
EE5FFFFE00
EE1FFFFE00
CE1C1C0E00
8E1C1C0E00
8E1FFFFE00
0E1FFFFE00
0E1FFFFE00
0E1C1C0E00
0E1C1C0E00
0E1C1C0E00
0E1FFFFE00
0E1FFFFEE0
0E1FFFFEE0
0E001C00C0
0E001C00C0
0E001C01C0
0E000FFFC0
0E000FFF80
0E0007FF00
0E00000000
ENDCHAR
STARTCHAR  4FFE
ENCODING  20478
SWIDTH  1000 0
DWIDTH  36 0
BBX  34 35 1 0
BITMAP
0100180000
01C0380000
01C0380000
039FFFFF80
039FFFFF80
039FFFFF80
071C0E0380
071C0E0380
0E1C0E0380
0E1C0E0380
1E1FFFFF80
1E1FFFFF80
3E1FFFFF80
3E1C1C0380
7E1C1C0380
FE1C1C0380
EE1FFFFF80
CE1FFFFF80
CE1FFFFF80
0E00700000
0E00E00000
0E01C38000
0E07838000
0E1F038000
0E0E038000
0E7FFFFFC0
0E7FFFFFC0
0E7FFFFFC0
0E00038000
0E00038000
0E00038000
0E00038000
0E00038000
0E00038000
0E00038000
ENDCHAR
STARTCHAR  500C
ENCODING  20492
SWIDTH  1000 0
DWIDTH  36 0
BBX  34 33 1 1
BITMAP
01C01C0000
01C00E0000
01800E0000
0380070000
03BFFFFFC0
073FFFFFC0
073FFFFFC0
0E380001C0
0E380001C0
1E00000000
1E0FFFFF00
3E0FFFFF00
3E0FFFFF00
7E0E000700
FE0E000700
EE0E000700
CE0FFFFF00
CE0FFFFF00
0E0FFFFF00
0E0E000000
0E0E000000
0E0E000000
0E0FFFFF80
0E0FFFFF80
0E0FFFFF80
0E0E000380
0E0E000380
0E0E000380
0E0E000380
0E0E000380
0E0FFFFF80
0E0FFFFF80
0E0FFFFF80
ENDCHAR
STARTCHAR  500D
ENCODING  20493
SWIDTH  1000 0
DWIDTH  36 0
BBX  35 35 1 0
BITMAP
01800C0000
01C01E0000
03C00E0000
0380070000
039FFFFFC0
071FFFFFC0
071FFFFFC0
0700000000
0E03000C00
0E03801E00
1E03C01C00
1E01C03800
3E00E07800
3E00E07000
7E7FFFFFE0
7E7FFFFFE0
EE7FFFFFE0
EE00000000
CE00000000
8E00000000
0E00000000
0E0FFFFF00
0E0FFFFF00
0E0FFFFF00
0E0E000700
0E0E000700
0E0E000700
0E0E000700
0E0E000700
0E0E000700
0E0FFFFF00
0E0FFFFF00
0E0FFFFF00
0E0E000700
0E00000000
ENDCHAR
STARTCHAR  500F
ENCODING  20495
SWIDTH  1000 0
DWIDTH  36 0
BBX  35 35 1 0
BITMAP
0180080000
01800C0000
03801C0000
03801FFF80
03803FFF80
03007FFF80
0738700700
0738F80700
0639DC0E00
0E3B8E1C00
0E3B873800
1E3903F000
1E3801E000
3E3807FC00
3E381F3F80
3E38FC0FE0
7E3FF001E0
EE3BC39C20
EE38039E00
CE38038780
0E38038300
0E3BFFFFE0
0E3BFFFFE0
0E3BFFFFE0
0E38070000
0E38078000
0E300FE000
0E000EF000
0E001C7C00
0E007C1E00
0E00F80F80
0E03E007C0
0E0FC001E0
0E0F0000C0
0604000000
ENDCHAR
STARTCHAR  5012
ENCODING  20498
SWIDTH  1000 0
DWIDTH  36 0
BBX  34 34 0 1
BITMAP
03800001C0
03800001C0
037FFF01C0
037FFF01C0
077FFF01C0
07038071C0
06070071C0
0E070071C0
0E0E3871C0
0E0E1C71C0
1E1C1C71C0
1E380E71C0
3E7FFE71C0
3E7FFF71C0
767FFF71C0
76000371C0
E601C071C0
6601C071C0
4601C071C0
0601C071C0
067FFE71C0
067FFE71C0
067FFE71C0
0601C071C0
0601C071C0
0601C071C0
0601C001C0
0601C001C0
0601FE01C0
06FFFE01C0
06FFFE01C0
06FE007FC0
0600007F80
0600007F00
ENDCHAR
STARTCHAR  5014
ENCODING  20500
SWIDTH  1000 0
DWIDTH  36 0
BBX  35 35 0 0
BITMAP
01C0000000
01CFFFFFC0
01CFFFFFC0
018FFFFFC0
038E0001C0
038E0001C0
030E0001C0
070E0001C0
070E0001C0
0F0FFFFFC0
0F0FFFFFC0
0F0FFFFFC0
1F0E00E000
1F0E00E000
3F0E70E1C0
3F0E70E1C0
770E70E1C0
E70E70E1C0
670E7FFFC0
470E7FFFC0
070E7FFFC0
070E00E000
070E00E000
071C00E000
071CE0E0E0
071CE0E0E0
071CE0E0E0
0718E0E0E0
0738E0E0E0
0738E0E0E0
0730FFFFE0
0770FFFFE0
07F0FFFFE0
0760000000
0700000000
ENDCHAR
STARTCHAR  5018
ENCODING  20504
SWIDTH  1000 0
DWIDTH  36 0
BBX  33 35 1 0
BITMAP
01000E0000
01C00E0000
01880E0100
039C0E0380
039E0E0780
070F0E0F00
07078E1E00
0603CE3C00
0E018E1800
0E000E0000
1E3FFFFF80
1E3FFFFF80
3E3FFFFF80
3E38000380
7E38000380
7E38000380
EE38000380
CE38FFE380
CE38FFE380
0E38FFE380
0E38E0E380
0E38E0E380
0E38E0E380
0E38E0E380
0E38E0E380
0E38FFE380
0E38FFE380
0E38FFE380
0E38000380
0E38000380
0E38000380
0E38000380
0E3801FF80
0E3801FF00
0E38000000
ENDCHAR
STARTCHAR  5019
ENCODING  20505
SWIDTH  1000 0
DWIDTH  36 0
BBX  36 35 0 0
BITMAP
0380000000
0380000000
0380FFFE00
0300FFFE00
0700FFFE00
0738000E00
0738000E00
0638000E00
0E3BFFFFE0
0E3BFFFFE0
1E3BFFFFE0
1E38380000
3E38380000
3E38700000
7E38700000
7E38FFFFC0
EE38FFFFC0
EE39FFFFC0
4E39C1C000
0E3B81C000
0E3981C000
0E3801C000
0E3BFFFFF0
0E3BFFFFF0
0E3BFFFFF0
0E3803E000
0E3807E000
0E000F7000
0E001E3800
0E003C3C00
0E00F81F00
0E03F00FE0
0E0FE003F0
0E0F8001E0
0E04000000
ENDCHAR
STARTCHAR  501A
ENCODING  20506
SWIDTH  1000 0
DWIDTH  36 0
BBX  35 35 1 0
BITMAP
00800E0000
01C00E0000
01C00E0000
03BFFFFF80
03BFFFFF80
033FFFFF80
07001C0000
07003E0000
0E007FC000
0E01F3F800
1E07E0FE00
1E3F801F00
3E1E000600
7E08000000
7E7FFFFFE0
EE7FFFFFE0
EE7FFFFFE0
CE00000E00
CE00000E00
8E1FFF0E00
0E1FFF0E00
0E1FFF0E00
0E1C070E00
0E1C070E00
0E1C070E00
0E1C070E00
0E1FFF0E00
0E1FFF0E00
0E1FFF0E00
0E00000E00
0E00000E00
0E00001E00
0E0007FC00
0E0007FC00
0E0007F000
ENDCHAR
STARTCHAR  501C
ENCODING  20508
SWIDTH  1000 0
DWIDTH  36 0
BBX  33 35 1 0
BITMAP
01C0000000
01C0000000
039FFFFF80
039FFFFF80
039FFFFF80
071C070380
071C070380
071C070380
0E1CFFF380
0E1CFFF380
1E1CFFF380
1E1C070380
3E1C070380
3E1DFFFB80
7E1DFFFB80
7E1DFFFB80
EE1C000380
CE1C000380
CE1C7FF380
0E1C7FF380
0E1C7FF380
0E1C707380
0E1C707380
0E1C707380
0E18707380
0E18707380
0E387FF380
0E387FF380
0E707FF380
0E70000380
0EF0000380
0FE000FF80
0FC000FF00
0EC000FE00
0E00000000
ENDCHAR
STARTCHAR  501F
ENCODING  20511
SWIDTH  1000 0
DWIDTH  36 0
BBX  34 35 1 0
BITMAP
0001C07000
01C1C07000
01C1C07000
0381C07000
039FFFFF80
039FFFFF80
071FFFFF80
0701C07000
0E01C07000
0E01C07000
1E01C07000
1E01C07000
3E7FFFFFC0
7E7FFFFFC0
7E7FFFFFC0
EE00000000
EE00000000
CE00000000
8E0FFFFE00
0E0FFFFE00
0E0FFFFE00
0E0E000E00
0E0E000E00
0E0E000E00
0E0FFFFE00
0E0FFFFE00
0E0FFFFE00
0E0E000E00
0E0E000E00
0E0E000E00
0E0FFFFE00
0E0FFFFE00
0E0FFFFE00
0E0E000E00
0E00000000
ENDCHAR
STARTCHAR  5021
ENCODING  20513
SWIDTH  1000 0
DWIDTH  36 0
BBX  33 35 1 0
BITMAP
01C0000000
01C0000000
038FFFFE00
038FFFFE00
038FFFFE00
070E000E00
070E000E00
070FFFFE00
0E0FFFFE00
0E0FFFFE00
1E0E000E00
1E0E000E00
3E0E000E00
3E0FFFFE00
7E0FFFFE00
FE0FFFFE00
EE00000000
CE00000000
CE3FFFFF80
8E3FFFFF80
0E3FFFFF80
0E38000380
0E38000380
0E38000380
0E3FFFFF80
0E3FFFFF80
0E3FFFFF80
0E38000380
0E38000380
0E38000380
0E38000380
0E3FFFFF80
0E3FFFFF80
0E3FFFFF80
0E38000380
ENDCHAR
STARTCHAR  5025
ENCODING  20517
SWIDTH  1000 0
DWIDTH  36 0
BBX  34 35 1 0
BITMAP
0000080000
01C03C0000
01801C0000
03800E0000
03800F0000
0300040000
073FFFFF80
073FFFFF80
0E3FFFFF80
0E38000380
1E38000380
1E3860E380
3E01F0F000
3E03E07C00
7E07803E00
7E1F000F00
EE3E000780
EE38000300
CE10000000
8E1FFFFF00
0E1FFFFF00
0E1FFFFF00
0E000E0000
0E000E0000
0E000E0000
0E000E0000
0E000E0000
0E000E0000
0E000E0000
0E000E0000
0E7FFFFFC0
0E7FFFFFC0
0E7FFFFFC0
0E00000000
0E00000000
ENDCHAR
STARTCHAR  5026
ENCODING  20518
SWIDTH  1000 0
DWIDTH  36 0
BBX  35 35 0 0
BITMAP
01000E0000
01840E0200
038E0E0700
03870E0700
03070E0E00
07038E1C00
07018C1800
073FFFFF00
063FFFFFC0
0E3FFFFFC0
0E00180000
1E00380000
1E00380000
3E7FFFFFE0
3E7FFFFFE0
7E7FFFFFE0
7E01E07000
EE03C07800
6E07803C00
4E0F001E00
0E1FFFFF80
0E7FFFF7E0
0EFBFFF1E0
0EE3807060
0E43807000
0E03807000
0E038FF300
0E038FE380
0E038FC380
0E03800300
0E03800700
0E01FFFF00
0E01FFFE00
0E00FFFC00
0E00000000
ENDCHAR
STARTCHAR  5028
ENCODING  20520
SWIDTH  1000 0
DWIDTH  36 0
BBX  35 35 1 0
BITMAP
0180000000
01C0000000
038FFFFF80
038FFFFF80
038FFFFF80
070E000380
070E000380
060E000380
0E0E000380
0E0FFFFF80
1E0FFFFF80
1E0FFFFF80
3E0E038000
3E0E038000
7E0E038000
7E0FFFFFE0
EE0FFFFFE0
EE0FFFFFE0
CE1C038000
0E1C038000
0E1C038000
0E1C038000
0E1DFFFF80
0E1DFFFF80
0E19FFFF80
0E39C00380
0E39C00380
0E39C00380
0E71C00380
0E71C00380
0EF1FFFF80
0EE1FFFF80
0FE1FFFF80
0EC1C00380
0E40000000
ENDCHAR
STARTCHAR  5029
ENCODING  20521
SWIDTH  1000 0
DWIDTH  36 0
BBX  34 35 1 0
BITMAP
01C00E0000
01C00E0000
03BFFFFFC0
03BFFFFFC0
03BFFFFFC0
07000E0000
07000E0000
071FFFFF80
0E1FFFFF80
0E1FFFFF80
1E000E0000
1E000E0000
3E7FFFFFC0
3E7FFFFFC0
7E7FFFFFC0
7E00000000
EE0FFFFF00
CE0FFFFF00
CE0FFFFF00
0E0E000700
0E0E000700
0E0FFFFF00
0E0FFFFF00
0E0FFFFF00
0E0E000700
0E0E000700
0E0FFFFF00
0E0FFFFF00
0E0FFFFF00
0E0E000700
0E0E000700
0E0E03FF00
0E0E03FE00
0E0E03FC00
0E0E000000
ENDCHAR
STARTCHAR  502A
ENCODING  20522
SWIDTH  1000 0
DWIDTH  36 0
BBX  35 35 1 0
BITMAP
01C0000000
01C0F00000
03BFF3FF00
03BFF3FF00
03BF03FF00
0738000700
0738000700
0638000700
0E38000700
0E38000700
0E3FF3FF00
1E3FF3FF00
1E3FF3FF00
3E38000700
3E38000700
7E38000700
EE38000700
EE38000700
CE38000700
8E3FFFFF00
0E3FFFFF00
0E3FFFFF00
0E00E1C000
0E00E1C000
0E00E1C000
0E01C1C080
0E01C1C0E0
0E01C1C0E0
0E0381C0E0
0E0781C0C0
0E0F01C1C0
0E3E01E3C0
0EFC00FFC0
0E70007F00
0E00000000
ENDCHAR
STARTCHAR  502C
ENCODING  20524
SWIDTH  1000 0
DWIDTH  36 0
BBX  35 35 0 0
BITMAP
0080070000
00E0070000
00E0070000
01C007FF80
01C007FF80
01C007FF80
0380070000
0380070000
070FFFFF80
070FFFFF80
0F0FFFFF80
0F0E000380
1F0E000380
3F0E000380
3F0FFFFF80
770FFFFF80
F70FFFFF80
E70E000380
470E000380
070E000380
070FFFFF80
070FFFFF80
070FFFFF80
070E070380
0700070000
0700070000
077FFFFFE0
077FFFFFE0
077FFFFFE0
0700070000
0700070000
0700070000
0700070000
0700070000
0700070000
ENDCHAR
STARTCHAR  502D
ENCODING  20525
SWIDTH  1000 0
DWIDTH  36 0
BBX  34 35 1 0
BITMAP
01C0000000
01C007FF00
039FFFFF00
039FFFFF00
030FFE0000
07000E0000
07000E0000
063FFFFF80
0E3FFFFFC0
0E3FFFFFC0
1E003F8000
1E007FC000
3E01EEE000
3E03CE7800
7E0F8E3E00
EE3E0E0FC0
EEFC0E07C0
CE703E0180
CE00380000
8E00700000
0E7FFFFFC0
0E7FFFFFC0
0E7FFFFFC0
0E01C07000
0E03807000
0E0700E000
0E07E1E000
0E01FFC000
0E003F8000
0E003FE000
0E01FDFC00
0E1FF07F80
0E7FC00FC0
0E7E000380
0E20000000
ENDCHAR
STARTCHAR  503A
ENCODING  20538
SWIDTH  1000 0
DWIDTH  36 0
BBX  35 35 1 0
BITMAP
03800E0000
03800E0000
03800E0000
073FFFFF80
073FFFFF80
063FFFFF80
0E000E0000
0E000E0000
0E0FFFFF00
1E0FFFFF00
1E0FFFFF00
1E000E0000
3E000E0000
3E7FFFFFE0
7E7FFFFFE0
6E7FFFFFE0
EE00000000
CE00000000
CE0FFFFF00
8E0FFFFF00
0E0FFFFF00
0E0E0E0700
0E0E0E0700
0E0E0E0700
0E0E0E0700
0E0E0E0700
0E0E0E0700
0E0E1F8700
0E0E3BE700
0E0079F000
0E00F07C00
0E07E01F00
0E3F800F80
0E3E0003C0
0E38000180
ENDCHAR
STARTCHAR  503C
ENCODING  20540
SWIDTH  1000 0
DWIDTH  36 0
BBX  35 33 0 1
BITMAP
01C0070000
01C0070000
01FFFFFFC0
03BFFFFFC0
03BFFFFFC0
0300070000
0700070000
0700070000
0E0FFFFF00
0E0FFFFF00
1E0FFFFF00
1E0E000700
3E0E000700
3E0FFFFF00
7E0FFFFF00
7E0FFFFF00
EE0E000700
4E0E000700
4E0FFFFF00
0E0FFFFF00
0E0FFFFF00
0E0E000700
0E0E000700
0E0E000700
0E0FFFFF00
0E0FFFFF00
0E0FFFFF00
0E0E000700
0E0E000700
0E7FFFFFE0
0E7FFFFFE0
0E7FFFFFE0
0E00000000
ENDCHAR
STARTCHAR  503E
ENCODING  20542
SWIDTH  1000 0
DWIDTH  36 0
BBX  35 35 1 0
BITMAP
0380000000
039C000000
039C7FFFE0
039C7FFFE0
039C7FFFE0
071C00E000
071C00E000
061C00E000
0E1C3FFFE0
0E1C3FFFE0
0E1FBFFFE0
1E1FB800E0
1E1FB800E0
3E1C3870E0
3E1C3870E0
3E1C3870E0
7E1C3870E0
EE1C3870E0
EE1C3870E0
CE1C3870E0
0E1C3870E0
0E1C3870E0
0E1C3870E0
0E1C3870E0
0E1CF870E0
0E1FF8F0E0
0E1FF9F0E0
0E3E01FC00
0E3C039E00
0E10078F00
0E000F0780
0E001E03C0
0E007C01E0
0E007000E0
0E00200040
ENDCHAR
STARTCHAR  5043
ENCODING  20547
SWIDTH  1000 0
DWIDTH  36 0
BBX  35 33 1 1
BITMAP
01DFFFFFE0
01DFFFFFE0
01DFFFFFE0
039C000000
039C3FFF00
039C3FFF00
071C3FFF00
071C380700
061C380700
0E1C3FFF00
0E1C3FFF00
1E1C3FFF00
1E1C380700
3E1C380700
3E1C3FFF00
7E1C3FFF00
EE1C3FFF00
EE1C070000
CE1DFFFFE0
0E1DFFFFE0
0E1DFFFFE0
0E1C1C1C00
0E1C3E1C00
0E1C0FF800
0E1C01F000
0E1C07FE00
0E1C7F9F80
0E1CFE0780
0E1CE00180
0E1C000000
0E1FFFFFE0
0E1FFFFFE0
0E1FFFFFE0
ENDCHAR
STARTCHAR  5047
ENCODING  20551
SWIDTH  1000 0
DWIDTH  36 0
BBX  35 35 1 0
BITMAP
0380000000
03BFF9FFC0
03BFF9FFC0
03BFF9FFC0
03B83801C0
07383801C0
07383801C0
07383801C0
0E383801C0
0E383801C0
1E383801C0
1E3FFBFFC0
1E3FFBFFC0
3E3FFBFFC0
3E38000000
7E38000000
6E3807FFC0
EE3FF7FFC0
CE3FF3FFC0
CE3FF38380
0E38018380
0E3801C380
0E3801C300
0E3800C700
0E3FF8E600
0E3FF8EE00
0E3FF87C00
0E38003800
0E38007C00
0E3800FE00
0E3803EF80
0E380F87E0
0E383F01E0
0E381C00C0
0E38100000
ENDCHAR
STARTCHAR  5048
ENCODING  20552
SWIDTH  1000 0
DWIDTH  36 0
BBX  34 33 1 1
BITMAP
01CFFFFF00
01CFFFFF00
01CFFFFF00
018E000700
038E000700
038FFFFF00
070FFFFF00
070FFFFF00
060E000700
0E0E000700
0E0FFFFF00
1E0FFFFF00
1E0FFFFF00
3E01000000
3E03800000
7E07000000
EE07FFFFC0
EE0FFFFFC0
CE1FFFFFC0
0E3C0701C0
0E780E01C0
0E771F81C0
0E273FC1C0
0E0779E1C0
0E07F079C0
0E07E031C0
0E07FFF1C0
0E07FFF1C0
0E07FFF3C0
0E000003C0
0E0001FF80
0E0001FF00
0E0001FE00
ENDCHAR
STARTCHAR  504C
ENCODING  20556
SWIDTH  1000 0
DWIDTH  36 0
BBX  35 35 0 0
BITMAP
01C0000000
01C0E03800
01C0E03800
0180E03800
0380E03800
03BFFFFFE0
033FFFFFE0
073FFFFFE0
0700E03800
0E00E43800
0E00EE3800
1E00EE3800
1E001C0000
1E7FFFFFE0
3E7FFFFFE0
7E7FFFFFE0
7E00700000
EE00E00000
4E01C00000
4E01C00000
0E03800000
0E07FFFF00
0E0FFFFF00
0E1FFFFF00
0E3F800700
0E7B800700
0E63800700
0E03800700
0E03800700
0E03800700
0E03FFFF00
0E03FFFF00
0E03FFFF00
0E03800700
0E00000000
ENDCHAR
STARTCHAR  504E
ENCODING  20558
SWIDTH  1000 0
DWIDTH  36 0
BBX  34 35 1 0
BITMAP
0380000000
039FFFFF00
039FFFFF00
031FFFFF00
071C0E0700
071C0E0700
061C0E0700
0E1FFFFF00
0E1FFFFF00
0E1FFFFF00
1E1C0E0700
1E1C0E0700
3E1C0E0700
3E1C0E0700
7E1FFFFF00
7E1FFFFF00
EE1FFFFF00
CE00000000
CE7FFFFFC0
8E7FFFFFC0
0E7FFFFFC0
0E1C1C0000
0E1C1C0300
0E1C0E0F00
0E1C061F00
0E1C073C00
0E1C03F800
0E1C01E000
0E1C18E000
0E1C787800
0E1DF03E00
0E1FC01FC0
0E1F8007C0
0E1E000180
0E18000000
ENDCHAR
STARTCHAR  504F
ENCODING  20559
SWIDTH  1000 0
DWIDTH  36 0
BBX  33 34 1 1
BITMAP
0100040000
03800E0000
03800E0000
0380070000
073FFFFF00
073FFFFF00
073FFFFF00
0E38000700
0E38000700
0E38000700
1E3FFFFF00
1E3FFFFF00
3E3FFFFF00
3E38000000
7E38000000
EE38000000
EE3BFFFF80
CE3BFFFF80
8E3BFFFF80
0E3B8E7380
0E3B8E7380
0E3B8E7380
0E3B8E7380
0E3BFFFF80
0E3BFFFF80
0E33FFFF80
0E738E7380
0E738E7380
0E738E7380
0EE38E7380
0EE38E7380
0FC38E7380
0FC38E7780
0E83800700
ENDCHAR
STARTCHAR  5055
ENCODING  20565
SWIDTH  1000 0
DWIDTH  36 0
BBX  35 34 0 1
BITMAP
01CE01C000
01CE01C000
018E01C1C0
038FF9C7C0
038FF9DF80
030FF9FC00
070E01F000
070E01C0C0
0F0E01C0E0
0F0E09C0E0
0F0E39C0E0
1F0EF9C0C0
1F0FF1FFC0
3F0FC0FFC0
770F1C7F00
770C1C0000
E7001C0000
E700180000
0707FFFF00
0707FFFF00
0707FFFF00
0707000700
0707000700
0707000700
0707FFFF00
0707FFFF00
0707FFFF00
0707000700
0707000700
0707000700
0707FFFF00
0707FFFF00
0707FFFF00
0707000700
ENDCHAR
STARTCHAR  505A
ENCODING  20570
SWIDTH  1000 0
DWIDTH  36 0
BBX  35 35 0 0
BITMAP
01C0003800
01C3803800
0383803800
0383807000
0383807000
0303807000
0703807FE0
077FFEFFE0
0F7FFEFFE0
0F7FFEC1C0
0F0381C1C0
1F0381C380
1F0383C380
3F0383C380
3F0387C380
770387E380
670386E380
E73FFAE380
C73FF8E380
073FF8E700
0738387700
0738383600
0738383E00
0738383E00
0738381C00
0738381C00
0738383E00
073FF87E00
073FF87700
073FF8E380
070001C3C0
070007C1E0
07000F80E0
0700070040
0000020000
ENDCHAR
STARTCHAR  505C
ENCODING  20572
SWIDTH  1000 0
DWIDTH  36 0
BBX  35 34 0 1
BITMAP
01C00C0000
01C00E0000
01C00E0000
01DFFFFFC0
039FFFFFC0
039FFFFFC0
0380000000
0700000000
0707FFFE00
0707FFFE00
0F07FFFE00
0F07000E00
1F07000E00
1F07FFFE00
3F07FFFE00
3707FFFE00
7700000000
E700000000
E73FFFFFE0
C73FFFFFE0
073FFFFFE0
07380000E0
07380000E0
0707FFFF00
0707FFFF00
0707FFFF00
0700038000
0700038000
0700038000
0700038000
0700038000
0700FF0000
0700FF0000
0700FE0000
ENDCHAR
STARTCHAR  5065
ENCODING  20581
SWIDTH  1000 0
DWIDTH  36 0
BBX  35 35 1 0
BITMAP
018001C000
018001C000
038001C000
03BF9FFF00
03BF9FFF00
033F9FFF00
070381C700
070701C700
06077FFFE0
0E0E7FFFE0
0E0E7FFFE0
0E1C01C700
1E3801C700
1E3801C700
3E7F9FFF00
3E7F9FFF00
7E7F9FFF00
EE0381C000
EE0381C000
8E73BFFF00
0E73BFFF00
0E73BFFF00
0E7701C000
0E3F01C000
0E3F7FFF80
0E3E7FFF80
0E1E7FFF80
0E0E01C000
0E1F01C000
0E1FC1C000
0E3BF00000
0E70FFFFE0
0EF03FFFE0
0EE00FFFE0
0E40000000
ENDCHAR
STARTCHAR  506C
ENCODING  20588
SWIDTH  1000 0
DWIDTH  36 0
BBX  35 34 0 0
BITMAP
01C1C00000
01C1C00000
01C3800000
0383FFFFC0
0387FFFFC0
030FFFFFC0
070E1C71C0
071C1C71C0
0E383871C0
0E73F0E1C0
0E73F0E1C0
1E20FDC1C0
1E01FF81C0
3E038FE1C0
7E0F07F1C0
7E1E0E23C0
EE3C1C03C0
CE1838FF80
4E00F0FF00
0E00E07E00
0E00400000
0E001C0000
0E000E0100
0E19CE0700
0E39C70380
0E39C39F80
0E31C31DC0
0E71C01DC0
0E71C01CE0
0EE1C038E0
0EE1FFF840
0E00FFF000
0E007FE000
0E00000000
ENDCHAR
STARTCHAR  5076
ENCODING  20598
SWIDTH  1000 0
DWIDTH  36 0
BBX  33 35 1 0
BITMAP
0180000000
0180000000
038FFFFE00
038FFFFE00
030FFFFE00
070E0E0E00
070E0E0E00
0E0FFFFE00
0E0FFFFE00
0E0FFFFE00
1E0E0E0E00
1E0E0E0E00
3E0E0E0E00
3E0FFFFE00
7E0FFFFE00
6E0FFFFE00
EE000E0000
CE000E0000
CE3FFFFF80
0E3FFFFF80
0E3FFFFF80
0E380E0380
0E380E2380
0E380E7380
0E380E3380
0E380E3B80
0E3BFFFB80
0E3BFFFB80
0E3BFFFB80
0E38001B80
0E38000380
0E38000380
0E38007F80
0E38007F80
0E38007F00
ENDCHAR
STARTCHAR  5077
ENCODING  20599
SWIDTH  1000 0
DWIDTH  36 0
BBX  34 35 1 0
BITMAP
01C00E0000
01C01E0000
03801F0000
03803B8000
0380738000
0700E1E000
0701E0F000
0603C07800
0E0F003E00
0E1FFFFF00
1E7DFFEFC0
1EF9FFE3C0
3EF00001C0
3E40000000
7E3FF9C700
7E3FF9C700
EE3FF9C700
CE3839C700
CE3839C700
0E3FF9C700
0E3FF9C700
0E3FF9C700
0E3839C700
0E3839C700
0E3839C700
0E3FF9C700
0E3FF9C700
0E3FF9C700
0E38380700
0E38380700
0E38380700
0E3839FF00
0E3BF9FE00
0E3BF9FC00
0E3BF00000
ENDCHAR
STARTCHAR  507B
ENCODING  20603
SWIDTH  1000 0
DWIDTH  36 0
BBX  35 35 0 0
BITMAP
01C00E0000
01C00E0000
01CE0E0700
038F0E0700
03878E0E00
0303CE1C00
0701CE1C00
073FFFFFC0
063FFFFFC0
0E3FFFFFC0
0E003F8000
1E007FC000
1E00EEF000
3E03CE7C00
3E0F8E1F80
7E3E0E0FE0
6E7C0E03E0
EE702E00E0
CE00700000
CE00700000
0E3FFFFFE0
0E3FFFFFE0
0E3FFFFFE0
0E03803800
0E07007000
0E0F80F000
0E07E1E000
0E00FFC000
0E003F8000
0E001FE000
0E00FDFC00
0E0FF07F00
0E7FC01F80
0E7E000380
0E60000000
ENDCHAR
STARTCHAR  507E
ENCODING  20606
SWIDTH  1000 0
DWIDTH  36 0
BBX  35 35 1 0
BITMAP
03801C0000
03801C0000
03801C0000
073FFFFF00
073FFFFF00
073FFFFF00
06001C0000
0E001C0000
0E071C3800
0E07003800
1E7FFFFFE0
1E7FFFFFE0
3E7FFFFFE0
3E07003800
7E07003800
6E07003800
EE00000000
CE1FFFFF00
CE1FFFFF00
8E1FFFFF00
0E1C000700
0E1C0E0700
0E1C0E0700
0E1C0E0700
0E1C0E0700
0E1C0E0700
0E1C1E0700
0E1C1F0700
0E1C3FC700
0E0079F000
0E01F07C00
0E07E03E00
0E7F800F80
0E7E0007C0
0E700001C0
ENDCHAR
STARTCHAR  507F
ENCODING  20607
SWIDTH  1000 0
DWIDTH  36 0
BBX  34 35 1 0
BITMAP
01000E0000
01800E0000
03840E0600
038E0E0F00
03070E0E00
07038E1C00
07018E3800
0E010E1000
0E000E0000
0E7FFFFFC0
1E7FFFFFC0
1E7FFFFFC0
3E700001C0
3E700001C0
7E73FFFDC0
FE03FFFC00
EE03FFFC00
CE00000000
CE00000000
8E00000000
0E00000000
0E7FFFFF80
0E7FFFFF80
0E7FFFFF80
0E00700000
0E00F02000
0E01E0F000
0E01C07800
0E03803800
0E07001C00
0E1FFFFE00
0E3FFFFF00
0E3FFFFF80
0E00000180
0E00000000
ENDCHAR
STARTCHAR  5080
ENCODING  20608
SWIDTH  1000 0
DWIDTH  36 0
BBX  35 35 0 0
BITMAP
00C01C0000
01C01C0000
01C01C0000
01DFFFFF00
039FFFFF00
039FFFFF00
039C0E0700
071C0E0700
071C0E0700
071C0E0700
0F1FFFFF00
0F1FFFFF00
1F1FFFFF00
1F1C0E0700
3F1C0E0700
771C0E0700
771C0E0700
E71FFFFF00
C71FFFFF00
C71FFFFF00
07001C0000
07003B3800
07003F3800
07007F7000
0700777700
0700F7E380
0701E7FFE0
0701C7FFE0
07038701E0
07078700E0
070F0780E0
073E07FFC0
077C03FFC0
073801FF00
0700000000
ENDCHAR
STARTCHAR  5085
ENCODING  20613
SWIDTH  1000 0
DWIDTH  36 0
BBX  34 35 1 0
BITMAP
03000E2000
03800E7800
03800E3C00
037FFFFFC0
077FFFFFC0
077FFFFFC0
06000E0000
0E000E0000
0E1FFFFF00
0E1FFFFF00
1E1FFFFF00
1E1C0E0700
3E1C0E0700
3E1FFFFF00
7E1FFFFF00
6E1FFFFF00
EE1C0E0700
CE1C0E0700
CE1FFFFF00
8E1FFFFF00
0E1FFFFF00
0E1C0E0700
0E1C003800
0E00003800
0EFFFFFFC0
0EFFFFFFC0
0EFFFFFFC0
0E07003800
0E07803800
0E03C03800
0E00C03800
0E00007800
0E000FF800
0E000FF000
0E000FE000
ENDCHAR
STARTCHAR  5088
ENCODING  20616
SWIDTH  1000 0
DWIDTH  36 0
BBX  35 35 0 0
BITMAP
01C0000000
01C0000000
01BFFFFFC0
01BFFFFFC0
03BFFFFFC0
038070E000
030070E000
073FFFFFC0
073FFFFFC0
073FFFFFC0
0F3870E1C0
0F3870E1C0
1F3870E1C0
1F3870E1C0
3F3870E1C0
373FFFFFC0
773FFFFFC0
E73FFFFFC0
6700070000
4700070000
0700070000
077FFFFFE0
077FFFFFE0
077FFFFFE0
070037E000
0700677000
0700E73800
0701C71E00
0707870F00
070F0707C0
073E0703E0
07FC0700E0
0770070040
0720070000
0700070000
ENDCHAR
STARTCHAR  508D
ENCODING  20621
SWIDTH  1000 0
DWIDTH  36 0
BBX  34 35 1 0
BITMAP
03800C0000
03801C0000
03800E0000
071FFFFF80
071FFFFF80
061FFFFF80
0E00000000
0E01803800
0E01C07800
1E01C07000
1E00E0E000
1E3FFFFFC0
3E3FFFFFC0
3E3FFFFFC0
7E380C01C0
6E380E01C0
EE00070000
CE7FFFFFC0
CE7FFFFFC0
8E7FFFFFC0
0E01C00000
0E01C00000
0E01FFFE00
0E01FFFE00
0E01FFFE00
0E01C00E00
0E03800E00
0E03800E00
0E07000E00
0E0F000E00
0E1E001E00
0E3C1FFE00
0E7C1FFC00
0E700FF800
0E20000000
ENDCHAR
STARTCHAR  50A3
ENCODING  20643
SWIDTH  1000 0
DWIDTH  36 0
BBX  35 35 0 0
BITMAP
01C00E0000
01C00E0000
01800E0000
03BFFFFF80
03BFFFFF80
033FFFFF80
07001C0000
07001C0000
061FFFFF00
0E1FFFFF00
0E1FFFFF00
1E00380000
1E00700000
3E00700000
3E7FFFFFE0
7E7FFFFFE0
7E7FFFFFE0
EE03807000
CE07803800
CE0F0E1C00
0E1E0E1F00
0E3E0E1FC0
0EFF8E7FE0
0EE3EFF1C0
0E40EEE040
0E006E0000
0E000E8000
0E01EEF000
0E0FEEFC00
0E7F0E3F80
0E780E0780
0E200E0180
0E01FC0000
0E01FC0000
0E00600000
ENDCHAR
STARTCHAR  50A5
ENCODING  20645
SWIDTH  1000 0
DWIDTH  36 0
BBX  34 34 1 0
BITMAP
01800E0000
038C0E0600
039E0E0F00
030F0E1E00
07038E7C00
07010E3000
0E000E0000
0E7FFFFFC0
0E7FFFFFC0
1E7FFFFFC0
1E700001C0
3E700001C0
3E7FFFFFC0
7E0FFFFE00
FE0FFFFE00
EE0E000E00
CE0E000E00
CE0E000E00
8E0E000E00
0E0E000E00
0E0FFFFE00
0E0FFFFE00
0E0FFFFE00
0E0E71CE00
0E0071C180
0E00E1C1C0
0E00E1C1C0
0E01C1C1C0
0E03C1C1C0
0E0781C1C0
0E1F01FF80
0EFC00FF80
0E78007F00
0E20000000
ENDCHAR
STARTCHAR  50A7
ENCODING  20647
SWIDTH  1000 0
DWIDTH  36 0
BBX  35 34 0 1
BITMAP
01C00C0000
01C00E0000
0380070000
0380070000
03BFFFFFE0
033FFFFFE0
073FFFFFE0
07380000E0
0F380000E0
0F3803FEE0
0F07FFFE00
1F07FFFE00
1F07FC0000
3F07000000
3F07000000
7707FFFF80
F707FFFF80
E707FFFF80
C70700E000
070700E000
070700E000
070700E000
070700E000
077FFFFFE0
077FFFFFE0
077FFFFFE0
0700000000
0700200000
0700E07000
0703F07C00
070FC01F00
073F000FC0
073E0003E0
07380000C0
ENDCHAR
STARTCHAR  50A8
ENCODING  20648
SWIDTH  1000 0
DWIDTH  36 0
BBX  35 34 0 1
BITMAP
0300038000
0380038000
03B8038000
039C038080
031C7FF8C0
070E7FF9C0
070E7FFBC0
0707038380
0F06038700
0F00038F00
1F00039E00
1FFCFFFFE0
1FFCFFFFE0
3FFCFFFFE0
371C01E000
771C03C000
E71C078000
671C1FFF80
471C3FFF80
471CFFFF80
071DFE0380
071CCE0380
071C0E0380
071C0FFF80
071C0FFF80
071C0FFF80
071DCFFF80
071FCE0380
071F8E0380
071F0E0380
071C0FFF80
07180FFF80
07000FFF80
07000C0180
ENDCHAR
STARTCHAR  50A9
ENCODING  20649
SWIDTH  1000 0
DWIDTH  36 0
BBX  35 35 0 0
BITMAP
0380033000
0380033000
0700073800
0700071C00
07FF861C00
06FF8E0C00
0EFF8E0000
0E039FFFE0
0E039FFFE0
1E03BFFFE0
1F83BC3800
1FC3FC3800
3EC3FC3800
3EE7FC3800
7E67DFFFC0
6E775FFFC0
EE371FFFC0
CE3E1C3800
CE3E1C3800
0E1C1C3800
0E1C1C3800
0E1C1FFFC0
0E1E1FFFC0
0E3E1FFFC0
0E371C3800
0E771C3800
0E739C3800
0EE39C3800
0EE1DC3800
0FC1DFFFE0
0F801FFFE0
0F801FFFE0
0E001C0000
0E001C0000
00001C0000
ENDCHAR
STARTCHAR  50AC
ENCODING  20652
SWIDTH  1000 0
DWIDTH  36 0
BBX  35 35 0 0
BITMAP
01C0038000
01C70381C0
01C70381C0
01C70381C0
03870381C0
03870381C0
0307FFFFC0
0707FFFFC0
0707FFFFC0
0F01C301C0
0F01C38000
1F0381C000
1F0380E000
3F07FFFFE0
3F07FFFFE0
770FFFFFE0
771F01C000
E71F01C000
C73FFFFFC0
C777FFFFC0
0777FFFFC0
076701C000
070701C000
070701C000
0707FFFFC0
0707FFFFC0
0707FFFFC0
070701C000
070701C000
070701C000
0707FFFFE0
0707FFFFE0
0707FFFFE0
0707000000
0707000000
ENDCHAR
STARTCHAR  50B2
ENCODING  20658
SWIDTH  1000 0
DWIDTH  36 0
BBX  36 35 0 0
BITMAP
01C3803800
01C3803800
0383803800
0383807000
03FFFC7000
077FFC7000
077FFC7000
060380FFF0
0E0380FFF0
0E3FF8FFF0
1E3FF9C1C0
1E3FF9C1C0
3E0383C1C0
3E0383C1C0
7EFFFFC1C0
7EFFFEC1C0
EEFFFCE180
EE0E00E380
CE0E00E380
CE0E00E380
0E0FFCF380
0E0FFC7700
0E0FFC7700
0E1C1C7E00
0E1C1C3E00
0E181C1C00
0E181C1C00
0E381C3E00
0E381C3F00
0E301C7380
0E73FCE3C0
0EF3F9C1E0
0EE3F780E0
0EC0030060
0E40000000
ENDCHAR
STARTCHAR  50BB
ENCODING  20667
SWIDTH  1000 0
DWIDTH  36 0
BBX  34 35 1 0
BITMAP
00C01C0000
01C0380000
01C0380000
019FFFFF80
039FFFFF80
039FFFFF80
071CE06380
071C79E380
061C3FC380
0E1C0F0380
1E1C1FC380
1E1C7DE380
3E1CF07380
3E1CE02380
7E1FFFFF80
FE1FFFFF80
EE1FFFFF80
CE01803000
CE03C07E00
0E0F001F00
0E3E3007C0
0E787001C0
0E70FFFCC0
0E03FFFC00
0E07FFFC00
0E0FE03800
0E3EF07000
0E3879E000
0E303FC000
0E001F8000
0E007FE000
0E07F9FC00
0E7FE07FC0
0E7F000FC0
0060000000
ENDCHAR
STARTCHAR  50CF
ENCODING  20687
SWIDTH  1000 0
DWIDTH  36 0
BBX  34 35 1 0
BITMAP
01C0F00000
01C0F00000
0381E00000
0383FFF000
0387FFF000
070F00E000
071E01C000
0E3FFFFF80
0EFFFFFF80
0EFFFFFF80
1EDC070380
1E1C070380
3E1C0E0380
3E1C0E0380
7E1FFFFF80
EE1FFFFF80
EE1FFFFF80
CE01F80300
CE03DC0F00
8E1F1E1E00
0E7E3E7C00
0EF87FF000
0E61E7F000
0E03C7B800
0E0F8F9800
0E7E1F9C00
0EF83B8E00
0E60F38E00
0E03E38780
0E0F8383C0
0E3F0383C0
0EFDFF0180
0E71FF0000
0E00FE0000
0E00000000
ENDCHAR
STARTCHAR  50D6
ENCODING  20694
SWIDTH  1000 0
DWIDTH  36 0
BBX  34 34 1 1
BITMAP
01C0070000
01C0070000
01C0070000
03BFFFFFC0
03BFFFFFC0
03BFFFFFC0
0700070000
0700070000
0E1FFFFF80
0E1FFFFF80
1E1FFFFF80
1E00000000
3E0FFFFF00
7E0FFFFF00
7E0FFFFF00
FE0E000700
EE0FFFFF00
CE0FFFFF00
CE0FFFFF00
0E01C01C00
0E01E03800
0E00E03800
0E7FFFFFC0
0E7FFFFFC0
0E7FFFFFC0
0E00000000
0E1FFFFF80
0E1FFFFF80
0E1FFFFF80
0E1C000380
0E1C000380
0E1FFFFF80
0E1FFFFF80
0E1FFFFF80
ENDCHAR
STARTCHAR  50DA
ENCODING  20698
SWIDTH  1000 0
DWIDTH  36 0
BBX  35 35 0 0
BITMAP
00000E0000
00E00E0000
01C00E0000
01CFFFFFC0
01DFFFFFC0
039FFFFFC0
03801F8000
071C3B8180
071E3BC780
0F07F1EF00
0F03E07E00
1F01C03800
1F07801C00
3F0FFFFF80
3F3FFFFFE0
777FFFFFE0
E76E000E60
E70E000E00
470FFFFE00
070FFFFE00
070FFFFE00
070E000E00
070E000E00
070FFFFE00
070FFFFE00
070FFFFE00
07030E0000
07070E3800
07070E3E00
070E0E0F00
073C0E0780
07780E03C0
0771FE01C0
0761FE00C0
0701FC0000
ENDCHAR
STARTCHAR  50E7
ENCODING  20711
SWIDTH  1000 0
DWIDTH  36 0
BBX  33 35 1 0
BITMAP
0002000000
0387003800
0387807800
0383C07000
0701C0E000
0700C1C000
077FFFFF80
0E7FFFFF80
0E7FFFFF80
1C770E3380
1C778E7380
3C73CEF380
3C71CEE380
7C70CEC380
FC700E0380
FC7FFFFF80
FC7FFFFF80
DC7FFFFF80
9C00000000
1C1FFFFC00
1C1FFFFC00
1C1FFFFC00
1C1C001C00
1C1C001C00
1C1C001C00
1C1FFFFC00
1C1FFFFC00
1C1FFFFC00
1C1C001C00
1C1C001C00
1C1C001C00
1C1FFFFC00
1C1FFFFC00
1C1FFFFC00
1C1C001C00
ENDCHAR
STARTCHAR  50EC
ENCODING  20716
SWIDTH  1000 0
DWIDTH  36 0
BBX  35 35 0 0
BITMAP
00C0C10000
00C1C38000
01C1C1C000
01C381C000
0183FFFFE0
0387FFFFE0
038FFFFFE0
070F01C000
071F01C000
0F3F01C000
0F3FFFFF80
1F77FFFF80
1F67FFFF80
3F2701C000
3F0701C000
770701C000
E707FFFF80
E707FFFF80
4707FFFF80
070701C000
070701C000
070701C000
0707FFFFE0
0707FFFFE0
0707FFFFE0
0707000000
0700000000
0704104380
070E38E180
070E3861C0
071C1870C0
071C1C70E0
07381C30E0
0738182040
0700000000
ENDCHAR
STARTCHAR  50ED
ENCODING  20717
SWIDTH  1000 0
DWIDTH  36 0
BBX  35 35 0 0
BITMAP
00C0000000
00DFF9FFC0
01DFF9FFC0
01DFF9FFC0
0181C01C00
0399C39C00
03B9C39C00
0739C39C00
073FFBFFC0
0F3FFBFFC0
0F3FFBFFC0
1F03803C00
1F07E03C00
3F07E07CC0
3F0EECFCE0
770EFDFCE0
F71CFFDFE0
E7387B9FE0
C770030FC0
0700000000
070FFFFF80
070FFFFF80
070FFFFF80
070E000380
070E000380
070FFFFF80
070FFFFF80
070FFFFF80
070E000380
070E000380
070E000380
070FFFFF80
070FFFFF80
070FFFFF80
070E000380
ENDCHAR
STARTCHAR  50F3
ENCODING  20723
SWIDTH  1000 0
DWIDTH  36 0
BBX  35 35 0 0
BITMAP
0180000000
01DFFFFFC0
01DFFFFFC0
01DFFFFFC0
038070E000
038070E000
038070E000
070070E000
073FFFFFC0
0F3FFFFFC0
0F3FFFFFC0
0F3870E1C0
1F3870E1C0
1F3870E1C0
3F3FFFFFC0
373FFFFFC0
773FFFFFC0
E7040E0200
E70F0E0700
C7078E0F00
0703CE1C00
0700CE3800
077FFFFFE0
077FFFFFE0
077FFFFFE0
07001F8000
07003FC000
07007EF000
0701EE7800
07078E3E00
071F0E0FC0
077C0E03E0
07780E00E0
07000E0000
07000E0000
ENDCHAR
STARTCHAR  50F5
ENCODING  20725
SWIDTH  1000 0
DWIDTH  36 0
BBX  35 34 1 0
BITMAP
01BFFFFFE0
03BFFFFFE0
03BFFFFFE0
0300000000
031FFFFF00
071FFFFF00
071FFFFF00
061C0E0700
0E1FFFFF00
0E1FFFFF00
1E1C0E0700
1E1FFFFF00
3E1FFFFF00
3E1FFFFF00
7E00000000
FEFFFFFFE0
EEFFFFFFE0
CEFFFFFFE0
0E00000000
0E1FFFFF00
0E1FFFFF00
0E1FFFFF00
0E1C0E0700
0E1FFFFF00
0E1FFFFF00
0E1FFFFF00
0E1C0E0700
0E1FFFFF00
0E1FFFFF00
0E1FFFFF00
0E00000000
0EFFFFFFE0
0EFFFFFFE0
0EFFFFFFE0
ENDCHAR
STARTCHAR  50FB
ENCODING  20731
SWIDTH  1000 0
DWIDTH  36 0
BBX  35 35 0 0
BITMAP
0180003800
0180001800
03BFF81C00
03BFF81C00
033FFBFFC0
03383BFFC0
07383BFFC0
0738380000
0E383981C0
0E3839C1C0
0E3838C180
1E3FF8E380
1E3FF87300
3E3FF87700
3E3807FFE0
7E3807FFE0
FE3807FFE0
EE38001C00
CE38001C00
CE3FF81C00
0E3FF81C00
0E7FF81C00
0E7E381C00
0E7E3BFFC0
0EEE3BFFC0
0EEE3BFFC0
0EEE381C00
0FCE381C00
0FCE381C00
0E8FF81C00
0E0FF81C00
0E0FF81C00
0E0E181C00
0E00001C00
0E00001C00
ENDCHAR
STARTCHAR  5106
ENCODING  20742
SWIDTH  1000 0
DWIDTH  36 0
BBX  35 35 0 0
BITMAP
031C703000
071C703000
071C707000
07FFFE7000
06FFFE6000
0EFFFE6000
0E1C70E000
0C1C70FFE0
0C1C70FFE0
1C0001FFE0
1C3801C1C0
3C3801C1C0
3C7FFBC1C0
3C7FFBC1C0
7C7FFBC1C0
7CE039C1C0
FCC039C380
DDFFB8E380
DDFFB8E380
1CFFB8E380
1C73B8E700
1C73B87700
1C73B83600
1C73B83E00
1C73B83C00
1C73B81C00
1C7FB83C00
1C7FB83E00
1C7FB87700
1C0038E780
1C0079E3C0
1C07FBC1E0
1C07F780E0
1C07F70060
1C00000000
ENDCHAR
STARTCHAR  510B
ENCODING  20747
SWIDTH  1000 0
DWIDTH  36 0
BBX  35 35 0 0
BITMAP
00C0E00000
00C1C00000
01C1FFF800
01C3FFF800
01877FF800
038E007000
039C00E000
077FFFFFE0
073FFFFFE0
063FFFFFE0
0E38381C00
1E38799F00
1E39E1C7C0
3E39C1C180
3E3FFFFFE0
763FFFFFE0
F63FFFFFE0
6638000000
4638FFFF80
0638FFFF80
0638FFFF80
0638000000
0638FFFF80
0638FFFF80
0638FFFF80
0638000000
0671FFFFC0
0671FFFFC0
0671FFFFC0
0671C001C0
06E1C001C0
06E1FFFFC0
06E1FFFFC0
06C1FFFFC0
06C0000000
ENDCHAR
STARTCHAR  5112
ENCODING  20754
SWIDTH  1000 0
DWIDTH  36 0
BBX  34 34 1 1
BITMAP
0180000000
019FFFFF00
039FFFFF00
039FFFFF00
03000E0000
077FFFFFC0
077FFFFFC0
067FFFFFC0
0E700E01C0
0E77EEFDC0
1E77EEFDC0
1E77EEFDC0
3E000E0000
3E0FEEFE00
7E0FEEFE00
7E0FEEFE00
EE00000000
EE7FFFFFC0
CE7FFFFFC0
8E7FFFFFC0
0E001C0000
0E001C0000
0E3FFFFF80
0E3FFFFF80
0E3FFFFF80
0E3871C380
0E3871C380
0E3871C380
0E3871C380
0E3871C380
0E3871C380
0E3871DF80
0E3871DF80
0E38001F00
ENDCHAR
STARTCHAR  5121
ENCODING  20769
SWIDTH  1000 0
DWIDTH  36 0
BBX  34 35 0 0
BITMAP
01C0000000
01C0000000
01FFFFFE00
03BFFFFE00
03BFFFFE00
03381C0E00
07381C0E00
073FFFFE00
063FFFFE00
0E381C0E00
0E381C0E00
1E381C0E00
1E381C0E00
3E3FFFFE00
3E3FFFFE00
7E3FFFFE00
EE00000000
EE00000000
CEFFFBFFC0
CEFFFBFFC0
0EFFFBB9C0
0EE73BB9C0
0EE73BB9C0
0EE73BB9C0
0EFFFBFFC0
0EFFFBFFC0
0EFFFBFFC0
0EE73BB9C0
0EE73BB9C0
0EE73BB9C0
0EFFFBFFC0
0EFFFBFFC0
0EFFFBFFC0
0E00000000
0E00000000
ENDCHAR
STARTCHAR  513F
ENCODING  20799
SWIDTH  1000 0
DWIDTH  36 0
BBX  37 34 0 0
BITMAP
0038070000
0038070000
0038070000
0038070000
0038070000
0038070000
0038070000
0038070000
0038070000
0038070000
0038070000
0038070000
0038070000
0038070000
0038070000
0038070000
0038070000
0038070000
0038070000
0078070000
0070070000
0070070070
0070070070
00F0070070
01E0070070
01E0070070
03C00700F0
07800700E0
0F800700E0
1F000781E0
3E0003FFE0
7C0003FFC0
380000FF00
0000000000
ENDCHAR
STARTCHAR  5140
ENCODING  20800
SWIDTH  1000 0
DWIDTH  36 0
BBX  36 33 0 -1
BITMAP
7FFFFFFFE0
7FFFFFFFE0
7FFFFFFFE0
0038070000
0038070000
0038070000
0038070000
0038070000
0038070000
0038070000
0038070000
0038070000
0038070000
0038070000
0038070000
0038070000
0038070000
0078070000
0070070000
0070070000
00700700E0
00F00700E0
00E00700E0
01E00700E0
03C00700E0
07C00700E0
07800700E0
1F000781E0
3E0007FFC0
7C0003FF80
780000FF00
3000000000
0000000000
ENDCHAR
STARTCHAR  5141
ENCODING  20801
SWIDTH  1000 0
DWIDTH  36 0
BBX  34 33 1 2
BITMAP
0007800000
0007000000
000F000000
001E000000
003C000000
0078018000
00F003C000
01E001E000
03C000F000
0780007800
0F00003C00
1E00001C00
3FFFFFFE00
3FFFFFFF00
3FFFFFFF80
00381C0380
00381C0100
00381C0000
00381C0000
00381C0000
00381C0000
00701C0000
00701C0000
00701C0100
00E01C01C0
01E01C01C0
01C01C01C0
03C01C01C0
0F801C01C0
3F001E03C0
FE000FFF80
F8000FFF00
F00001F800
ENDCHAR
STARTCHAR  5143
ENCODING  20803
SWIDTH  1000 0
DWIDTH  36 0
BBX  36 33 0 0
BITMAP
07FFFFFF00
07FFFFFF00
07FFFFFF00
0000000000
0000000000
0000000000
0000000000
0000000000
0000000000
0000000000
7FFFFFFFE0
7FFFFFFFE0
7FFFFFFFE0
001C070000
001C070000
001C070000
001C070000
001C070000
001C070000
001C070000
0038070000
0038070000
0038070070
0078070060
00F00700E0
00F00700E0
01E00700E0
07C00700E0
0F800781E0
3F0007FFC0
7C0003FF80
3800007C00
0000000000
ENDCHAR
STARTCHAR  5144
ENCODING  20804
SWIDTH  1000 0
DWIDTH  36 0
BBX  36 34 0 0
BITMAP
07FFFFFE00
07FFFFFE00
07FFFFFE00
0700000E00
0700000E00
0700000E00
0700000E00
0700000E00
0700000E00
0700000E00
0700000E00
0700000E00
0700000E00
0700000E00
07FFFFFE00
07FFFFFE00
07FFFFFE00
070E070E00
000E070000
000E070000
000E070000
000E070000
001C070000
001C0700E0
001C0700E0
00380700E0
00780700E0
00F00700E0
01E00700E0
07C00701E0
1F8007FFC0
7F0003FFC0
3C00000000
2000000000
ENDCHAR
STARTCHAR  5145
ENCODING  20805
SWIDTH  1000 0
DWIDTH  36 0
BBX  34 34 1 1
BITMAP
0000C00000
0001C00000
0001E00000
0000E00000
0000600000
FFFFFFFFC0
FFFFFFFFC0
FFFFFFFFC0
000F000000
001E000000
003C038000
007803C000
00F001E000
01E000F000
03C0007800
0780003800
1FFFFFFC00
1FFFFFFE00
1FFFFFFF00
001C0E0700
001C0E0000
001C0E0000
003C0E0000
00380E0000
00380E0000
00780E01C0
00F00E01C0
00F00E01C0
03E00E01C0
07C00F03C0
1F800FFFC0
FE000FFF80
FC0007FF80
6000000000
ENDCHAR
STARTCHAR  5146
ENCODING  20806
SWIDTH  1000 0
DWIDTH  36 0
BBX  36 36 0 0
BITMAP
0000000000
001C1C0000
001C1C0000
001C1C0000
001C1C0000
001C1C0000
001C1C0200
381C1C0700
3C1C1C1F00
1E1C1C3E00
0F1C1C7C00
079C1CF000
03DC1DE000
019C1CC000
001C1C0000
001C1C0000
001C1C0000
007C1F0000
00FC1FC000
03FC1FF000
0FDC1CFC00
3F1C1C7E00
7C381C1E00
38381C0600
20381C00C0
00781C00E0
00701C00E0
00F01C00E0
01E01C00E0
03C01C00C0
0F801E01C0
1F000FFFC0
7E000FFF80
7C0003FF00
3000000000
0000000000
ENDCHAR
STARTCHAR  5148
ENCODING  20808
SWIDTH  1000 0
DWIDTH  36 0
BBX  36 34 0 1
BITMAP
0000700000
00E0700000
00E0700000
00C0700000
01C0700000
01C0700000
03FFFFFF80
03FFFFFF80
07FFFFFF80
0700700000
0E00700000
1E00700000
1C00700000
1C00700000
0800700000
0000700000
7FFFFFFFE0
7FFFFFFFE0
7FFFFFFFE0
001C070000
001C070000
001C070000
001C070000
0038070000
0038070000
0038070070
0078070070
00F0070070
01E0070070
03E0070070
0FC00700E0
3F0007FFE0
FE0003FFE0
780001FF80
ENDCHAR
STARTCHAR  5149
ENCODING  20809
SWIDTH  1000 0
DWIDTH  36 0
BBX  36 35 0 0
BITMAP
0000E00000
0000E00000
0000E00000
0400E00200
0E00E00700
0F00E00F00
0780E01E00
03C0E01C00
01C0E03C00
01E0E07800
00F0E0F000
0070E0E000
0000E04000
0000E00000
0000E00000
7FFFFFFFE0
7FFFFFFFE0
7FFFFFFFE0
001C070000
001C070000
001C070000
001C070000
001C070000
0038070000
0038070000
0038070060
0070070070
00F0070070
01E00700E0
03E00700E0
07C00700E0
1F8007C3E0
FE0003FFC0
780001FF80
2000000000
ENDCHAR
STARTCHAR  514B
ENCODING  20811
SWIDTH  1000 0
DWIDTH  36 0
BBX  34 35 1 0
BITMAP
0000E00000
0000E00000
0000E00000
0000E00000
FFFFFFFFC0
FFFFFFFFC0
FFFFFFFFC0
0000E00000
0000E00000
0000E00000
0FFFFFFC00
0FFFFFFC00
0FFFFFFC00
0E00001C00
0E00001C00
0E00001C00
0E00001C00
0E00001C00
0E00001C00
0E00001C00
0FFFFFFC00
0FFFFFFC00
0FFFFFFC00
001C0E0000
001C0E0000
001C0E0000
003C0E01C0
00380E01C0
00780E01C0
00F00E01C0
03E00E01C0
1FC00FFFC0
FF0007FF80
FC0003FF00
6000000000
ENDCHAR
STARTCHAR  514D
ENCODING  20813
SWIDTH  1000 0
DWIDTH  36 0
BBX  35 35 1 0
BITMAP
0018000000
0038000000
0078000000
0070000000
00FFFFC000
01FFFFC000
03FFFFC000
0780078000
0F000F0000
1E001E0000
3FFFFFFE00
FFFFFFFE00
FFFFFFFE00
EE01C00E00
0E01C00E00
0E01C00E00
0E01C00E00
0E01C00E00
0E03800E00
0FFFFFFE00
0FFFFFFE00
0FFFFFFE00
0E07000E00
000F000000
000E7000E0
001E7000E0
003C7000E0
00787000E0
00F07000E0
03E07000E0
07C07001C0
1F807FFFC0
FE003FFF80
7C001FFF00
6000000000
ENDCHAR
STARTCHAR  5151
ENCODING  20817
SWIDTH  1000 0
DWIDTH  36 0
BBX  34 35 1 0
BITMAP
00C0010000
01E003C000
00F0038000
0070070000
00380F0000
00300E0000
1FFFFFFC00
1FFFFFFC00
1FFFFFFC00
1C00001C00
1C00001C00
1C00001C00
1C00001C00
1C00001C00
1C00001C00
1C00001C00
1C00001C00
1FFFFFFC00
1FFFFFFC00
1FFFFFFC00
1C381C1C00
00381C0000
00381C0000
00381C0000
00381C0000
00701C0180
00701C01C0
00F01C01C0
01E01C01C0
03C01C01C0
0F801C0380
3F001F0F80
FC000FFF80
F00007FE00
4000000000
ENDCHAR
STARTCHAR  5154
ENCODING  20820
SWIDTH  1000 0
DWIDTH  36 0
BBX  35 35 1 0
BITMAP
001C000000
003C000000
0038000000
0070000000
00FFFFC000
01FFFFC000
03FFFFC000
0780078000
0F000F0000
1E003E0000
3FFFFFFE00
FFFFFFFE00
FFFFFFFE00
EE01C00E00
0E01C00E00
0E01C00E00
0E01C00E00
0E01C00E00
0E03800E00
0FFFFFFE00
0FFFFFFE00
0FFFFFFE00
0E07000E00
000F706000
000E70E0E0
001E7070E0
003C7078E0
00787038E0
00F07010E0
01E07000E0
07C07001E0
1F807FFFC0
FE003FFF80
7C001FFF00
7000000000
ENDCHAR
STARTCHAR  5156
ENCODING  20822
SWIDTH  1000 0
DWIDTH  36 0
BBX  34 35 1 0
BITMAP
0001800000
0001C00000
0000E00000
0000E00000
7FFFFFFF80
7FFFFFFF80
7FFFFFFF80
0000000000
0030038000
00F807E000
03F001F800
0FC1007E00
3F07801F80
7C0F000780
701E030300
003C078000
007803C000
00F001E000
03C000F800
0FFFFFFC00
0FFFFFFE00
07FC0E0E00
001C0E0600
001C0E0000
001C0E0000
001C0E0000
00380E00C0
00380E00C0
00780E01C0
01F00E01C0
07E00E01C0
3FC00F8FC0
FF0007FF80
F80003FF00
C000000000
ENDCHAR
STARTCHAR  515A
ENCODING  20826
SWIDTH  1000 0
DWIDTH  36 0
BBX  34 35 1 0
BITMAP
0000E00C00
0600E01C00
0F80E03C00
03C0E0F800
01E0E1E000
00C0E0C000
0000E00000
7FFFFFFF80
7FFFFFFF80
7FFFFFFF80
7000000380
7000000380
7000000380
73FFFFF380
73FFFFF380
03FFFFF000
0380007000
0380007000
0380007000
0380007000
0380007000
03FFFFF000
03FFFFF000
03FFFFF000
000E1C0000
001C1C0080
001C1C00C0
003C1C01C0
00781C01C0
00F01C01C0
03E01C01C0
0FC01FFFC0
FF801FFF80
7C000FFF00
3000000000
ENDCHAR
STARTCHAR  515C
ENCODING  20828
SWIDTH  1000 0
DWIDTH  36 0
BBX  35 34 1 1
BITMAP
0000E00000
0000E00000
0001C00000
0381C00000
3FBFFF3F80
3F3FFF3F80
3838073F80
3838070380
3838070380
3838070380
383FFF0380
383FFF0380
383FFF0380
3838070380
3838070380
3838070380
3838070380
39B8070380
3FB8070380
3FBFFF3F80
3E3FFF3F80
383FFF3F80
0000000000
00380E0000
00380E0000
00380E0000
00380E00E0
00780E00E0
00700E00E0
01F00E00C0
07E00E01C0
3FC00F87C0
FF0007FF80
7C0003FF00
ENDCHAR
STARTCHAR  5162
ENCODING  20834
SWIDTH  1000 0
DWIDTH  36 0
BBX  35 35 0 0
BITMAP
00E000E000
00E000E000
00E000E000
00E000E000
7FFF7FFFC0
7FFF7FFFC0
7FFF7FFFC0
00E000E000
00E000E000
00E000E000
00E000E000
3FFFBFFFC0
3FFFBFFFC0
3FFFBFFFC0
3803B801C0
3803B801C0
3803B801C0
3803B801C0
3803B801C0
3FFFBFFFC0
3FFFBFFFC0
3FFFBFFFC0
0770039C00
0770039C00
0770039C00
0770071C00
0E70871CE0
0E71861CE0
0E778E1CE0
1C7F1C1CE0
1C7E3C1CE0
3878781FC0
F071F01FC0
E000E00F80
C000800000
ENDCHAR
STARTCHAR  5165
ENCODING  20837
SWIDTH  1000 0
DWIDTH  36 0
BBX  35 33 1 1
BITMAP
0038000000
003C000000
001E000000
000E000000
0007000000
0003800000
0003800000
0001C00000
0001E00000
0003E00000
0003F00000
0003F00000
0007700000
0007380000
000F380000
000E1C0000
000E1C0000
001C0E0000
001C0F0000
0038070000
0078078000
007003C000
00F001C000
01E001E000
03C000F000
0780007800
0F80007C00
1F00003E00
3E00001F80
7C00000FE0
F8000007C0
E000000380
C000000000
ENDCHAR
STARTCHAR  5168
ENCODING  20840
SWIDTH  1000 0
DWIDTH  36 0
BBX  36 33 0 2
BITMAP
0000000000
0000700000
0000F80000
0001FC0000
0003DE0000
00078F0000
000F078000
001E03C000
007C01E000
00F800F800
03F0007C00
07C0003F00
1F80000FC0
7E000007E0
7DFFFFFDE0
31FFFFFC40
01FFFFFC00
0000700000
0000700000
0000700000
0000700000
0000700000
07FFFFFE00
07FFFFFE00
07FFFFFE00
0000700000
0000700000
0000700000
0000700000
0000700000
3FFFFFFFC0
3FFFFFFFC0
3FFFFFFFC0
ENDCHAR
STARTCHAR  516B
ENCODING  20843
SWIDTH  1000 0
DWIDTH  36 0
BBX  37 34 0 0
BITMAP
0000000000
001C070000
001C038000
001C038000
001C038000
001C038000
001C038000
001C038000
003C038000
0038038000
0038038000
003801C000
003801C000
003801C000
007801C000
007001E000
007000E000
007000E000
00F000F000
00E0007000
01E0007000
01E0007800
03C0003800
03C0003C00
0780001E00
0780001E00
0F00000F00
1E00000F80
1E000007C0
3C000003E0
78000001F0
70000000E0
2000000040
0000000000
ENDCHAR
STARTCHAR  516C
ENCODING  20844
SWIDTH  1000 0
DWIDTH  36 0
BBX  33 33 0 1
BITMAP
0000180000
00383C0000
00701C0000
00701C0000
00E00E0000
01E00F0000
01C0070000
03C0038000
078003C000
0F0001E000
0E0000F000
1E00007800
3C00003C00
7806001E00
F00F000F80
E00F000780
C01E000300
001C000000
003C000000
0038000000
00700C0000
00F01E0000
00E00E0000
01C0070000
03C0078000
038003C000
070001C000
0F0001E000
1FFFFFF000
3FFFFFF000
3FFFFFF800
0000003C00
0000001800
ENDCHAR
STARTCHAR  516D
ENCODING  20845
SWIDTH  1000 0
DWIDTH  36 0
BBX  34 33 1 1
BITMAP
0003800000
0003800000
0003C00000
0001E00000
0000E00000
0000F00000
0000700000
0000000000
FFFFFFFFC0
FFFFFFFFC0
FFFFFFFFC0
0000000000
0000000000
0000000000
0000000000
0038060000
00380E0000
00780F0000
0078078000
00F003C000
00E001C000
01E001E000
03C000F000
0380007800
0780007800
0F00003C00
1E00001E00
1E00001F00
3C00000F00
7800000780
F8000007C0
7000000300
2000000000
ENDCHAR
STARTCHAR  516E
ENCODING  20846
SWIDTH  1000 0
DWIDTH  36 0
BBX  34 33 1 1
BITMAP
000E1C0000
001E0C0000
003C0E0000
0038070000
0070078000
00F0038000
01E001C000
03C000E000
0780007000
0F00003C00
3E00001E00
7FFFFFEF80
F3FFFFE7C0
E3FFFFE1C0
C0700000C0
0070000000
00E0000000
00E0000000
01C0000000
01FFFFE000
01FFFFE000
01FFFFE000
000000E000
000000E000
000000E000
000000E000
000000E000
000000E000
000000E000
000001E000
000FFFE000
000FFFC000
000FFF8000
ENDCHAR
STARTCHAR  5170
ENCODING  20848
SWIDTH  1000 0
DWIDTH  36 0
BBX  34 32 1 3
BITMAP
000000E000
018000E000
01C001E000
01E003C000
00F003C000
0078078000
00380F0000
00000E0000
7FFFFFFF80
7FFFFFFF80
7FFFFFFF80
0000000000
0000000000
0000000000
0000000000
0000000000
0000000000
0000000000
1FFFFFFC00
1FFFFFFC00
1FFFFFFC00
0000000000
0000000000
0000000000
0000000000
0000000000
0000000000
0000000000
0000000000
FFFFFFFFC0
FFFFFFFFC0
FFFFFFFFC0
ENDCHAR
STARTCHAR  5171
ENCODING  20849
SWIDTH  1000 0
DWIDTH  36 0
BBX  35 34 1 1
BITMAP
007001C000
007001C000
007001C000
007001C000
007001C000
007001C000
007001C000
7FFFFFFF80
7FFFFFFF80
7FFFFFFF80
007001C000
007001C000
007001C000
007001C000
007001C000
007001C000
007001C000
007001C000
007001C000
FFFFFFFFE0
FFFFFFFFE0
FFFFFFFFE0
0000000000
0000000000
0018060000
003C078000
00F807C000
01F001F000
07C000F800
1F80003E00
3E00001F00
FC00000FC0
F000000380
C000000100
ENDCHAR
STARTCHAR  5173
ENCODING  20851
SWIDTH  1000 0
DWIDTH  36 0
BBX  35 36 1 0
BITMAP
0000000000
008000C000
01C000F000
01E001E000
00F001C000
0078038000
003C078000
0010070000
1FFFFFFF00
1FFFFFFF00
1FFFFFFF00
0000E00000
0000E00000
0000E00000
0000E00000
0000E00000
0000E00000
7FFFFFFFC0
7FFFFFFFC0
7FFFFFFFC0
0001F00000
0001F00000
0003F80000
0003B80000
00079C0000
000F1E0000
001E0F0000
003E078000
007C03E000
01F801F000
03E000FC00
0FC0007F80
7F00001FC0
7E00000780
7000000180
0000000000
ENDCHAR
STARTCHAR  5174
ENCODING  20852
SWIDTH  1000 0
DWIDTH  36 0
BBX  36 35 0 0
BITMAP
0001800000
0003800000
0003800380
1C01C00380
1E01C00780
0E01C00700
0F00E00F00
0700E00E00
0780E01E00
0380701C00
03C0703800
01C0707800
01E0787000
00E000F000
0080002000
0000000000
0000000000
7FFFFFFFE0
7FFFFFFFE0
7FFFFFFFE0
0000000000
0000000000
001C018000
003C03C000
003C01E000
007800F000
00F0007800
01E0003C00
03C0001E00
0780000F00
0F00000F80
3E000007C0
7C000003E0
38000001C0
1000000000
ENDCHAR
STARTCHAR  5175
ENCODING  20853
SWIDTH  1000 0
DWIDTH  36 0
BBX  34 33 1 1
BITMAP
00001FFC00
03FFFFFC00
03FFFFFC00
03FFE00000
0380000000
0380000000
0380000000
0380000000
0380000000
0380000000
03FFFFFF00
03FFFFFF00
03FFFFFF00
0380038000
0380038000
0380038000
0380038000
0380038000
0380038000
0380038000
FFFFFFFFC0
FFFFFFFFC0
FFFFFFFFC0
0000000000
0030030000
0078078000
00F003E000
03E001F000
07C0007C00
1F00003E00
7E00000F80
F800000780
7000000300
ENDCHAR
STARTCHAR  5176
ENCODING  20854
SWIDTH  1000 0
DWIDTH  36 0
BBX  35 35 1 0
BITMAP
0380003800
0380003800
0380003800
0380003800
7FFFFFFFC0
7FFFFFFFC0
7FFFFFFFC0
0380003800
0380003800
0380003800
03FFFFF800
03FFFFF800
03FFFFF800
0380003800
0380003800
0380003800
03FFFFF800
03FFFFF800
03FFFFF800
0380003800
0380003800
0380003800
0380003800
FFFFFFFFE0
FFFFFFFFE0
FFFFFFFFE0
0000000000
0018038000
007C07E000
01F803F800
0FE0007F00
3F80001FC0
FE000007E0
78000001C0
4000000040
ENDCHAR
STARTCHAR  5177
ENCODING  20855
SWIDTH  1000 0
DWIDTH  36 0
BBX  35 34 0 0
BITMAP
07FFFFFC00
07FFFFFC00
07FFFFFC00
0700001C00
0700001C00
0700001C00
07FFFFFC00
07FFFFFC00
07FFFFFC00
0700001C00
0700001C00
07FFFFFC00
07FFFFFC00
07FFFFFC00
0700001C00
0700001C00
0700001C00
07FFFFFC00
07FFFFFC00
07FFFFFC00
0700001C00
0700001C00
0700001C00
FFFFFFFFE0
FFFFFFFFE0
FFFFFFFFE0
0000000000
0018070000
007C07E000
03F807FC00
0FE000FF80
7F80001FC0
7C000007C0
3000000080
ENDCHAR
STARTCHAR  5178
ENCODING  20856
SWIDTH  1000 0
DWIDTH  36 0
BBX  34 35 1 0
BITMAP
001C0E0000
001C0E0000
001C0E0000
001C0E0000
1FFFFFFE00
1FFFFFFE00
1FFFFFFE00
1C1C0E0E00
1C1C0E0E00
1C1C0E0E00
1C1C0E0E00
1C1C0E0E00
1C1C0E0E00
1FFFFFFE00
1FFFFFFE00
1FFFFFFE00
1C1C0E0E00
1C1C0E0E00
1C1C0E0E00
1C1C0E0E00
1C1C0E0E00
1C1C0E0E00
1C1C0E0E00
FFFFFFFFC0
FFFFFFFFC0
FFFFFFFFC0
0000000000
0018060000
0078078000
03F807E000
0FE001FC00
3F80007F00
FE00001FC0
7800000780
6000000180
ENDCHAR
STARTCHAR  5179
ENCODING  20857
SWIDTH  1000 0
DWIDTH  36 0
BBX  34 34 1 1
BITMAP
0080004000
01C000E000
00E001E000
007003C000
0038038000
FFFFFFFFC0
FFFFFFFFC0
FFFFFFFFC0
01E001C000
01C0038000
0380038000
0380070000
0700070000
0E070E0C00
0E0F1C1E00
1C0E1C1C00
181C383C00
383C703800
7FF87FF000
7FF07FF000
7FF07FE000
00E001C000
01E001C000
01C0038000
0388079800
071C071C00
071C0E1C00
0E0E1C0E00
1C0F1C0600
3807380700
7FFFFFFF00
7FFFFFFF80
7FFFFFFF80
00038001C0
ENDCHAR
STARTCHAR  517B
ENCODING  20859
SWIDTH  1000 0
DWIDTH  36 0
BBX  35 35 1 0
BITMAP
002001C000
007003C000
0078038000
003C070000
00180E0000
3FFFFFFF00
3FFFFFFF00
3FFFFFFF00
0001C00000
0001C00000
0FFFFFFE00
0FFFFFFE00
0FFFFFFE00
0003800000
0003800000
7FFFFFFFC0
7FFFFFFFC0
7FFFFFFFC0
001E0E0000
003C070000
007807C000
01F001F000
07E000FE00
3FB8077FE0
FE38071FC0
F838070380
C038070000
0070070000
0070070000
00F0070000
01E0070000
07C0070000
1F80070000
1F00070000
0C00070000
ENDCHAR
STARTCHAR  517C
ENCODING  20860
SWIDTH  1000 0
DWIDTH  36 0
BBX  35 35 0 0
BITMAP
0070018000
007003C000
0038038000
0018070000
7FFFFFFFE0
7FFFFFFFE0
7FFFFFFFE0
001C0E0000
001C0E0000
001C0E0000
0FFFFFFE00
0FFFFFFE00
0FFFFFFE00
001C0E0E00
001C0E0E00
7FFFFFFFE0
7FFFFFFFE0
7FFFFFFFE0
001C0E0E00
001C0E0E00
001C0E0E00
1FFFFFFE00
1FFFFFFE00
1FFFFFFE00
007C0F8000
00FC0FC000
01FC0EE000
03DC0E7800
079C0E3C00
0E1C0E1F80
3C1C0E07E0
F81C0E01E0
701C0E0040
001C0E0000
001C0E0000
ENDCHAR
STARTCHAR  517D
ENCODING  20861
SWIDTH  1000 0
DWIDTH  36 0
BBX  34 34 1 1
BITMAP
0020000000
0070038000
0078038000
003C070000
00180E0000
1FFFFFFE00
1FFFFFFE00
1FFFFFFE00
1C00E00E00
1C00E00E00
1FFFFFFE00
1FFFFFFE00
1FFFFFFE00
1C00E00E00
1C00E00E00
1FFFFFFE00
1FFFFFFE00
1FFFFFFE00
1C00000E00
0000000000
FFFFFFFFC0
FFFFFFFFC0
FFFFFFFFC0
0000000000
07FFFFF800
07FFFFF800
07FFFFF800
0700003800
0700003800
0700003800
0700003800
07FFFFF800
07FFFFF800
07FFFFF800
ENDCHAR
STARTCHAR  5180
ENCODING  20864
SWIDTH  1000 0
DWIDTH  36 0
BBX  34 35 1 1
BITMAP
00380E0300
7FF80E3F00
7FF80FFF80
7FF80FFC00
00380FC100
00F80E01C0
1FF80F81C0
7FF80FFFC0
FFB803FF80
E000000000
0FFFFFFC00
0FFFFFFC00
0FFFFFFC00
0E01C01C00
0FFFFFFC00
0FFFFFFC00
0FFFFFFC00
0E01C01C00
0FFFFFFC00
0FFFFFFC00
0FFFFFFC00
0038070000
7FFFFFFF80
7FFFFFFF80
7FFFFFFF80
0038070000
FFFFFFFFC0
FFFFFFFFC0
FFFFFFFFC0
0000000000
007807C000
03FC07FC00
7FC0007F80
FE000007C0
6000000080
ENDCHAR
STARTCHAR  5185
ENCODING  20869
SWIDTH  1000 0
DWIDTH  36 0
BBX  29 33 4 1
BITMAP
00070000
00070000
00070000
00070000
00070000
00070000
FFFFFFF8
FFFFFFF8
FFFFFFF8
E0070038
E0070038
E0070038
E00E0038
E00E0038
E00E0038
E00F0038
E01F8038
E01FC038
E03CF038
E0787838
E0F03C38
E1E01E38
E7C00F38
FF8007B8
EF000338
E4000038
E0000038
E0000038
E0000038
E0000038
E0003FF8
E0001FF0
E0001FE0
ENDCHAR
STARTCHAR  5188
ENCODING  20872
SWIDTH  1000 0
DWIDTH  36 0
BBX  31 32 3 0
BITMAP
FFFFFFFE
FFFFFFFE
FFFFFFFE
E000000E
E000000E
E000060E
E180070E
E3C00E0E
E1E01E0E
E0F03C0E
E078380E
E03C700E
E01EF00E
E00FE00E
E007C00E
E007C00E
E00FE00E
E01EF00E
E03CF00E
E078780E
E0F03C0E
E1E01E0E
E3C00F0E
E780060E
E300000E
E000000E
E000000E
E000001E
E0001FFC
E0001FFC
E0000FF8
00000000
ENDCHAR
STARTCHAR  5189
ENCODING  20873
SWIDTH  1000 0
DWIDTH  36 0
BBX  35 35 1 0
BITMAP
0000E00000
0000E00000
0000E00000
0000E00000
0000E00000
0FFFFFFC00
0FFFFFFC00
0FFFFFFC00
0E00E01C00
0E00E01C00
0E00E01C00
0E00E01C00
0FFFFFFC00
0FFFFFFC00
0FFFFFFC00
0E00E01C00
0E00E01C00
0E00E01C00
0E00E01C00
0E00E01C00
FFFFFFFFE0
FFFFFFFFE0
FFFFFFFFE0
0E00001C00
0E00001C00
0E00001C00
0E00001C00
0E00001C00
0E00001C00
0E00001C00
0E00001C00
0E0007FC00
0E0007FC00
0E0007F800
0E00000000
ENDCHAR
STARTCHAR  518C
ENCODING  20876
SWIDTH  1000 0
DWIDTH  36 0
BBX  35 32 1 1
BITMAP
1FFE1FFE00
1FFE1FFE00
1FFE1FFE00
1C0E1C0E00
1C0E1C0E00
1C0E1C0E00
1C0E1C0E00
1C0E1C0E00
1C0E1C0E00
1C0E1C0E00
1C0E1C0E00
1C0E1C0E00
FFFFFFFFE0
FFFFFFFFE0
FFFFFFFFE0
1C0E1C0E00
1C0E1C0E00
1C0E1C0E00
1C0E1C0E00
1C0E1C0E00
1C0E1C0E00
1C0E1C0E00
1C0E1C0E00
1C0E180E00
380E380E00
380E380E00
380E380E00
380E700E00
71DE700E00
71FC71FE00
E1FCE1FE00
600061FC00
ENDCHAR
STARTCHAR  518D
ENCODING  20877
SWIDTH  1000 0
DWIDTH  36 0
BBX  35 33 1 0
BITMAP
7FFFFFFF80
7FFFFFFF80
7FFFFFFF80
0000E00000
0000E00000
0000E00000
0000E00000
0FFFFFFC00
0FFFFFFC00
0FFFFFFC00
0E00E01C00
0E00E01C00
0E00E01C00
0FFFFFFC00
0FFFFFFC00
0FFFFFFC00
0E00E01C00
0E00E01C00
0E00E01C00
FFFFFFFFE0
FFFFFFFFE0
FFFFFFFFE0
0E00001C00
0E00001C00
0E00001C00
0E00001C00
0E00001C00
0E00001C00
0E00001C00
0E000FFC00
0E000FFC00
0E0007F800
0E00000000
ENDCHAR
STARTCHAR  5192
ENCODING  20882
SWIDTH  1000 0
DWIDTH  36 0
BBX  30 33 3 0
BITMAP
FFFFFFFC
FFFFFFFC
FFFFFFFC
E000001C
FFFFFFFC
FFFFFFFC
FFFFFFFC
E000001C
E000001C
FFFFFFFC
FFFFFFFC
FFFFFFFC
00000000
00000000
3FFFFFF0
3FFFFFF0
3FFFFFF0
38000070
38000070
3FFFFFF0
3FFFFFF0
3FFFFFF0
38000070
38000070
3FFFFFF0
3FFFFFF0
3FFFFFF0
38000070
38000070
3FFFFFF0
3FFFFFF0
3FFFFFF0
38000070
ENDCHAR
STARTCHAR  5195
ENCODING  20885
SWIDTH  1000 0
DWIDTH  36 0
BBX  34 34 1 1
BITMAP
7FFFFFFF00
7FFFFFFF00
7FFFFFFF00
7000000700
73FFFFC700
73FFFFC700
73FFFFC700
7000000700
73FFFFC700
73FFFFC700
73FFFF8700
0078000000
00F0000000
01FFFFC000
03FFFFC000
07FFFF8000
0F00070000
3FFFFFFC00
7FFFFFFC00
77FFFFFC00
0701C01C00
0701801C00
0703801C00
07FFFFFC00
07FFFFFC00
07FFFFFC00
000E7001C0
003C7001C0
00787001C0
01F0700180
0FC07FFF80
FF007FFF80
FC003FFF00
6000000000
ENDCHAR
STARTCHAR  5197
ENCODING  20887
SWIDTH  1000 0
DWIDTH  36 0
BBX  36 32 1 0
BITMAP
3FFFFFFF80
3FFFFFFF80
3FFFFFFF80
3800000380
3800000380
3800000380
3800000380
3800000380
3800000380
007FFF8000
007FFF8000
007FFF8000
0070038000
0070038000
0070038000
0070038000
0070038000
0070038000
0070038000
0070038000
0060038000
00E0038080
00E00380E0
01E00380E0
01C00380E0
03C00380E0
07800380C0
1F000381C0
3E0003FFC0
FC0001FF80
7000007C00
0000000000
ENDCHAR
STARTCHAR  5199
ENCODING  20889
SWIDTH  1000 0
DWIDTH  36 0
BBX  33 32 1 1
BITMAP
7FFFFFFF80
7FFFFFFF80
7FFFFFFF80
7000000380
71C0000380
71C0000380
71C0000380
01C0000000
01FFFFFE00
01FFFFFE00
03FFFFFE00
0380000000
0380000000
0380000000
0380000000
07FFFFFF00
07FFFFFF00
07FFFFFF00
0000000700
0000000700
0000000700
0000000700
FFFFFFC700
FFFFFFC700
FFFFFFC700
0000000700
0000000E00
0000000E00
0000001E00
00007FFE00
00007FFC00
00007FF000
ENDCHAR
STARTCHAR  519B
ENCODING  20891
SWIDTH  1000 0
DWIDTH  36 0
BBX  35 33 1 0
BITMAP
7FFFFFFF80
7FFFFFFF80
7FFFFFFF80
7000000380
701E000380
701C000380
003C000000
7FFFFFFF80
7FFFFFFF80
7FFFFFFF80
00E0000000
00E0000000
01C0700000
03C0700000
0380700000
0700700000
0F00700000
0FFFFFFE00
0FFFFFFE00
0FFFFFFE00
0000700000
0000700000
0000700000
0000700000
FFFFFFFFC0
FFFFFFFFC0
FFFFFFFFC0
0000700000
0000700000
0000700000
0000700000
0000700000
0000700000
ENDCHAR
STARTCHAR  519C
ENCODING  20892
SWIDTH  1000 0
DWIDTH  36 0
BBX  34 34 1 1
BITMAP
0000700000
0000700000
0000700000
0000E00000
0000E00000
3FFFFFFF80
3FFFFFFF80
3FFFFFFF80
3803C00380
3803C00380
3807C00380
3807E00380
380EE00000
001E600000
001C700C00
003C701E00
0078383E00
00F038F800
01F01DF000
03F01FC000
07F00F8000
0FF00F0000
1E70078000
3C7003C000
F87001E000
F07001F000
E07008F800
0070387E00
0071F81F00
0077E00FC0
007F8007C0
007E000180
0078000000
0060000000
ENDCHAR
STARTCHAR  51A0
ENCODING  20896
SWIDTH  1000 0
DWIDTH  36 0
BBX  34 33 1 0
BITMAP
7FFFFFFF80
7FFFFFFF80
7FFFFFFF80
7000000380
7000000380
7000000380
7000003B80
0000003800
1FFF003800
1FFF7FFFC0
1FFF7FFFC0
00007FFFC0
0000003800
7FFF803800
7FFFC83800
7FFFDC3800
071C1C3800
071C0E3800
071C0E3800
071C073800
071C063800
071C003880
071C0039C0
071C0039C0
071C0FF9C0
061C0FF1C0
0E1C0FE1C0
0E1C0001C0
1C0E000380
780FFFFF80
F007FFFF00
6001FFF800
4000000000
ENDCHAR
STARTCHAR  51A2
ENCODING  20898
SWIDTH  1000 0
DWIDTH  36 0
BBX  34 32 1 0
BITMAP
7FFFFFFF80
7FFFFFFF80
7FFFFFFF80
7000000380
7000000380
77FFFFFF80
77FFFFFF80
07FFFFFC00
0003C00000
000F000000
003E000000
00FE000C00
03FF003C00
1FC700F800
7F0781F000
F88FC7C000
E19EFF0000
81F8FF8000
00F07B8000
03F0F1C000
0FF1F1E000
7E3BF8E000
7807B87000
601E387800
003C383E00
00F8381F00
03F0380FC0
0FC03807C0
3F00780180
FC3FF00000
703FE00000
403FC00000
ENDCHAR
STARTCHAR  51A4
ENCODING  20900
SWIDTH  1000 0
DWIDTH  36 0
BBX  35 32 1 0
BITMAP
7FFFFFFF80
7FFFFFFF80
7FFFFFFF80
7038000380
7070000380
70F0000380
71FFFFC380
01FFFFC000
03FFFF8000
0700038000
0E00070000
1C000E0000
7FFFFFFE00
FFFFFFFE00
EFFFFFFE00
0E00E00E00
0E01C00E00
0E01C00E00
0E01C00E00
0FFFFFFE00
0FFFFFFE00
0FFFFFFE00
000770C000
000E71E000
001C70F0E0
00787078E0
00F07030E0
03E07000E0
1FC07FFFE0
FF003FFFE0
FC001FFFC0
6000000000
ENDCHAR
STARTCHAR  51A5
ENCODING  20901
SWIDTH  1000 0
DWIDTH  36 0
BBX  35 32 1 0
BITMAP
7FFFFFFF80
7FFFFFFF80
7FFFFFFF80
7000000380
7000000380
73FFFFFB80
73FFFFFB80
03FFFFF800
0380003800
0380003800
03FFFFF800
03FFFFF800
03FFFFF800
0380003800
0380003800
0380003800
03FFFFF800
03FFFFF800
03FFFFF800
0000E00000
0000E00000
0000600000
FFFFFFFFE0
FFFFFFFFE0
FFFFFFFFE0
0018060000
007C07C000
03FC0FF800
0FE001FF00
7F80003FC0
7C000007C0
70000001C0
ENDCHAR
STARTCHAR  51AC
ENCODING  20908
SWIDTH  1000 0
DWIDTH  36 0
BBX  36 36 0 -1
BITMAP
0008000000
001C000000
001C000000
003FFFFC00
007FFFFC00
00FFFFFC00
01F0003C00
03F0007800
07B800F000
0F1C01E000
1E1E03C000
3C0F078000
38079F0000
1003FE0000
0001F80000
0003FC0000
001FFF8000
00FF0FF800
0FFC03FFE0
7FE0007FE0
7F000007E0
303F000000
003FF00000
000FFF0000
00007F8000
00000F8000
0000000000
0000000000
01E0000000
01FF000000
01FFF00000
000FFF8000
0000FFE000
00000FE000
000000E000
0000000000
ENDCHAR
STARTCHAR  51AF
ENCODING  20911
SWIDTH  1000 0
DWIDTH  36 0
BBX  33 33 1 1
BITMAP
007FFFF800
007FFFF800
607FFFF800
F000003800
7800003800
3C1C003800
1E1C003800
1F1C003800
0F1C003800
041C003800
001C003800
001C003800
001C003800
001C003800
001C003800
041FFFFF80
0E1FFFFF80
0E1FFFFF80
0E00000380
0E00000380
1C00000380
1C00000380
1CFFFFF380
38FFFFF380
38FFFFF380
3800000380
7000000380
7000000380
F000000380
E000000780
60001FFF80
00001FFF00
00000FFE00
ENDCHAR
STARTCHAR  51B0
ENCODING  20912
SWIDTH  1000 0
DWIDTH  36 0
BBX  36 35 1 0
BITMAP
00000E0000
00000E0000
30000E0000
70000E0000
78000E0000
3C000E0000
1C000E0000
1E000E0000
0F000F0180
07000F03C0
063FCF0780
003FCF0F00
0001CF9E00
0001CFBC00
0001CFF000
00018FE000
00038EC000
06038EE000
07038EE000
07070E7000
0E070E7000
0E0E0E3800
0E0E0E3C00
1C1C0E1E00
1C3C0E0F00
1C380E0F80
38780E07C0
38F00E03E0
39E00E01C0
71C00E0080
70800E0000
F007FE0000
2007FC0000
0003F80000
0000000000
ENDCHAR
STARTCHAR  51B2
ENCODING  20914
SWIDTH  1000 0
DWIDTH  36 0
BBX  34 35 0 0
BITMAP
0000070000
0000070000
3000070000
7800070000
3C00070000
1C00070000
1E00070000
0F0FFFFF80
070FFFFF80
078FFFFF80
020E070380
000E070380
000E070380
000E070380
000E070380
000E070380
000E070380
030E070380
038E070380
078E070380
070FFFFF80
070FFFFF80
0F0FFFFF80
0E0E070380
0E00070000
1C00070000
1C00070000
1C00070000
3800070000
3800070000
7800070000
7000070000
3000070000
0000070000
0000070000
ENDCHAR
STARTCHAR  51B3
ENCODING  20915
SWIDTH  1000 0
DWIDTH  36 0
BBX  35 35 0 0
BITMAP
00001C0000
00001C0000
20001C0000
70001C0000
78001C0000
3C001C0000
1E1FFFFE00
0F1FFFFE00
079FFFFE00
07001C0E00
02001C0E00
00001C0E00
00001C0E00
00001C0E00
00001C0E00
00001C0E00
06001C0E00
077FFFFFE0
0F7FFFFFE0
0E7FFFFFE0
0E003C0000
1E003E0000
1C007E0000
1C00770000
3C00F78000
3800E38000
3801E1C000
7003C1E000
700780F800
700F007C00
F03E003F00
20FC001FC0
01F80007C0
00E0000380
0040000000
ENDCHAR
STARTCHAR  51B5
ENCODING  20917
SWIDTH  1000 0
DWIDTH  36 0
BBX  35 33 0 0
BITMAP
001FFFFF00
601FFFFF00
F01FFFFF00
781C000700
3C1C000700
1E1C000700
0F1C000700
079C000700
039C000700
031C000700
001C000700
001C000700
001C000700
001FFFFF00
001FFFFF00
039FFFFF00
079C71C700
070071C000
070071C000
0F0071C000
0E0061C000
0E00E1C000
1C00E1C000
1C01E1C0E0
3801C1C0E0
3803C1C0E0
780781C0E0
700F01C0E0
F01E01C0E0
607C01FFE0
21F800FFE0
00F0007FC0
0040000000
ENDCHAR
STARTCHAR  51B6
ENCODING  20918
SWIDTH  1000 0
DWIDTH  36 0
BBX  35 34 0 1
BITMAP
0000180000
00001C0000
00003C0000
7000380000
7800700000
3C00F01000
1E00E03800
0F01C01C00
0783C01E00
0303800E00
0207000700
000F000780
001FFFFF80
003FFFFFC0
003FFFFFE0
04000000E0
06000000C0
0700000000
0F00000000
0E0FFFFF00
0E0FFFFF00
1C0FFFFF00
1C0E000700
1C0E000700
380E000700
380E000700
380E000700
700E000700
700E000700
700E000700
F00FFFFF00
200FFFFF00
000FFFFF00
000E000700
ENDCHAR
STARTCHAR  51B7
ENCODING  20919
SWIDTH  1000 0
DWIDTH  36 0
BBX  36 36 0 -1
BITMAP
00000E0000
00001E0000
20001F0000
70003F0000
78003B8000
3C0071C000
1E00E1E000
0F01E0F000
0703C07800
0607903C00
000F381E00
003E3C0F80
00FC1E07E0
00F00E01E0
00E00700C0
0000070000
0000000000
0400000000
073FFFFF00
0F3FFFFF00
0E3FFFFF00
0E00000F00
0E00001E00
1C00003C00
1C00007800
1C0400F000
1C0F01E000
380FC3C000
3803F78000
3800FF0000
78003F0000
70000FC000
700003F000
000001F000
0000006000
0000000000
ENDCHAR
STARTCHAR  51BB
ENCODING  20923
SWIDTH  1000 0
DWIDTH  36 0
BBX  35 34 1 1
BITMAP
0000380000
0000700000
6000700000
F000E00000
7800E00000
387FFFFFC0
1C7FFFFFC0
1E7FFFFFC0
0F03800000
0703800000
0707070000
0007070000
000E070000
000E070000
001C070000
001C070000
073FFFFFC0
073FFFFFC0
073FFFFFC0
0F00070000
0E00070000
0E03873800
0E03873800
1C07071C00
1C0F071E00
1C0E070F00
381E070700
383C070780
78380703C0
70780703C0
70F00701E0
F1E1FF00C0
E061FF0080
0000FE0000
ENDCHAR
STARTCHAR  51BC
ENCODING  20924
SWIDTH  1000 0
DWIDTH  36 0
BBX  36 35 0 0
BITMAP
0000000000
0000070000
3003870000
7003870000
3807070000
3C07070000
1C07FFFF80
0E0FFFFF80
0F0FFFFF80
070E070000
061C070000
001C070000
0038070000
0018070000
0000070000
0000070000
007FFFFFE0
007FFFFFE0
047FFFFFE0
0700E0E000
0F00E0E000
0E00E0E000
0E00E0E000
0E01C0E000
1C01C0E000
1C01C0E040
1C03C0E060
380380E060
380780E060
380F00E0E0
781E00E0E0
707C00FFC0
71F8007FC0
10E0000000
0040000000
ENDCHAR
STARTCHAR  51BD
ENCODING  20925
SWIDTH  1000 0
DWIDTH  36 0
BBX  33 35 1 0
BITMAP
0000000380
0000000380
60FFFE0380
70FFFE0380
78FFFE0380
380E000380
1C0E00E380
1E0E00E380
0E0E00E380
0E0E00E380
041FFCE380
001FFCE380
00181CE380
00381CE380
003818E380
003018E380
0C7038E380
0E7038E380
0EEC38E380
1CEF30E380
1DC7F0E380
1D83F0E380
1C81E0E380
3800E0E380
3801C0E380
3801C0E380
700380E380
7007800380
700F000380
F00E000380
E01C000380
207C00FF80
007800FF00
0030007E00
0020000000
ENDCHAR
STARTCHAR  51C0
ENCODING  20928
SWIDTH  1000 0
DWIDTH  36 0
BBX  34 34 1 1
BITMAP
0000E00000
0001C00000
E003C00000
E003FFF000
7007FFF000
700F00E000
381E00E000
381C01C000
1C38038000
1C78078000
1EF0070000
0EFFFFFE00
007FFFFE00
007FFFFE00
00001C0E00
00001C0E00
00FFFFFFC0
0CFFFFFFC0
1CFFFFFFC0
1C001C0E00
1C001C0E00
1C001C0E00
383FFFFE00
383FFFFE00
383FFFFE00
70001C0E00
70001C0000
70001C0000
E0001C0000
E0001C0000
E0003C0000
000FFC0000
000FF80000
0007F00000
ENDCHAR
STARTCHAR  51C4
ENCODING  20932
SWIDTH  1000 0
DWIDTH  36 0
BBX  34 35 1 0
BITMAP
00001C0000
00001C0000
207FFFFF80
707FFFFF80
787FFFFF80
38001C0000
1C001C0000
1E1FFFFE00
0E1FFFFE00
0E1FFFFE00
04001C0E00
00001C0E00
00FFFFFFC0
00FFFFFFC0
00FFFFFFC0
00001C0E00
0C001C0E00
0E3FFFFE00
0E3FFFFE00
1C3FFFFE00
1C00700000
1C00E00000
1CFFFFFFC0
38FFFFFFC0
38FFFFFFC0
3807007000
700F00F000
700F81E000
7007F3C000
F000FF8000
E0001FC000
6001FFF800
007FF0FF00
00FF801F00
0078000600
ENDCHAR
STARTCHAR  51C6
ENCODING  20934
SWIDTH  1000 0
DWIDTH  36 0
BBX  35 35 1 0
BITMAP
0001830000
0001C38000
600383C000
F00381E000
700700E000
780700E000
3C0FFFFFC0
1E0FFFFFC0
0F1FFFFFC0
0F1E01C000
063E01C000
007E01C000
007E01C000
00EFFFFF80
01EFFFFF80
00CFFFFF80
000E01C000
070E01C000
070E01C000
0E0E01C000
0E0E01C000
0E0FFFFF80
1C0FFFFF80
1C0FFFFF80
1C0E01C000
380E01C000
380E01C000
780E01C000
700E01C000
700FFFFFE0
F00FFFFFE0
200FFFFFE0
000E000000
000E000000
000E000000
ENDCHAR
STARTCHAR  51C7
ENCODING  20935
SWIDTH  1000 0
DWIDTH  36 0
BBX  35 34 1 1
BITMAP
001C001800
001C001800
401C031800
E01C031C00
E01C071C00
701C070C00
701C060C00
31FFCE0E00
39FFCE0E00
39FFCC0700
181C1C0700
001C1C0380
001C380380
003C3801C0
003D70E1E0
003F70E0E0
007F80C040
187FC1C000
1CFDC1C000
18DCC18000
19DC038000
39DC038400
3B9C031C00
339C070C00
371C070E00
731C060600
701C0E0700
601C0C0700
601C1C0300
E01C1FFF80
E01C3FFF80
201C3FFFC0
001C0001C0
001C0001C0
ENDCHAR
STARTCHAR  51C9
ENCODING  20937
SWIDTH  1000 0
DWIDTH  36 0
BBX  35 35 1 0
BITMAP
0000380000
00003C0000
20001C0000
F0001E0000
70FFFFFFC0
38FFFFFFC0
3CFFFFFFC0
1E00000000
0E00000000
0F00000000
0400000000
001FFFFE00
001FFFFE00
001FFFFE00
001C000E00
001C000E00
001C000E00
061C000E00
071C000E00
0E1FFFFE00
0E1FFFFE00
0E1FFFFE00
1C000E0000
1C000E0000
1C070E1000
380F0E3800
381E0E1C00
783C0E0E00
70780E0700
70F00E0780
F1E00E03C0
E1C01E01E0
6083FC0080
0003FC0000
0001F00000
ENDCHAR
STARTCHAR  51CB
ENCODING  20939
SWIDTH  1000 0
DWIDTH  36 0
BBX  33 33 1 0
BITMAP
207FFFFF80
E07FFFFF80
707FFFFF80
78701C0380
38701C0380
3C701C0380
1C73FFE380
1E73FFE380
0E73FFE380
08701C0380
00701C0380
00701C0380
0077FFF380
0077FFF380
0077FFF380
0C70000380
0E70000380
1E70000380
1C73FFE380
1C73FFE380
1C73FFE380
387380E380
386380E380
38E380E380
70E3FFE380
70E3FFE380
71C3FFE380
F1C0000380
E380000380
078001FF00
070001FF00
070001FE00
0200000000
ENDCHAR
STARTCHAR  51CC
ENCODING  20940
SWIDTH  1000 0
DWIDTH  36 0
BBX  35 35 1 0
BITMAP
00000E0000
00000E0000
20000E0000
F0000E0000
781FFFFF00
381FFFFF00
3C1FFFFF00
1E000E0000
0E000E0000
0F7FFFFFC0
047FFFFFC0
007FFFFFC0
0000000000
0001002000
0003807800
000F807E00
001F001F80
003CE007C0
08F8E003C0
0E71FFFC80
0E03FFFC00
0E07FFFC00
1C0F801C00
1C1FC03800
1C3DE07000
1C78E0F000
387079E000
38203FC000
38001F0000
70003FC000
7000FBF000
7007F0FE00
F07FC03FE0
20FE000FC0
0070000180
ENDCHAR
STARTCHAR  51CF
ENCODING  20943
SWIDTH  1000 0
DWIDTH  36 0
BBX  35 34 1 1
BITMAP
000000E400
000000EE00
000000EF00
200000E780
700000E300
780000E000
3C3FFFFFE0
1E3FFFFFE0
0E3FFFFFE0
063800E000
003800E000
003FFCE1C0
003FFCE1C0
003FFCE180
003800E380
083800E380
0E3800E300
0E3BFCE700
0C73FCE600
1C73FCEE00
1C739CEE00
1C739C7C00
38739C7C00
38739C7800
38639C7800
70E3FC70E0
70E3FCF0E0
70E3FDF8E0
F1C001F8E0
E1C0039CE0
2380071DC0
03800F0FC0
07001E0FC0
03001C0780
ENDCHAR
STARTCHAR  51D1
ENCODING  20945
SWIDTH  1000 0
DWIDTH  36 0
BBX  34 35 1 0
BITMAP
00001C0000
00001C0000
20001C0000
707FFFFF00
787FFFFF00
387FFFFF00
3C00380000
1E00380000
0E3FFFFE00
0F3FFFFE00
073FFFFE00
0000700000
0000700000
00FFFFFFC0
00FFFFFFC0
00FFFFFFC0
0C0380C000
0E0700E000
0E0F007000
1C1FFFFC00
1C3FFFDF00
1CFBFFCFC0
1DF01C07C0
39C01C01C0
38BFFFFC00
383FFFFC00
703FFFFC00
7000380000
70007E0000
F000FFC000
E003E3F000
E00FC0FC00
00FF003F00
00FC000F00
00E0000300
ENDCHAR
STARTCHAR  51DB
ENCODING  20955
SWIDTH  1000 0
DWIDTH  36 0
BBX  34 34 1 1
BITMAP
0000380000
0000380000
40001C0000
E1FFFFFFC0
E1FFFFFFC0
71FFFFFFC0
7800000000
38FFFFFF80
3CFFFFFF80
1CFFFFFF80
18E0000380
00E1FFC380
00E1FFC380
00E180C380
00E1FFC380
00E1FFC380
18E0000380
1CFFFFFF80
1CFFFFFF80
18FFFFFF80
3800000000
383FFFFC00
383FFFFC00
303FFFFC00
7000000000
71FFFFFFC0
71FFFFFFC0
61FFFFFFC0
E00C1C3000
E03E1C7C00
E0F81C1F00
47E3FC07C0
0387FC01C0
0007F80000
ENDCHAR
STARTCHAR  51DD
ENCODING  20957
SWIDTH  1000 0
DWIDTH  36 0
BBX  35 34 0 0
BITMAP
0070000000
007007FFC0
7073C7FFC0
707FC7FFC0
387F000380
3870600380
1870E18700
1C70E3CE00
1C70E1FC00
0E7FE0FC00
0E7FC07800
003F803C00
00300FFFC0
00700FFFC0
007FEFFFC0
007FE039C0
1CFFE03BC0
1CEE0E3B80
1DCE0E3800
1DCE0E3800
1C0E0E3800
39FFEE3FC0
39FFEE3FC0
39FFEE3FC0
380C0E3800
381E0E3800
701F0F3800
703F8FB800
707BCFF800
7071DDF800
E0E018FFE0
E3C0387FC0
C1C0701FC0
0180300000
ENDCHAR
STARTCHAR  51E0
ENCODING  20960
SWIDTH  1000 0
DWIDTH  36 0
BBX  35 32 0 1
BITMAP
00FFFF8000
00FFFF8000
00FFFF8000
00E0038000
00E0038000
00E0038000
00E0038000
00E0038000
00E0038000
00E0038000
00E0038000
00E0038000
00E0038000
00E0038000
00E0038000
00E0038000
00E0038000
00E0038000
01E0038000
01C0038000
01C0038000
01C00380C0
03C00380E0
03800380E0
07800381E0
0F000381C0
1F000381C0
3E000381C0
7C0003FFC0
F80001FF80
700000FF00
2000000000
ENDCHAR
STARTCHAR  51E1
ENCODING  20961
SWIDTH  1000 0
DWIDTH  36 0
BBX  36 33 0 0
BITMAP
01FFFFC000
01FFFFC000
01FFFFC000
01C001C000
01C001C000
01C001C000
01C001C000
01C001C000
01C001C000
01C001C000
01C201C000
01C701C000
01C781C000
01C3C1C000
01C1E1C000
01C0F1C000
01C071C000
01C079C000
01C031C000
01C001C000
038001C000
038001C0E0
038001C0E0
038001C0E0
078001C0E0
070001C0E0
0F0001C0E0
1E0001C1C0
3C0001FFC0
7C0000FFC0
7800007F00
3000000000
0000000000
ENDCHAR
STARTCHAR  51E4
ENCODING  20964
SWIDTH  1000 0
DWIDTH  36 0
BBX  35 32 1 1
BITMAP
1FFFFFF800
1FFFFFF800
1FFFFFF800
1C00003800
1C00003800
1C00003800
1C00003800
1CFFFE3800
1CFFFE3800
1CFFFE3800
1C000E3800
1C000E3800
1C701C3800
1C781C3800
1C3C1C3800
1C1E383800
1C0F383800
1C07703800
1C03F03800
1C01E03800
1C01E03800
1C03F03800
1807F838E0
380F3C38E0
383E1E38E0
387C0F38E0
39F007B8E0
73E0039DC0
73C0019DC0
F100001FC0
E000000F80
6000000780
ENDCHAR
STARTCHAR  51EB
ENCODING  20971
SWIDTH  1000 0
DWIDTH  36 0
BBX  35 35 1 0
BITMAP
0007000000
0007000000
0007000000
000E000000
0FFFFFF800
0FFFFFF800
0FFFFFF800
0E00003800
0E0C003800
0E1F003800
0E07CFF800
0E03CFF800
0E00CFF000
0E00000000
0FFFFFFF00
0FFFFFFF00
0FFFFFFF00
0000000700
0000000700
0000000700
0000000700
00FFFC0700
00FFFDFF00
00FFDDFF00
00E01DFE00
00E01C00E0
00E01C00E0
01C01C00E0
01C01C00E0
03C01C01C0
07801E01C0
1F001FFFC0
FE000FFF80
F80007FF00
6000000000
ENDCHAR
STARTCHAR  51ED
ENCODING  20973
SWIDTH  1000 0
DWIDTH  36 0
BBX  34 34 1 0
BITMAP
00C0000000
01C00FFE00
01DFFFFE00
039FFFFE00
071FFE0000
0F000E0000
0F000E0000
1F000E0000
3F7FFFFFC0
7F7FFFFFC0
F77FFFFFC0
E7000E0000
47000E0000
07000E0000
071FFFFF00
071FFFFF00
071FFFFF00
0700000000
0700000000
0000000000
007FFF0000
007FFF0000
007FFF0000
0070070000
00700700C0
00700701C0
00700701C0
00E00701C0
01E00701C0
07C007C380
1F8007FF80
FF0003FF00
FC00007800
E000000000
ENDCHAR
STARTCHAR  51EF
ENCODING  20975
SWIDTH  1000 0
DWIDTH  36 0
BBX  34 35 2 0
BITMAP
0380000000
0380000000
E38E7FF800
E38E7FF800
E38E7FF800
E38E703800
E38E703800
E38E703800
E38E703800
FFFE703800
FFFE703800
FFFE703800
0000703800
0000703800
FFFC703800
FFFC703800
FFFC703800
001C703800
001C703800
001C703800
001C703800
7FFC703800
7FFC703800
7FFC7039C0
70007039C0
70007039C0
7000E039C0
701CE039C0
707CE039C0
77FDC039C0
7FF3C039C0
7F03803F80
7007801F80
0007000F00
0002000000
ENDCHAR
STARTCHAR  51F0
ENCODING  20976
SWIDTH  1000 0
DWIDTH  36 0
BBX  35 32 0 1
BITMAP
0FFFFFFE00
0FFFFFFE00
0FFFFFFE00
0E01800E00
0E03800E00
0E03800E00
0E7FFF8E00
0E7FFF8E00
0E7FFF8E00
0E70038E00
0E7FFF8E00
0E7FFF8E00
0E7FFF8E00
0E70038E00
0E7FFF8E00
0E7FFF8E00
0E7FFF8E00
0E00000E00
0EFFFFEE00
0EFFFFEE00
1CFFFFEE00
1C00E00E00
1C7FFFCE00
1C7FFFCEE0
1C7FFFCEE0
1C00E00EE0
3800E00EE0
39FFFFFEE0
71FFFFF7E0
71FFFFF7E0
F0000007E0
E0000003C0
ENDCHAR
STARTCHAR  51F3
ENCODING  20979
SWIDTH  1000 0
DWIDTH  36 0
BBX  35 35 1 0
BITMAP
0000000800
3FFC703C00
3FFE38F800
3FFE1FE000
000E1F8380
383C0E0F80
1C7807BE00
0FFFFFF800
07FFFFF000
0FBFFE7C00
3E00003FE0
F800000FE0
E7FFFFF9C0
07FFFFF800
07FFFFF800
0700003800
0700003800
07FFFFF800
07FFFFF800
07FFFFF800
0070038000
00380F0000
FFFFFFFFC0
FFFFFFFFC0
FFFFFFFFC0
0000000000
0000000000
00FFFF8000
00FFFF8000
00FFFF81C0
01C00381C0
07C0038380
3F8003FF80
3E0001FF00
3000000000
ENDCHAR
STARTCHAR  51F6
ENCODING  20982
SWIDTH  1000 0
DWIDTH  36 0
BBX  30 32 3 2
BITMAP
00000300
03000780
07800700
03800F00
01C00E00
00E01E00
E0F01C1C
E078381C
E038781C
E01C701C
E00EF01C
E00FE01C
E007C01C
E003C01C
E007C01C
E00FE01C
E01EF01C
E01C701C
E03C381C
E0783C1C
E0F01E1C
E1E00F1C
E3C0071C
E780079C
EF00039C
E600011C
E000001C
E000001C
FFFFFFFC
FFFFFFFC
FFFFFFFC
0000001C
ENDCHAR
STARTCHAR  51F8
ENCODING  20984
SWIDTH  1000 0
DWIDTH  36 0
BBX  30 33 3 0
BITMAP
01FFFE00
01FFFE00
01FFFE00
01C00E00
01C00E00
01C00E00
01C00E00
01C00E00
01C00E00
01C00E00
01C00E00
FFC00FFC
FFC00FFC
FFC00FFC
E000001C
E000001C
E000001C
E000001C
E000001C
E000001C
E000001C
E000001C
E000001C
E000001C
E000001C
E000001C
E000001C
E000001C
FFFFFFFC
FFFFFFFC
FFFFFFFC
E000001C
00000000
ENDCHAR
STARTCHAR  51F9
ENCODING  20985
SWIDTH  1000 0
DWIDTH  36 0
BBX  30 31 3 2
BITMAP
FFF03FFC
FFF03FFC
FFF03FFC
E070381C
E070381C
E070381C
E070381C
E070381C
E070381C
E070381C
E070381C
E070381C
E070381C
E070381C
E07FF81C
E07FF81C
E07FF81C
E000001C
E000001C
E000001C
E000001C
E000001C
E000001C
E000001C
E000001C
E000001C
E000001C
FFFFFFFC
FFFFFFFC
FFFFFFFC
E000001C
ENDCHAR
STARTCHAR  51FA
ENCODING  20986
SWIDTH  1000 0
DWIDTH  36 0
BBX  29 33 3 1
BITMAP
00070000
00070000
00070000
70070070
70070070
70070070
70070070
70070070
70070070
70070070
70070070
70070070
70070070
7FFFFFF0
7FFFFFF0
7FFFFFF0
00070070
00070000
00070000
E0070038
E0070038
E0070038
E0070038
E0070038
E0070038
E0070038
E0070038
E0070038
E0070038
FFFFFFF8
FFFFFFF8
FFFFFFF8
00000038
ENDCHAR
STARTCHAR  51FB
ENCODING  20987
SWIDTH  1000 0
DWIDTH  36 0
BBX  34 34 1 1
BITMAP
0001C00000
0001C00000
0001C00000
0001C00000
0001C00000
0001C00000
1FFFFFFF00
1FFFFFFF00
1FFFFFFF00
0001C00000
0001C00000
0001C00000
0001C00000
0001C00000
0001C00000
FFFFFFFFC0
FFFFFFFFC0
FFFFFFFFC0
0001C00000
0001C00000
0001C00000
1C01C00E00
1C01C00E00
1C01C00E00
1C01C00E00
1C01C00E00
1C01C00E00
1C01C00E00
1C01C00E00
1C01C00E00
1FFFFFFE00
1FFFFFFE00
1FFFFFFE00
0000000E00
ENDCHAR
STARTCHAR  51FC
ENCODING  20988
SWIDTH  1000 0
DWIDTH  36 0
BBX  31 34 3 1
BITMAP
00038000
00038000
00038000
00038000
E003800E
E00380CE
E00381EE
EFFB878E
EFFB8F0E
EFFB9E0E
E03BFC0E
E03BF80E
E033E00E
E073C00E
E073C00E
E0E3E00E
E0E3F00E
E1C3BC0E
E1C39E0E
E3838F0E
E783878E
EF0383CE
FE0381EE
EC0380CE
E803800E
E07F800E
E07F000E
E07C000E
E000000E
E000000E
FFFFFFFE
FFFFFFFE
FFFFFFFE
0000000E
ENDCHAR
STARTCHAR  51FD
ENCODING  20989
SWIDTH  1000 0
DWIDTH  36 0
BBX  31 32 3 1
BITMAP
1FFFFFE0
1FFFFFE0
1FFFFFE0
000007C0
00001F00
00007C00
0001F000
E603C0CE
EF8381EE
E3C383CE
E1E38F8E
E0F39F0E
E0739C0E
E023880E
E003800E
E01B900E
E07BBC0E
E1F39F0E
E3E38F8E
EF8387EE
FF0381EE
EC0380EE
E003800E
E003800E
E0FF800E
E0FF000E
E0FC000E
E000000E
FFFFFFFE
FFFFFFFE
FFFFFFFE
0000000E
ENDCHAR
STARTCHAR  51FF
ENCODING  20991
SWIDTH  1000 0
DWIDTH  36 0
BBX  34 35 1 0
BITMAP
001C0E0000
001C0E0000
0C1C0E0E00
0E1C0E1E00
071C0E1C00
071C0E3800
039C0E7000
031C0E6000
001C0E0000
FFFFFFFFC0
FFFFFFFFC0
FFFFFFFFC0
0030060000
0038070000
383C0E0700
381E1E0700
380C1C0700
39FFFFC700
39FFFFC700
39FFFFC700
3801C00700
3801C00700
3801C00700
38FFFF8700
38FFFF8700
38FFFF8700
3801C00700
3801C00700
3801C00700
3801C00700
3800000700
3FFFFFFF00
3FFFFFFF00
3FFFFFFF00
0000000700
ENDCHAR
STARTCHAR  5200
ENCODING  20992
SWIDTH  1000 0
DWIDTH  36 0
BBX  30 32 1 0
BITMAP
7FFFFFFC
7FFFFFFC
7FFFFFFC
001C001C
001C001C
001C001C
001C001C
001C001C
001C001C
001C001C
001C001C
003C001C
0038001C
0038001C
0038001C
0038001C
0078001C
0070001C
0070001C
00F0001C
00E0001C
01E0001C
03C0001C
03C0001C
0780001C
0F00003C
1E000038
3E000078
FC00FFF8
F000FFF0
E0007FC0
40000000
ENDCHAR
STARTCHAR  5201
ENCODING  20993
SWIDTH  1000 0
DWIDTH  36 0
BBX  31 32 2 0
BITMAP
3FFFFFFC
3FFFFFFC
3FFFFFFC
0000001C
0000001C
0000001C
0000001C
0000001C
0000011C
0000031C
00000F1C
00003F1C
0000FE1C
0003F81C
0007E01C
001F801C
007E001C
01FC001C
07F0001C
1FC0001C
FF00001C
FC00001C
7000001C
4000001C
0000001C
0000003C
00000038
000000F8
0001FFF0
0001FFE0
0001FFC0
00000000
ENDCHAR
STARTCHAR  5203
ENCODING  20995
SWIDTH  1000 0
DWIDTH  36 0
BBX  31 32 2 0
BITMAP
7FFFFFFC
7FFFFFFC
7FFFFFFC
0007001C
0007001C
0007001C
0007001C
0607001C
0707001C
0E07001C
0E0F001C
0E0F001C
1C0E001C
1C0E001C
380E001C
380E001C
701E001C
301C001C
003C001C
0038001C
0078001C
0070001C
00F0003C
01E0003C
03C00038
07C00038
0F800078
3F00FFF8
7C00FFF0
7800FFC0
30000000
00000000
ENDCHAR
STARTCHAR  5206
ENCODING  20998
SWIDTH  1000 0
DWIDTH  36 0
BBX  34 35 1 0
BITMAP
0000180000
001C1C0000
003C1C0000
00380E0000
00700F0000
00F0070000
01E0038000
01C003C000
03C001E000
078000F000
0F00007800
1E00003E00
3C00001F00
F800000FC0
F0000007C0
EFFFFFE180
4FFFFFE000
0FFFFFE000
001C00E000
001C00E000
001C00E000
003800E000
003800E000
003800E000
003800E000
007000E000
007000E000
00E000E000
01E000E000
03C001E000
0F8003C000
1F03FFC000
7E03FF8000
7803FE0000
3000000000
ENDCHAR
STARTCHAR  5207
ENCODING  20999
SWIDTH  1000 0
DWIDTH  36 0
BBX  32 35 1 0
BITMAP
0E000000
0E000000
0E0FFFFF
0E0FFFFF
0E0FFFFF
0E001C07
0E001C07
0E001C07
0E001C07
0E1C1C07
3FFC1C07
FFFC1C07
FF801C07
0E001C07
0E001C07
0E003807
0E003807
0E003807
0E003807
0E003807
0E003807
0E063007
0E1E7007
0E7E7007
0EF87007
0FF0E007
0FC0E00F
1F81C00F
1E03C00E
0C07800E
000F001E
001F0FFE
003E0FFC
003807F8
00300000
ENDCHAR
STARTCHAR  520A
ENCODING  21002
SWIDTH  1000 0
DWIDTH  36 0
BBX  33 34 1 0
BITMAP
0000000380
0000000380
7FFFC00380
7FFFC70380
7FFFC70380
00E0070380
00E0070380
00E0070380
00E0070380
00E0070380
00E0070380
00E0070380
00E0070380
00E0070380
FFFFE70380
FFFFE70380
FFFFE70380
00E0070380
00E0070380
00E0070380
00E0070380
00E0070380
00E0070380
00E0070380
00E0070380
00E0000380
00E0000380
00E0000380
00E0000380
00E0000380
00E0000780
00E001FF80
00E000FF00
000000FE00
ENDCHAR
STARTCHAR  520D
ENCODING  21005
SWIDTH  1000 0
DWIDTH  36 0
BBX  31 35 1 0
BITMAP
00380000
00380000
00700000
00F00000
01FFFFC0
03FFFFC0
07BFFF80
0F000700
1E000E00
3C001E00
78003C00
F0007800
7FFFFFFE
1FFFFFFE
1FFFFFFE
0000000E
0000000E
0000000E
0000000E
0000000E
0000000E
0FFFFFFE
0FFFFFFE
0FFFFFFE
0000000E
0000000E
0000000E
0000000E
0000000E
0000000E
0000000E
3FFFFFFE
3FFFFFFE
3FFFFFFE
0000000E
ENDCHAR
STARTCHAR  520E
ENCODING  21006
SWIDTH  1000 0
DWIDTH  36 0
BBX  33 35 1 0
BITMAP
0700000000
0700000380
0600000380
0E00000380
0E0001C380
0FFFF1C380
1FFFF1C380
1FFFF1C380
39CE71C380
39CE71C380
71CE71C380
71CE71C380
E1CE71C380
E1CE71C380
C38E71C380
038E71C380
031C71C380
071C71C380
061C71C380
0E1C71C380
0E1871C380
1C3871C380
383871C380
387071C380
707071C380
E0E071C380
C0E071C380
01C0700380
0380700380
0780700380
0F00F00380
1E7FE00780
3C7FC1FF80
303F81FF00
000000FE00
ENDCHAR
STARTCHAR  5211
ENCODING  21009
SWIDTH  1000 0
DWIDTH  36 0
BBX  33 34 1 1
BITMAP
0000000380
0000000380
7FFFF00380
7FFFF00380
7FFFF38380
0707038380
0707038380
0707038380
0707038380
0707038380
0707038380
0707038380
0707038380
0707038380
0707038380
FFFFFB8380
FFFFFB8380
FFFFFB8380
0707038380
0707038380
0607038380
0607038380
0607038380
0E07038380
0E07038380
0E07038380
0E07000380
1C07000380
1C07000380
3807000380
7807000780
F00701FF80
E00701FF00
000701FE00
ENDCHAR
STARTCHAR  5212
ENCODING  21010
SWIDTH  1000 0
DWIDTH  36 0
BBX  32 34 1 1
BITMAP
07000007
07100007
071C0007
071E0007
070F0387
07070387
07020387
07000387
0701F387
07FFF387
FFFFF387
FFFE0387
FF000387
07000387
0380C387
0381E387
0381C387
03838387
03878387
03870387
018E0387
01DC0387
01F80387
01F80387
00F00387
03E03007
07E03807
1F703807
3E703007
FC387007
F01C7007
C01FF1FF
000FE1FE
0003E1FC
ENDCHAR
STARTCHAR  5216
ENCODING  21014
SWIDTH  1000 0
DWIDTH  36 0
BBX  34 35 0 0
BITMAP
00000001C0
00000001C0
0FFFC001C0
0FFFC001C0
0FFFC1C1C0
0E01C1C1C0
0E01C1C1C0
0E01C1C1C0
0E01C1C1C0
0E01C1C1C0
0FFFC1C1C0
0FFFC1C1C0
0FFFC1C1C0
0E01C1C1C0
0E01C1C1C0
0E01C1C1C0
0E01C1C1C0
0E01C1C1C0
0E01C1C1C0
0FFFC1C1C0
0FFFC1C1C0
0FFFC1C1C0
0E01C1C1C0
0E01C1C1C0
0C01C1C1C0
1C01C1C1C0
1C01C001C0
1C01C001C0
1C01C001C0
3801C001C0
3803C003C0
787FC1FFC0
F07F81FF80
607F01FF00
2000000000
ENDCHAR
STARTCHAR  5217
ENCODING  21015
SWIDTH  1000 0
DWIDTH  36 0
BBX  33 35 0 0
BITMAP
0000000380
0000000380
7FFFF80380
7FFFF80380
7FFFFB8380
00E0038380
00E0038380
01C0038380
01C0038380
01C0038380
03FFE38380
03FFE38380
07FFE38380
0700E38380
0E00E38380
0E01C38380
1C01C38380
1C81C38380
39C3838380
79E3838380
70F7838380
E07F038380
603F038380
401E038380
001C038380
003C038380
0078000380
00F0000380
01E0000380
03C0000380
0780000380
1F0001FF80
3E0001FF00
1C0001FE00
0000000000
ENDCHAR
STARTCHAR  5218
ENCODING  21016
SWIDTH  1000 0
DWIDTH  36 0
BBX  34 36 0 0
BITMAP
0000000000
0060000000
00E00001C0
00700001C0
00780001C0
003801C1C0
003001C1C0
7FFFF9C1C0
7FFFF9C1C0
7FFFF9C1C0
0000C1C1C0
0801C1C1C0
1C01C1C1C0
1E01C1C1C0
0E0381C1C0
070381C1C0
038701C1C0
03C701C1C0
01C701C1C0
00EE01C1C0
00FE01C1C0
007C01C1C0
003C01C1C0
003C01C1C0
007E01C1C0
00FF01C1C0
01E701C1C0
01C78001C0
03C3C001C0
0781E001C0
0F00E001C0
1E00F003C0
7C0060FFC0
780000FF80
300000FF00
0000000000
ENDCHAR
STARTCHAR  5219
ENCODING  21017
SWIDTH  1000 0
DWIDTH  36 0
BBX  33 35 0 0
BITMAP
0000000380
0000000380
1FFFE00380
1FFFE00380
1C00E1C380
1C00E1C380
1C00E1C380
1C38E1C380
1C38E1C380
1C38E1C380
1C38E1C380
1C38E1C380
1C38E1C380
1C38E1C380
1C38E1C380
1C38E1C380
1C38E1C380
1C38E1C380
1C38E1C380
1C30E1C380
1C70E1C380
1C70E1C380
1C70E1C380
1C70E1C380
1CF8E1C380
00FC01C380
01FE000380
01CF000380
03C7C00380
0783E00380
0F01F00380
3E00F1FF80
FC0061FF00
700001FE00
2000000000
ENDCHAR
STARTCHAR  521A
ENCODING  21018
SWIDTH  1000 0
DWIDTH  36 0
BBX  32 34 2 1
BITMAP
00000007
00000007
00000007
FFFFE007
FFFFE1C7
FFFFE1C7
E000E1C7
E000E1C7
EC0EE1C7
EC0EE1C7
EE0CE1C7
E61CE1C7
E718E1C7
E3B8E1C7
E3B8E1C7
E1F0E1C7
E0F0E1C7
E0E0E1C7
E0E0E1C7
E1F0E1C7
E1F0E1C7
E3B8E1C7
E31CE1C7
E71CE1C7
EE0EE1C7
EE0EE1C7
EC04E007
E000E007
E000E007
E000E007
E000E007
E03FE3FF
E03FC3FE
E03F83FC
ENDCHAR
STARTCHAR  521B
ENCODING  21019
SWIDTH  1000 0
DWIDTH  36 0
BBX  33 34 0 1
BITMAP
0038000380
003C000380
007E000380
00FF000380
00E781C380
01C3C1C380
03C1E1C380
0780F1C380
070079C380
0E003DC380
1E0039C380
7C0011C380
FFFFE1C380
7FFFE1C380
0FFFE1C380
0E00E1C380
0E00E1C380
0E00E1C380
0E00E1C380
0E00E1C380
0E01E1C380
0E7FC1C380
0E7FC1C380
0E7F81C380
0E0001C380
0E0031C380
0E00380380
0E00380380
0E00380380
0E00380380
0F00700380
07FFF1FF80
07FFE1FF00
03FF01FE00
ENDCHAR
ENDFONT
